<mxfile host="app.diagrams.net" agent="Mozilla/5.0 (Windows NT 10.0; Win64; x64) AppleWebKit/537.36 (KHTML, like Gecko) Chrome/128.0.0.0 Safari/537.36" version="24.7.10">
  <diagram name="第 1 页" id="WdeLZWMGOPk8EcuiBAzk">
    <mxGraphModel dx="1434" dy="738" grid="1" gridSize="10" guides="1" tooltips="1" connect="1" arrows="1" fold="1" page="1" pageScale="1" pageWidth="827" pageHeight="1169" math="0" shadow="0">
      <root>
        <mxCell id="0" />
        <mxCell id="1" parent="0" />
        <mxCell id="e7M2-kDHb2lvGnEJdWYU-1" value="" style="shape=image;verticalLabelPosition=bottom;labelBackgroundColor=default;verticalAlign=top;aspect=fixed;imageAspect=0;image=data:image/png,iVBORw0KGgoAAAANSUhEUgAAA5wAAAH5CAIAAABidqZGAAAgAElEQVR4AeydB1wTyRfHNxAgIRVILyT0oqCCIIi993J69l7vVGxn756Kvdx553n23nvvvespYkW6dJCaEEj//8PiGgERNUACbz/78XZnZ968+U4+uR+Tt28QLRxAAAgAASAABIAAEAACQMDECSAm7j+4DwSAABAAAkAACAABIAAEtCBq4UMABIAAEAACQAAIAAEgYPIEQNSa/BTCAIAAEAACQAAIAAEgAARA1MJnAAgAASAABIAAEAACQMDkCYCoNfkphAEAASAABIAAEAACQAAIgKiFzwAQAAJAAAgAASAABICAyRMAUWvyUwgDAAJAAAgAASAABIAAEABRC58BIAAEgAAQAAJAAAgAAZMnAKLW5KcQBgAEgAAQAAJAAAgAASAAohY+A0AACAABIAAEgAAQAAImTwBErclPIQwACAABIAAEgAAQAAJAAEQtfAaAABAAAkAACAABIAAETJ4AiFqTn0IYABAAAkAACAABIAAEgACIWvgMAAEgAASAABAAAkAACJg8ARC1Jj+FMAAgAASAABAAAkAACFQGAY1Wi55ld6Yu+3FFPQVRW1FkwS4QAAJAAAgAASAABGogAZVCZbBRYzK6HGIaRK3BsIMhIAAEgAAQAAJAAAhUTwKopvy4BKtRaRX5CrnulMvz5ToVq9Yt4mpUGt1SLnpotLrCHz/UWo1Kd36yVmhZo9KqlWr0RDsBUfvjsMECEAACQAAIAAEgAARqEoFCWalWqVVKlUqpUquK1Ct6odEUClu1ngw1IJtSl2wLC0HUGhAzmAICQAAIAAEgAASAQHUkgK2/fpSqms+Pj2P+rPRjoUH/W7gkXNwiiNriROAeCAABIAAEgAAQAAJAoBgB/biCwjVaRb5CKsnLzMjMKDykUinaQibLQ0syMzIlORIDBNfqutaqFCplgVKtVKNBDlqNLvBApVBhJ/r6GqzUFps3uAUCQAAIAAEgAASAABD4SECjVRYoZXmyIoWq0cplclmeTKPSKBVKReFRFG+g1arVKrREqVB+iq/VBcVqsFOt1KiVutuiRAqFi6wala6w2KmrU+ahUemckcvkIGrL5AQPgQAQAAJAAAgAASAABDAC6ItfmM4s90tgygJlTlZuTlauJFuSk5UrzZFKsiXSHCmmkpUFSrRQki3RP2USGdZ56ReF67i6FdzCA1ZqS6cEpUAACAABIAAEgAAQAAKfEdAXsvrXn1X6eIPJ348Fpfy31ABZ/Xroa2H6/+o//fwaRO3nPOAOCAABIAAEgAAQAAJA4EsEyiNV0bZfrYku/Zaha/W1LJpvQanBwmr1oxfQDkHUfmnSoBwIAAEgAASAABAAAkDgcwJflapYdVSSanWveaFveikLlOipUqj03/pCM85ib31hF7rctJiuVevsSLIlygLlp0K9pxqVBkQtxh4ugAAQAAJAAAgAASAABL5AAFOQH3Ut9n5YsQZoWq+iJVXsmX5z9Bp7pNUTr8WqYXWKlRe7LawGohajBRdAAAgAASAABIAAEAACXyCgryMLq6CiFstMq9+sSO+i8le/4bdeo3r3o+pVfzn8QKOBlVr9GYBrIAAEgAAQAAJAAAgAgVIJoHq08BGaO1Yqkebn56tUusReMpksPz8f1bJyuVwqkcoLFLo4AQMeaq1MUphZrIQyVilV+fn5sFJrQNhgCggAASAABIAAEAAC1ZQAJiW12gJZgUwqy8rMyszMzMnJyS48cnNzlUqlVqtVKBSZGZk5WTnyfHmFsMA8+XhRUFAgkUhA1FYIbTAKBIAAEAACQAAIAIFqReCjgjSiQem5BOEHRjQv4Er1I6BSqXQ/x8jy1eqvZvOrfqOHEQEBIAAEgED1IoApyI9b16LDU6vUKqVKqVCqlCosylal/Jjf4GM4rEatKXbqJzEo9kij/rjfmD5Cvd1xdYkR0FxghV4p5IqCggJYqdWnBddAwGAENCpt2LOwhfN/X750RVxMnMHsgiEgAASAABAAAlVLAFO3mBtfKvlYQSlX5uXmSbIlebl5MolMJpHl5+XrsnoVNlQpVPl5+Wg59m/RfmMfLRT9F0ttiyla9EGhHRC1xWjBLRAwDAG1Ur13914zMzNrgvW2LdsMYxSsAAEgAASAABAwSgIqhUq3evqth7pwwfVbW32hPojaL4CBYiDwwwSiIqL5HD4OwS2Yv6AouckP2wQDQAAIAAEgAASAQKkEQNSWigUKgYBhCLRt1RZBkN4/987NyjWMRbACBIAAEAACQKBKCKi1aqW6aJevLzmAxiEUe4oFJ3zTRTEjZd9C+EHZfOApEPhxAvNmz8PhcN6160S8jfhxa2ABCAABIAAEgECVEcDiWcvwwLCJacvoqOQjjRZWaktSgRIgYDACRw4doZAodAr9xrUbBjMKhoAAEAACQAAIAIESBEDUlkACBUDAcARev3zj6eaJIMgfa/4wnFWwBASAABAAAkAACBQnAKK2OBG4BwIGJJCTldupfScEQfr27gvZag0IFkwBASAABIAAEChGAERtMSBwCwQMTGD6lOlmODPfer4piSkGNg3mgAAQAAJAAAgAgY8EQNR+JAH/BQIVQ2Dr5q1kIplOpV+5eKViegCrQAAIAAEgAASAALwoBp8BIFDBBO7dvufi5IpDcCGLQiq4KzAPBIAAEAACQKDmEoCV2po79zDyyiGQmpzaqnkrBEH69e6nUn7HdiuV4yb0AgSAABAAAkDAtAmAqDXt+QPvjZ+AokDxy8hfcAjO39c/LjrO+B0GD4EAEAACQAAImCIBELWmOGvgs4kRWL9uPcGSSKfSL56/aGKug7tAAAgAASAABEyEAIhaE5kocNOUCVy+eIXH5iEIsmbVGlMeB/gOBIAAEAACQMB4CYCoNd65Ac+qDYG46Dh/3wZoWK2iQFFtxgUDAQJAAAgAASBgPARA1BrPXIAn1ZaARqUdOmgogiC+9Xxjo2Kr7ThhYEAACAABIAAEqo4AiNqqYw891yQCK5evMjMz47A458+cr0njhrECASAABIAAEKgkAiBqKwk0dFPDCVw4e4FpxyRYEFavWF3DUcDwgQAQAAJAAAhUBAEQtRVBFWwCgeIE4qLjfOr4IAgyavgopRyy1RbnA/dAAAgAASAABH6QAIjaHwQIzYFAuQgUyOT9+vRHEKRpo6bxcfHlagOVgAAQAAJAAAgAgXITAFFbblRQEQj8GIFVK1ZbmFk4OzjfunH7xyxBayAABIAAEAACQKA4ARC1xYnAPRCoIAK3btzic/g0Mm3r5m0V1AWYBQJAAAgAASBQYwmAqK2xUw8Dr2wCaSlpDQMamiPmUydP1Wg0ld099AcEgAAQAAJAoFoTAFFbracXBmdkBIYUZqtt17qdJEdqZK6BO0AACAABIAAETJsAiFrTnj/w3rQILFuyzAxn5iR2CnsWZlqeg7dAAAgAASAABIycAIhaI58gcK9aETh94rQd3Y5Gph3cf7BaDQwGAwSAABAAAkCgqgmAqK3qGYD+axKBmKjYAL8AM8Rs1vRZReOG2Nqa9AGAsQIBIAAEgEDFEQBRW3FswTIQKE5Aka8Y0HcAgiBtWrVVKpW6xyBqi0OCeyAABIAAEAAC30MARO33UIM2QOC7CSyYt8DMzIzP5keER3y3EWgIBIAAEAACQAAIFCMAorYYELgFAhVL4PCBwwwbhjliDmG1FQsarAMBIAAEgEANIwCitoZNOAy3qgmEPn3uU8cHQZAZ02aq1eqqdgf6BwJAAAgAASBQTQiAqK0mEwnDMBUCH9Iyunf9CUGQtq3bZaZnmorb4CcQAAJAAAgAASMnAKLWyCcI3Kt2BNTamdNm4nA4AU/w5OGTajc8GBAQAAJAAAgAgaohAKK2arhDrzWZwN5de6lkqjXR+uA+yFZbkz8IMHYgAASAABAwJAEQtYakCbaAQHkI/PfoPycHJwRBFs7/XaOBnF7lYQZ1gAAQAAJAAAh8hQCI2q8AgsdAwOAE0lLSmjRqiiBI/779pTlSg9sHg0AACAABIAAEaiABELU1cNJhyFVNQK39dfQYBEECGwS+e/Ouqr2B/oEAEAACQAAIVAcCIGqrwyzCGEyOwOaNm83NzAVcwZmTZ0zOeXAYCAABIAAEgIAREgBRa4STAi5VfwIP7j3kcfhWeKuVy1dCWG31n28YIRAAAkAACFQ8ARC1Fc8YegACJQh8SMto2awlgiCDBwyWy+QlnkMBEAACQAAIAAEg8G0EQNR+Gy+oDQQMRWDalGnmOPOGAUEpiSmGsgl2gAAQAAJAAAjUWAIgamvs1MPAq5gAmq2Wy+Leun6ril2B7oEAEAACQAAImD4BELWmP4cwAtMk8PTxUyexk7mZ+brV60xzBOA1EAACQAAIAAEjIgCi1ogmA1ypUQSyM7JbNteF1Q4bMlylVNWoscNggQAQAAJAAAgYnACIWoMjBYNAoLwExv06DofDBfgFJMYnlbcN1AMCQAAIAAEgAARKIwCitjQqUAYEKoXAhvUbSAQSn8N/eO9hpXQInQABIAAEgAAQqLYEQNRW26mFgRk/gSuXrgr5QrwZftvmbcbvLXgIBIAAEAACQMCYCYCoNebZAd+qOYHI8MiggCAEQcaPG69Ra6r5aGF4QAAIAAEgAAQqkgCI2oqkC7aBQJkEZBLZ8KEjEARpHNQ4N1tSZl14CASAABAAAkAACJRFAERtWXTgGRCoaAKrlq+yNLdk2jKfPXlW0X2BfSAABIAAEAAC1ZgAiNpqPLkwNBMgcPrEaTaTY25mvmPrDhNwF1wEAkAACAABIGCsBEDUGuvMgF81g8Db1+HetbwRBAkeE6xWq2vGoGGUQAAIAAEgAAQMTwBEreGZgkUgUH4C0lxp967dEQRp1qR5RlpG+RtCTSAABIAAEAACQECfAIhafRpwDQSqgMDc2XPNcGZiofjenftV0D10CQSAABAAAkCgWhAAUVstphEGYcoEDuw7QKPQrPBWWzdtNeVxgO9AAAgAASAABKqSAIjaqqQPfQMBrVb77MkzDzdPBEEmBE9QqSCsFj4UQAAIAAEgAAS+hwCI2u+hBm2AgAEJfEj70L5tewRB2rRqm576wYCWwRQQAAJAAAgAgZpDAERtzZlrGKnxEpg/dz6CIC5Ork8ePTFeL8EzIAAEgAAQAAJGTABErRFPDrhWYwicOnHK0sLShmZ7aP+hGjNoGCgQAAJAAAgAAUMSAFFrSJpgCwh8H4HY6Fg3ZzczxGzu7Hkateb7jEArIAAEgAAQAAI1mQCI2po8+zB2IyLQrXM3BEF6/tQzLzfPiNwCV4AAEAAC1ZWARqstcw1BrVbL5fJ8Wb5GU2a96srHBMcFotYEJw1cro4EZkybicPhfOvVj3wXVR3HB2MCAkAACBgNAY1Wo9Go1WqlUikvkMtksjxpXm5O7ocPH1JTU5MSk97HvY+Ojnnx/MXVS1fPnDyTnZFtNK6DI2URAFFbFh14BgQqjcChA4dJRDKbwb547mKldQodAQEgAASqMQGNRqNSqRQKRUGhcpVKpNlZ2enp6YnxibFRsRHhEU8fP71x7cap46cOHzj87z//zpszb2LwxCGDh3Tp2KVp42Z1vOoI+cLanl63btzWUYLlWqP/rICoNfopAgdrBoHXL167uejCalevWF0zRgyjBAJAAAgYhoBGo1EqlAUFBboF19zczMzM9PT0lOSU2KjYl2EvH957ePXytZPHTu7esXvNyjUzps0YOWxk3z59u3bu2qxJM5+6Pi6OLi6OLhwWh2hJJBKJZDKZRqXZ2tpx2Bwel+fl6XXtyjWdoyBqDTNdFWgFRG0FwgXTQKD8BKS50s4duyAIMqDvgPJ+dX4tIKz8vUNNIAAEgICRE9AFDKjUumXX/AJJriQrKys9PT0pKSkhPiHqXdTD+48unr90aP+hzRs3LwtZNmP6zDGjx/Tt1bdd23ZBgUF1vOq4OLoIeEJbuh3ZmkwkEEnWJCqVamtjy2KyeFyeh5uHv69/y+Ytu3f9adjgYRODJ86ft+Cfvzdu37p93+59yYnJRg4H3EMJgKiFTwIQMBYCaFhtXe96+XkFxuIT+AEEgAAQqFwCapVat+yaXyCVSnNycjIzMlNTUuPj46PeRb0IfXH75u3TJ05v3bR19YrVM6fPHD50eJ9efdq3be/n4+fs4MxmssnWZHOcubm5uZWlFcmaRKFQbeg2TAaTy+V6uHr41PVt3rR5t87dBg8YHDwueO6suWtWrtmxbcf5s+cfP3oSGRGVkpQiyZGq5KrKHTT0ZhgCIGoNwxGsAIEfJ7B9y3ayNYVGpj2490CSK8nIyEhLTUtOSk5MTExISEiI1/2TmJCYmJCYkpySnpaenZ0ty5MpFAq1GjbX/XH8YAEIAIFKIaDRqtVqlVIllyvyZfkSiSQzMzMtLS05OTk+Pj4mKiYs9MW9O/fOnjq7Z9feDX/9E7IoZOKEif369OvYvmNQYJCzgzPDhkGj0EkEkoWFhZWVTrnSqDQ7Wzt0zVUsEtf2qO3n69emZZs+vfqOHvnL9KnTl4cs37Jpy4mjJ25ev/nm1ZsP6R/USvjarJTprtxOQNRWLm/oDQiUIKBSqWQyWW5O7qkTp91d3QkWhHFjgndu37Vk0ZKpk6f+OvrXYYOHDew/sH/f/gP7Dxw8YLBugWFs8Kzps9avW3/00NE7N++8efUmKTEpIyNDKpUq5ArIdFuCMRQAASBQuQQKlauiULaica5ZmbpogeTk5Pex79+8fPPk4ZMb126ePnlm9849q1asmjFthi5aoHfftq3bBvgH1vasbS8Q2dnYUawp1lbW1kRrCplCp9Pt7OxYLJZIKPJw86xfr36jho3bt2nfp1ffcWOC582Zt2rF6u1btp87c+7BvQdhoWHREdGpyanSXCno18qd+6rsDURtVdKHvmsyAY1aI8uTpaakhoWGnTpxavPGzcFjgp0cnAkWBAFPIBaKqWQaiUgiWZPIZDKFTKGQKWQymUwik6xJRAKRaEWkUeg8Ns/TzbNVi1Yjho4IWRRycN/Bu7fuxkTGZGdnq5Tw81lN/nzB2IFAxRPQaHWhAkqlXC6X5clycnIyPmSkpKQkvE+IjY59/fL13Vt3T588c2j/oS2btqxesXr2jNnjxowb0G9gu7bt/Hz9PNw8HESO9gIRm8GmkqhEApFCptjY6EIF+Fy+p5tnfZ/6jQIbtWnVtmf3nsOHDJ888beF8xauXbV2145dp46fun3j9ovQF7FRsekp6XmSPHm+XK2CxdeKn3Tj7gFErXHPD3hXHQmoVerMjMyItxFHDx2dOnlqu7btXJ1dOSwOm8nhsrj2fHtXZ9daHrUa+AV06dR1QL+Bw4YMGzl85Kjho4YPHTF08NAB/QZ279K9aeNm3rXrODs687g8Go1maWlJJVHFIrG/r3/fPn3/+uOvRw8eJSYm5klhK4fq+BmCMQGByiSg0SqVhbkF8nS5BbIys9LS0hITEmOiY188f/ng7oMrl64cPXR00z+bFv++ZOL4iYMGDOrRrUe7Nu38ff3dXNxEQhHTjkklUclEMo1Mo1FodBodDXK1F9rX8qgVFNiofZv2Pbr1GDF0xIypM9BQgXOnz925fefp46evX76JjYlNS0nLyc7Jl+aDcq3MmTe5vkDUmtyUgcMmS0CjlRfI01LTXj5/uWLpii6duvC4PLw5nkwis1gsB5FDm5ZtJo2ftGrl6n179l29fDX02fO0lLQCWYFaqdY/C2QFWRlZEeERd27dOXP6zJZNWyZNmNS6VWsXZxceTydwLSwsCJYET3fP4UOHH9h7IC4uTpIrgR1xTPZzA44DgaokoNFo0lPTHz94fPHcxQP7Dm7auHnV8lUzps0cNnhYl85dmzRq4unmyecJmHZMXWIBIploRSQSiGQSmU6j29kxOByOUCB0EDt4uHk0bdy0e5fugwcMnjxh8rKQZZs3bj544NCVi1f+e/xfTFRMdka27usOVlurcrZNvm8QtSY/hTAA4yegVqvzZfmpyWm3rt+aM3NO08ZNuWwulUxlMVl1vev279N/5fKVp0+eDn8d/n175KqUqqTEpLt3727ZvCU4ODgwIJDH41GpVAsLCx6X16tHr907dsdGx+bm5MIrZcb/aQEPgYBREciX5m9Yv8Hf118sFLPsWCQCiUwk64KjSCQqRZcSi8lgctgcPp/v5uxWr0691i1ad+vcbVD/QRODJy6c//vf6//ev2f/hbMXHj18FBEekZSYlJWRpShQGNUYwZlqQwBEbbWZShiIkRKQy+XxcQmXzl+aM2tuUEAQw5ZhQ7fxrec7oN/A5SHLL128nPg+0YDvMeTm5j5+/HjL5i2jR44ObBDIYrIIVgQhX9ind5/tW7e/e/tOKpUaKSlwCwgAAeMj8D72fddOXXE4HJvJ8a7lXderbpOgJp3ad+rTq++IYSOmT52+ZNGSv/78a+f2ncePHr966eqL5y/ex8V/SPsgyZHCsqvxzWc19whEbTWfYBheFRLQaDSSXMnDew9/X7CoSaOmQp6QzWD7+fqPHzv+2JFjke+i8vPyK8691NTUO7furFi6ok3LNkwmE4/Hi+3FfXr1OXzwcGpKKvzPpuLIg2UgUJ0I3Lx209nRmUQkTwiecO7MuWtXrz289/DF8xdREdFJiUm5Obm6ZVfYaqs6TbkpjwVErSnPHvhuxAQUCkVSQtLeXft+6vqTkC+0odnW8643YdyE40ePJ75P1FbWS7pqlTr0aejSkGWB/oE2NjY4BOfi6DLltymvwl7lyypQUhvxzIBrQAAIlJeAWqVev2490Yro7uoe+vR5eZtBPSBQRQRA1FYReOi2WhOQ5cme/Rc6c/osT/daVBLV1dm1f5/+x48ez8rIqqpxP338dPqU6c4OziQSGUGQtm3anjt9LiMjA5ZYqmpGoF8gYPwEsj5kDew/0Bxn3q1zN6VcafwOg4c1nACI2hr+AYDhG5iARqPJycq5cO7igH4DOSwul81r2qjp6hWrI95FGLinbzcnk8pOHj/Zu2dvJpNpgbeo5VFr9co1Ce8TlEr4f9W304QWQKAGEHjy8Il3LW+iFXH2zDk1YLgwRJMnAKLW5KcQBmA8BFQqVVpy2q7tu1o2a0mj0MT24pHDRp48djI3O9d4nHz39t3ihYt96viQSCQ+VzD213FhoWH5+RCKYDxTBJ4AAWMhsGXTFluardhefOLoCWPxCfwAAl8mAKL2y2zgCRD4FgJqtSY2Knbt6nUN/Bqw7Fj+vv5LFy99+/qtSm50O3vl5uQeP3b8p64/USgUKwurn3/6+dqV6xBi+y2zDXWBQPUnoFQoR4/8xQwxa9OiTXREdPUfMIzQ9AmAqDX9OYQRGAEBlUoVHxu/cN5CF0cXOxu75k2b79m1NzfHiBZoS0J6/Ojx4IFDbOg2ZohZi2YtL1+4XJBfULIalAABIFAzCcRGxQb6B1riLWdMnWGEf5zXzEmBUZdNAERt2XzgKRD4OgGVUhUTGbNw3kKxUGxHt+vQtsOp46dM4qWKqMjo8WPH29na4RBcy+Ytb16/Cbr26/MNNYBAzSCwb89+hi2Dy+bu37O/ZowYRmnyBEDUmvwUwgCqnEBURPTc2fPcnN14bF7P7j1vXb9lwM0UKnp08XHxUydP5TA5OByubeu2t2/chhS2Fc0c7AMB4yegkCtGDh+FQ3CBfoGPHzw2fofBQyCg1WpB1MLHAAj8EIHMD5lo1AGLwer9c+/bN+9oKisH7Q/5rdc4JTl1wdwFPA7PwtyiW+du4a/DQdfq4YFLIFATCUS+i/Sp42OJtxz7y9jMD1WWi7Amoocx/wABELU/AM9EmmrUGqVSqVKq1Gq1RqOBvKQGnLfc7Ny///zb1cmVw+T06Nbj7q27JqdoURopSSlzZs1hMVjmZub9evfTvRQCWwQZ8IMCpoCAaRHQaA/uP0ij0Lhs3q7tu0z0a820kIO3BiEAotYgGI3FiEJeynaFsVGxly5cunH1xp1bdx/efyiTFk/epFQoJbmSKl+c+5D+4c2bt6kpqbI8mbEALdMPWZ7s8IHDHq4eFBKlY/uOVy5eqXKGZfr7lYdJCUkTgyeSybqtGaZNmf4h7cNXGsBjIAAEqimBApl8/NjxCIIE+Ae+evG6mo4ShlUNCYCorQ6TqtFo8vPzExISbt+8nZqcWmxISxcvxZvhqWQqhUSxo9u9ff22WIXw1+E7t+18+vhpcnKyVCrVqEtfo1MqlXK5HF30VSlV33Gq1V/8YV6pUK5dva5Rw8azZsw6eujo65evU5JTjHmxUKlQ3r5xu22rtpZ4y/o+9Q/tPySTmIYWLzb7+revX7zu3rW7paWlg8hhw18bpFKp/lO4BgJAoIYQiHgb0bBBQwRBBg8cLMmF74EaMu3VYZggao1iFvPz8z98+JCZkZmZmZmVmVXGqauRmZmRkZGTnYO5npyQfPrkmV9H/+rn67di6Qqp5LPvoHlz5iN6x9tXn4lahUKxcP7vtjTbAL+AyZN+O3LwSG5W6YmowkLDrl+5/uDug4f3Hz1+8Bg9H91/VP4zPi4B87nYxdtXb91d3VE3mXasAL+AVctXoa9byfJkSfFJeXl5xZpU5a1GGx0RPWb0GDqFLhaK161ZZ1TbK/wImVs3bgX4B+LxeJ+6PpfOX/rSXzg/0gW0BQJAwKgJaLTnz5znc/h4PH7dmnVG7So4BwQ+JwCi9nMeVXT336P/li1ZtnrF6nVr1q1b88e6NX/8sfbPUs+1q9auXbV2xbKVO7ftxJzd8u8WJ7ETqgidHZxPHj+lv8Y5f+4CTNPiEFxsVCzWUKvVvnj+0qeuD1aheZPmEeGlbeiq0f4y8hfvWt4+dX3q16vv5+uHnvXr1S//+c/f/+h3jV1LpdIFek4iCEKyJi1auCg/Lz8xIfHEsZMTgyeePnlGoVBgTar2Il+av/Hvje6uHiwGe/KEycmJyVXrj2F7P33qjNpe6YQAACAASURBVKuzKw7B9e/bPzmhWg3NsKDAGhColgQUBcqQRSFEAlHAE9y5eadajhEGVV0JgKg1ipld/8dfBAsCkUC0JpDQk0wkfzqtyWTsJJKtCSSCBcHT3RNz/fiR4wKuABOmjRo2io+Lx57qi1ozxOx97KdHedK8SeMnYQ1pVNrK5Su/lGC1VfNWWM3vu5g1fRbmFXahUqounLmALdMiCGJuZt6hXYfkxOSH9x+OHTPWxdnVHGfuV98/9OlzrFXVXjx+8LhZ42ZUMrVzh85vXr2pWmcqovf5c+dbW1vTafS1a9bCDroVQRhsAgGjJZCUkNS1U1cEQTp36JyeCrH1RjtR4FgpBEDUlgKl8ov+WPPHt8pEAU+gvxy7dvU6KoWKGZkQPAELiCwmahM+xgAoFIozJ88wbBloKyKBOHjAYEmO5EvD79i+I2b/+y5mz5hd0nh0RHS3zt0wg2ZmZi5OLpcuXNJqtdOnTLfAW2CPhg8ZnpVZ9ZllJBLJtN+mkYgkFyeXA3sPlBxRNSh5+/Ztq5Ytzc3Nvb2879+7Xw1GBEMAAkCgnARu37zj6V4Lb45fHrIc8h6UExpUMxICIGqNYiI2rN+ASbcvXeAQnP4jR5GjVu+1q4L8gp9/+tnczBytQ6PQLp67iI5t4byFWEMcgsMCW1+/eN28aXP0Ed4c36xxs+fPyloKHdR/EJfD5RceQoFQKBTa2NhgllksllgsZjFZWImdrZ290F4oEPJ5fB6Px+VyQxaFFMOdm5O7cP5CawIJa8Xn8NeuLorienDvQR2vOtjAbem2O7ftrNotr1RK1ZlTZ2t71ral2QaPDU5PTS82ompzu3//fnt7ewRBfhn9S7WJGK42swMDAQIVR2Dzxs0cFpfD5EDsQcVBBssVRABEbQWB/Taze3busf94iOxFDmIHDoeDKVQEQRh2DAd7B5FIZG+vk4kCgaBxw8bFtq26fuW6SCjC1OHggUNQ/ff7/N+xQgRB3se+12q1mRmZunVQ86J1UGcH5wP7vrLoeO7suTWr1mz4e8OGvzds3rh5y+atw4YMM8OZocZnzZi1f++BKZOm4ApL8Ob4X0f/un3L9s0bN/+9/u8//1i/bs2661eu63ORSqV7du11FDti7lFIlAnBE1OSUrBqm//dzLL7JJQb+DV4cO8B9rTyL97HvO/9cx9rK+uggKBrV64ZxIGcnJz09PTs7Oy8vLyCggKlQlFGmgiD9FgeI2lpaSNGjDA3NxcIBKdOnDLpbGXlGS/UAQJAQKvVKhSKX0ePoZKoLZq2yEjPACZAwLQIgKg1ivmKDI/cvnU7eu7cvnPf3n2zZswiW+syhiIIYoG3HDcmeMe2Hbt27EJl4sYNGw8dOKS/UqvVapVy5dTJU60srYgEooPYYeTwkag6DFkcgqnGwphanai9ce2mn4+flaUVgiA2dJvFCxfnSb45vcDRQ0cJFgTU+JNHT7Ra7dXLVy3xOps0Mu3cmXOfwdVo9X/JkhfIz5w64+HqgflmaWnVs3vPVy9e6bf6kPZh4vhJRAIRrYZDcEMHDa2qIASlUrlz206mHdOWZvv7gt8Nsn6pVCpPnDgREhKyefPmk8ePX7ty9cG9e2GhoVGRke/j4pKTkz98+JCbk5svy1cqlbq9MyrxuHTpkkik+zNp6JChadV3TboSiUJXQMDYCcRGxfrW8yURSHNmzTF2X8E/IFCCAIjaEkiMo+DgvoMkYtGP8hwW99aN26X4pdGqlCpd0qWPUufp46cNGzTs0qnr/n0HkpOK3ltfvXINJhzxZng0pjYpIWnt6rWtW7Tm8/ijho9KTU4rsq/Rll85HTtyDBO1of+F6kTtpSJRSyFRz54+W4rPhUUKueLBvYdNGjfBHLOwsAhs0PDZk2dyuVySK8nMzExNTU1KTEqITzh35pybS1G2LwRBKCTKpn82qVSqLxmvuPL4uPg+P/dBEKRhg4ZPHv1nkI5yc3OHDRtqZ2vrIBZ7164d4O/ftHHj1i1b9ujefcSw4TOmTVu+dOm2LVtOHT9x59atsNDQt2/eREVFJcQnpKen52Rny+Vyg7hRqhG5XD527FgzMzOxWHzmy7NZalsoBAJAwBQJHDl4hE6l8zj80yfPmKL/4HMNJwCi1ig/ABrt3NnzMMFXy6NWdGRMSUdTklJuXL1x7/a9Jw+fPP3v6bOnoffv3J8/d8HxoydCQ0OfPXv29L+nYc/DZkydgZnCm+HPnzn/PPR56LPQ56HP9+89MHL4qD279j57qqv85MmTxw8ev3j+Ql5QLql07PAx0sdwWEzUojKXQqLqMouVdmRnZT+897B3oTrEHGPZsRbOX3jn1p3TJ05v/nfz6pWr586eO3ni5LFjxvXt3VdkL8ZqIgji5uIW8ba0vGOldWeoMo1ac/zocbG92JpgPW/OfHm+YfKLZWdnd+zYEW9ubmdjy7C1taXRqWQyiUi0JhBIRCKdSqVTqCwGw1EsrlenTpOgRq1btuz988/jx45bFhKydfPmK5cuhb99m5iQkJuTq64AoX/58mUej4cgSPC44HxZ8b3oDMUW7AABIGAMBOQF8rG/jLXCW7Vs3ipeL0+OMfgGPgCB8hAAUVseSpVdp0BW0Pvn3piMa9u6bXbmp60WMG/27NjDZrL5XL6DvYOzk4unu6dXLS+vWl7eXt5etbw83DxcnF3r1alnL9S97oMdXp66Cp4etby9vBv4NfCp6+Pl6eXu6u7s5OJg7yDkC9u2bvulrzN5gTw/P1+3r5hCt7PYscPHqGQaavnhvYdqlfra5WuoqKWSqMcOH9NVKzzlcrlKWbS2emDfwTat2lhZ6KIUsINCojg7uXDYHEu8JVZYxsWkCZP0t5/AmFTcRU5mzsTxE63wVj51fZ49eWaojlJSUoKCgggEAp/H43O4fA6Xy+bonWyGrS2NQqGQSBRrEtnammhlRbC0pFiTGLa29nyBh6tbh3btJo2fsHfX7tcvX2ZkZCiVSkP5ptVqpVLp8OHDdWkQvL2fPnlqQMtgCggAAWMj8O7Nu7redSnWlCmTp6gUVfBrmLEBAX9MjgCIWmOcstjo2Pr16mOSbvKEyfrRqJjHO7buwOoY8MLVyfVdaeugKoXqzs07Z0+fu3r56v93iL1/98GSRUsoJAra9V9//PXk4ZO//vwbVaUEC8Lc2XNv37x968atG1dvXL54+fnT5+j7TxOCJ/y4txw258iho5X5QtXjh48bNWxsTbCePHHyl1L5YlNT/ovIyMi6devSaDShQCDk8YU8Pp/Lw070tlDjsrlsDo+jOz/esjlMli2NTiGRbKi02p6egwcM/OvPP0OfPpXklr4nXPm90q957tw5DodjbW39159/6ZfDNRAAAtWMwL7d+6hkqkgo2rtrbzUbGgynhhAAUWuME33l4hUsfawl3nL71u2lerlrx+5i6tAMZ4ZDcDicmbmZOZqFAKugK/88KRiCIHg83tzMHMtggFb+kqiVSWQ9u/d0dnLxcPPw8vSq7+vnKHbEbLo4uzYMaOhVywvrkc/le9Xy8nT3RJeB+/fpnyeRabXaI4eOWBOssWqlXuAQnKWFpZWVFYVMsbW15XK4IpFILHYgEIreS0MQpFOHTonxSaWSMXihRq35d8O/LAbbycHpwsdcaQbp5dmzZx7u7gwGQygQ2POLdC2mbotpXD6XJ/h4onWEPD6XzWba2dnS6Cw7hpODQ++ffz5y6FBWZqZB3NMlysjMbN++PYIgP3X7CSIQDEUV7AABYyNQICuYEDwRh+CCAhs9N5qdboyNEvhj5ARA1BrjBK1YugITi1w299l/H3/s/vhCGOr0+TPn69ap6+Pj61ffz9fX18fHp2GDhgF+AYENGvrW88UCA1DViIpazKxO0ZrjPd09mzRq0jiosV99P50RH9+6det16dglOiK6JBeVQqW/flyqGC2jMMA/MDsjW6vVJick1/Ouh9bEm+OtLK2sidY0Gp3L4To4OLi5unl7efv7+nds17FXj16jRoyaPm36qhWrdm7buWfXngZ+AVgXbCb72OFjuvfkKv7Iy80bPGCwlQWhW+dumR8Mphe1Wu3FixfFIhGzUNSKhEJMqmIXfC638OShJfZ8nfYtdgq4PC67cOGWTreh0gL9G2zZtCkry2AbVYSEhFjgLXhc3n8Gej2u4mcMegACQODbCLx7+65B/QYIgowYNgL9rv629lAbCBgBARC1RjAJn7ugVCh79/wUUBsUGCTNlRZV+Vy/yaSyZ/89C3/7Li4mLvJdZPib8KjIqNjo2BehL/5Y80exUFpU1JohZthiJ4VEGTxw8KMHj5ITk9/HvNcZCY98EfYy/E14fl7prwQF+gdimrLk0q++YkYQpNhtgH9gbpbuZ3GVQvXrqF9FIrF3be//7/jQvUv3vr37DhsyfNmSZXt37z17+uzjh4+jIqMyM7LQnGVZWVmxMbF5Ul3GsVXLVxGJRIIVQSQS/9zj55vXb1ZO4NersFdenl50Cn3J70s+n64fvdu3Z6+Az2faMez5AlTUCgqDENB/hTw+GnLA43CxEn1FKxII0VtU8vI5XKadnQ2VVtfbe8f27RLJF/eH+ya/r1+/LrLX5fZatXzVNzWEykAACJgKgZPHTzJsmXg8fu3qtZXzvWoqZMBPEyIAotboJis2KtbV2Q3TjsFjg8vvokKhiI+P37Jpay2PWqgFAoFIJhXlu0UQxApv1apFKzqVjj7lsDizZsx6/eK1VPJRN5fZWVBAENoQb453EDm4OrkyGEW77Ar4AjdnNxaraKMELpfr4eohFAgxaYuJWl2W3Ks3tm/dcf/u/fcx76W50ojwyP179t+/cz85KVknXj9q93xZfnRU9Ia//hk6eOjxI8cluZIXYS/btGrTvk377Vt3JCcW5Swr02XDPPzn741ka7Knm+fVS1cNY/Gjlb/+/JPLZrMZTEzU6mIMCiNr7fkCsdBewONxWCw2k8lhsdlMFpvJ0r1PxuUK+XxM0RbTtQxbW7K1db06dU6fOlVQUPCxq+//b3p6eudOnREE6dqpa4HMAAa/3xVoCQSAQAUQUCqU8+fOtzC3FPAE927fq4AewCQQqAwCIGorg/I39bF7524sM8D/IwR0myyU78jJznlw98HE4IksRpGytLK0at60RcvmLTGJTCVRr1+5PrD/IIJVUXAq3gzfuWPnwwePpCSnfDVDbaPARqgppi3z33/+PXLoyMjhI3E43f69ixYuOn70+Nhfx6IVZs+YffL4yTUr11gV7sWAIIi+qMVkq1arzcnJWThvoaPYsb5P/elTp584eiInqyjVw4O7DwYNGITuKFbLo9bhA4dzc3KvXbn2+uXrUt+cKx+nb66lUqoGDRhshpi1b9P+S3khvtloYQONWr1g3rxCwcoSCYXoSi36lhiPw3V3dW3TqlWLZs1869ar7enp5uIiEtpz2Wwhn89hsbhsNp+jk7b2hcG4+rqWx+HY2diQiMROHTuGPS9r6+Nyuq3RaGbOmKnbXYwrCH8dXs5WUA0IAAFTIZD4PrFb5254HL59m/Y5pSXbMZWBgJ81nACIWuP6AKhV6kEDBmEa1FHkmJTw9Xeh1Cp1QnzCts3bWjZviW3ZYGVp1Tioybkz5xYtWIQZtCZY5+Xmoeud1sRPb2u5u7jPmjEr9Glo2Zt1YaLWycEZlZ47tu5A0x1cvazbM3bXjl3o0uyl85e0Wm1EeKQNzQbt/TNR+5G6LE92YO8BbKdcc5x5+7YdXj5/iT7/d8O/2KIygiB1vOvu33sgN9cwP6l/dOHr/01NSq3vUx+Pw4/5ZeyXAjO+bqW0GvL8/OCx4+xsbLhsdjFRy2GxWrdsdfrkySuXL+/bs3fTxn/XrVkzb87c8ePGDRk0qFP7Dg38/BzFYg6LxWGxBVyeTtrqvWrG53BtaXQum7186TKDLNbu3bPXzsYOh+COHDxS2lCgDAgAARMmcPXSVXdXDxKBZPAIKxOGAq6bIAEQtcY1aUkJSY4iR0yD9uvdLz09PTVFt7dWUmJSclJyYmJiYkJibk5Rzia1Sp2WlvbowaPgscEcFgdraIG3aNa42ZVLV7Ra7bIly7Byc5y5JEcXafD44ePOHTpTqVTsEQ7BBfgHrP/jrzev32RkZKhV6pJoMFHrKHYsyNP9DL1n5x40Me2Fsxe0Wu2+PftQUXvloq7rqHdRZOuinF8B/oGS7M/0aF5e3plTZ33r+WI+MBiMZUuWFeQX/cCdFJ80cthIGq0oFS6CIJ7utfbvPSCVlitYoqT/31dy7859ph2TSqKuWbVGf435+6zpt8rJzBrQr58NjcbjcEQC/ZVaLsuOMaBfP8nHiUZbqZVKmTQvKT4h7Pnz48eOzZo+o0mjRgIej2lrx+dwdbJYT9ei67Xt2rSJePdOv9Pvu37y5Ama2mL6lOmlfja+zyy0AgJAoMoJqJSqVStWUawpPA7v/t0HVe4POAAEvpsAiNrvRlchDbdu3mqGmGEir13bdksWLZk7e+7U36ZOmTxl+pTpv036bdL4SRfOXZQXyOPj458+eRayOMS/vj/WBEEQWxvbJkFNUEWr1WqXLl6q/xQLRX365OnQwcM4bI65mTlWgWJNadem3eoVqx8/fJKZUfw1f0zUOogc8nJ1b27t2LbDwtwCQZBzZ84VrtTuRkXt5QuXtVrt21dvra2K1oOLidrcXMmZU2fqetfFuqbT6BODJ2LuoXyTE5OHDx1OpXwS357utY4cOlqZ67UH9x20srByFDue+sIead/9UUhNSu7Qrj2dQuVxOPoxtTwOx5ZO/2XkKHWZOykUyGTXr14bMnCQ2N6eZccQcHlie3uRsOjVMQGXx2YwXZycThw//t0eYg2Tk5JbtWiFIEivHr2khVOPPYILIAAETJpAekp6v979cAiueZPmWRkGy5pi0kzAeRMlAKLWiCYuJyunedPmmMgr42LenHlvXr2ZMG5Ck8ZNydZ674FZWjmIHILHjtdPvbRk0RJ9U/qqMT4ufvHCxXW965LJReupaE0rvFWbVm2vX7lejA4masVCcX7hSu3WzVvNcTpNjK7U7t65R3+lNvJdFJaSVl/U5ubmHj54pL6PH+YYlUIdNmR4RHgpm99GR8UMGjBYX9e6u7kfOnConC+3FRvCt95qNBr0rwKfuj5PDJ3QKjoyskmjRjZUGpfN1olagS6lF78wP5cNjTZl8uTyLAy/fvlq2JAhXBZbt9xbGJir07WF0Qh8DpfDYs2ZOeur0dJfxSKXywcNHIwgSMtmLVOSUr9aHyoAASBgKgQe3HvoVcuLYEGYPWO2qfgMfgKBUgmAqC0VSxUUajSak8dPYRIQU3ulXiz5fcm1K9f1AxXQBdoWzVps27wt6fMtCRYvXKxvRF/UarVamVR29vTZ/n0H2AvtLS2KtqglkUhDBw97++ptMRCYqBUJRKio3fDXBn0Vu2tH0UotGn4QExmDBicgCNKwQUM0/EAqkR4+eCTA/1PGWRKJ1LdX3zev3hTrDruNCI8Y2G+gfrCETz2fE8dOyvJ0uzlU6KGUqyYET0QQpHmT5nHRcYbt62VYWJ3aXnQKFRW16OYLfC5Pt1UYnb5o4cJydnf6xEl3V1csMLdI2hZKZDqVOnjAQKVcXk5TZVSbNWMWgiDetb1fvXhdRjV4BASAgGkR+Oevf2gUuoPIAX0XwrScB2+BgD4BELX6NKryOicrZ2C/gfrqs4zrVctXqRSqdavX2dnZIQhCIBBcnF2mTJ768MHDkmkB9F8UQxAkMT6x5DjjYuL+/effDm078Hg8IoHYqX2nF6EvSlYrKWqXhyxH/XxQGIlVTNRGvYuy/Jj9ICggSJItkUgkB/cd1I+XIFgROrXv9PTx08SExIiISCxcuFjvURFR/fsOwJI26NIpNAi8fOGySlmxG5RLcqT9+vRHEKRn954GT0h+9/ZtR5GYRqYUE7VsBpPFYGzcsKEYhC/dxsfGtWnVis1kFobVCnXhuYX5awU8PoVE6ti+fY4hNmL4Z8NGBEGEfOH1qze+5AmUAwEgYFoElArl8KHDddld2rZPTqi8PImmRQm8NRUCIGqNY6Y02gvnLgh4An0ha2Fu4ePj08C/gb+fv7+fP6pf0QrLQ5ZrtVqlXDlh3AQXZ5fuXbsfPngkIjwyJSVVIpGoVJ/pvN/n/65vNvJdJDZmjVqTlpaWkpySkpKa8SEj4X3C6pWre3Tvea0wlQFWDbvQF7VymVyr0aKrmFZWVjGRMfoxtehK7bu377CY2kaBjZLik3Zu34nlOtDlzbW0ata42bWr1/KkeTOmzezTq+8/GzY+evAoNiYW6xS7CH0a2rxpc2w5GUGQ1i3blLr5Gdbkxy8S4xObNm72/z8GRg4fKc9X/LhBfQunjh/nsdlY+IG9QLdNLp/L0wXI8njHjpQ3z0CeRDJk4CBbOr0ooPZjki8+l0u2JjVt3Dg5sZS/ZPQ9Kc/1ieMnEQShU+mH9pc3zVx5zEIdIAAEqpBATFRMw4CGlhaWM6bOqEI3oGsgYBACIGoNgvFHjWSkZwwuDFjUV580Mi30v9CoiKh34RHvwiN+6voT9nTFshVol3ExcYcPHUmMT0xLTRs2ZNic2XO3b93+KuyVvkPr160Xi8QODo5ikVgsEr9++em343xp/qKFi2bPnD1n9tw1K9fIZLpf85MTkzWqj/sf6BvSaouJ2vy8gq6duyII4ubijua6KrZSGxcdx7Ap2p2hUcNG1y5fcxI7YaOwtLRsGNDwwjld2oRrl69hyb9cnFx0X6+luXD54uUG9RugAQ9mODOxUGzwl7c+H7E2MjyyTu06CIJMnliuCNdizcu+3b55C9uOwbCx5aExtYXb5BaKWjtnR8fbN24Wb14aE61WmyeRjBg2zIZGQ0Ut+i+6GxmVRG7VokVK0tcTwxXvq8T99avX8eZ4C3PLTf9sKvEQCoAAEDBJAnt37eWyuPZ8+4Pwx6pJTiA4/RkBELWf4aiSG6VCuX3rdg77U0IuVPZRSVQ0bRbq1chhIzE5uHTx0mKu/vXnX0WtyNSlSz57+jLs5dZNW3ds37l109bNm7akpaRhbTM/ZBKtiGhDOxtGTJRutbWMQ1/UKgqUL8NeoZuf9e7ZG22F5ak9dvhYXp4sJjJGwC1afm4c1Dgs9MX4seNt6LrMtRYWlg3qNzh14pRWq83KzBoyaAg2OoIV4ddRv5YqarUa7ZFDRx1EDgQrQi33WstDlr+PfV+Gwz/+KPzNOy9PLwRB5s2e9+PWillYs3wFy9aWbcfgo9kPCqNghVwe09bWy9Pz5fOwYvW/dJuWktKn588MGxuxQCgujD0Q8QsXfTkcGpnSqX2HzPQPX2pb/vIH9x5QyVQzxGztqrXlbwU1gQAQMFoCCoVi4viJVnirJkFNiq2GGK3P4BgQKIMAiNoy4FTSo6iIqAD/QEzSYRdES2K23s4uQwZ+kn2LFizSdy47M7uBfwO0IZlERpWiThRqtNhr7/ICeWxMbFRkVFRkVHR0dEx0TGxsXOjTUDR3AYIgVDL1zq07cbFxkRGRMdExCnkpP7VjotbB3iE/r2DD+g2WeEu8OX7j3xtRf/bs2mOO6JIhjBo+at+efWtWrWXaMVHHGgc1zsvNy0jL+GXUr0wG08/X//Ah3c/rCoVi3+59XDYPG7hvvfqPHzzWH6D+tUat3bhhY7fO3Q7uPyip+I0YXoW98nTz/L8KX7IoRN8Ng1zPnDKVZWPLY7IEbI6ILxALhPY8vj2Pz7KxbRQQEBf9lb8xMB9ehj5v06Ilj8V2ENo7CO1RaSvk8gRsDp1M6d+rd0H5tkHGDJZ6EfpfKLr/wuqVa0qtAIVAAAiYFoG46LgmjZoSLAm/jPo1N7so/blpDQG8BQL6BEDU6tOomuurl65aWVphkg67sMJb5WZ9+pYZPECXUAk99EWtWqU+evgY+os8giAOIof9e/dfv3b9yqWrVy9dvXLpysOHD2OiY/57/HTU8FED+w8c2H/gkMFDhg4ZNmrk6H59+uHN8KhNc5z5zz/9/MuoX/r36T9i6IhS94PFRK2bs9udm3eCAoIQBHFxdImNLgqBPX/2ArovLt4MTyFTiIRPm5aholar1Sa8T5w5bebxY0XJU1+GvWxWGLT6cXBI/74Dbl2/de/uvbt37t69c/fO50dYWFhmRmb8+/jKma2wZ2HODs4IgoSUWB3/cQdGDB7CpNsIWGwBm2PP4zt8FLUMGr1Lh44ZaZ/W1MvoS6lQbP13k7dnLbFA6GQvchTaOwiEDgKhkMPlMVl0MmXi2HFaQ7xO9+L5S4at7k8UELVlTAc8AgImRODIwSMMWwbLjrVp42YTchtcBQJfIgCi9ktkKq88KyO7tmdtVNJRKVTsBX8Lc8vyiNrUpNTePXtjihBBECLBmkwkE6wIVngrohXR3c1jzOgxC+f/jiUi0K9c6rW1lfWj+49KIsBErauza++evXEIzpporZ/aMDY6tlFgIy6Xy2AwmQymrY0tZh8Ttbp4g4xs1PiH9A+TJkzS328Ch+A4bI7YXiwSioQCoYAnKHY2b9Z81YrVL1+8xBahS/ppwJKwZ2Fie3HhSu0SA5rVarUqhbJLh44MGt2ezRWyOaKPolbI5dlRacMGDS7I021vUfaRn58f+t9/3Tt3EXJ5jkJ7TNSK+QIhl8exY7BsbP9YtbpsI+V8Ghb6AhW1q1YYxmA5+4VqQAAIVAQBeYF86m9T8Wb42p5eD0v7wq+ITsEmEKhQAiBqKxRveY1PmjAJh8MRCcTePXu7OLqgQrA8K7UqperA3gMsOxamHUu9EAlE8+fOp1N1wazlOcjWlLJFrYPIoWmjpgwGo03LNvpvnmm12ru3765YtmLu7Hnz5swbM3qMJb4o962+qEW55Obk/vXHX/q7+5bHNwRBzBCz4UOGq5WlbORbXuLlrvcy7JWDyAFBkEULPwv5KLeBL1bMycxsqDHIGAAAIABJREFUHNiQQaOLOLzPRC2Ha0ulDezbL+rdu6TEpJTklIwPH3JycmR5eQqFQq1SaTUalUollUqTkpKuXLw0bPAQF7GDiC9wshfpi1oBm8Ok23i5e1y7eOmLTnzLg2dPnjFsda/9rYGY2m/hBnWBgHESiI6Mbtu6HQ7B9erRKyMtwzidBK+AwDcRAFH7TbgqqvK50+foVHpQQND9u/d969VHtR3BgvDVldroiOguHbugsQdWllYsJovNYrNYun+trT/99N+iaYvjR463adWmvm99Xx9fXx/fenXr1fGu4+lZC4tbsLCw8HT3rFe3Xu3aXn6+/vp7kmHD/rRS6+R64uiJaVOmnTut2x235IGmy3376i2dSkeHU0zUSiXSQwcOuzgVKXhdtl0rAoVCtSZaEwlEghVBt9JsRbCytCISrYuFZ5iZmZV8Va6kDwYpef3yDRp+MHfWXIMYxIy8j4mp5+WtW6nl6FZqxXyBmC+w5/EFHC6TbuPv4ztl0uR5c+YsXvj7+j/+2Ll9x8ljx69fvfbg3r2w0NCH9+8fO3Lk9wULWrdoqUsExuE6FMYeYKJWxBcI2By2rd2gvv3SEgtTH3whcwLmz1cv7t+5b0u3NceZ/7n2z69WhgpAAAgYMwGNRnP21FkHkSPBgrBsybLSX8w15gGAb0CgNAIgakujUull8bHxHdp22LZlm1ardXNxK6eolclkIYtCqGQqWj+wQeCCeQsWLVz0+4LfFy1cFKj38tnUyVOzM3POnz2PBtreu3P/wb0Ht27cOn/2vKV50Uoq04554uiJh/cfXrl09dLFS5kfMkti+CRqnV3zcvMyMzKVBcqS1bCSmKgYzD19UVuQX3Dy2Enfer6o5+i/db3q/jp6TL/e/X7u8XOPbj16dOvRvetP3bt279u7n2/dz2oKecKI8E/ZdrHuKuIiKiK6rnddBEEmjJugVhlybfjJw0dujk4MGl3I5tizdarUnscXcnlCLo/LZPHZHDQnl27zW4HQxcmpTm0v//p+jRsGtW/btnnTpvXq1HFycOCy2XyO7iUzLPYAjam15/G5DKaDQLh902at2jBuX754hUqiEiyJmyH8riI+amATCFQigYK8goXzFhIJ1o4ix0sXDPNjTiW6D10BgdIJgKgtnUsll+bn5Z8+eTozI1Oj1rg6uaIij2hJ/NJKre4Pa6324vmLWGUajb5/7wHMbaVS2bdXX0wynj55Oj31w7w58xYvWrJ65eoL5y4qFToxqlFrsM0ROCzuV3fMwkSt2F4szZFi3aGZFor+/VSqjY6MZn4MjcBErSxPdu3ytQZ+n7bJRf3s1KGTJEeS+SEzNTk1OTE5OTE5JSklPTU9JSl11PBR2FgsLCwmjJug10nFXqYkpbRs3gpBkIH9BsokhtyV99zp0yK+gEnXiVoRh6d7tatQ0aL/6pZsuVweh8PjcDhMFtPWzo5uQ6dSbWh0O7oNw9aWxWDw2BwBj2/P16XxQtdoUUUrKhTHTLpN7596xEZGGQrQ4QOHLfGWdnQ72HzBUEjBDhCoKgKJ7xO7d/0Jh+B6dOuRmpxaVW5Av0DAsARA1BqW549aUylUbs5FK7VliNrlIcvfhb9rFNQIlXpWVlaDBgz+kPpBXiBHPYiJjBEJRehTOp2enpr+4N4DOqUoEiAosBGaDEulUGGilmHLTHifUPYAMFHLZrHPnjp7/979e3fv6Y47Ref9O/fv3/143rt/cN9BW1rRu2KNgxpLsiWyPNnZU2ebN22OiVTswoZmc+n8JY36s5/JNRrNvdv39KMU3F3cnz19VrafBnyam53bq0cvBEE6tOto2K/+Xdu381lstq2dLvaAq0t9UChndSm97Hl8EV9grzuF2CnUvTOn22+Mz+V9fKSrIxLYiwUiR6HIQWAv5guFXL6AzRXzhS2bNLtx+aoBf1Vct2YdDsE5Ozhfv3LdgITBFBAAApVP4N7dB3W96xEJpBXLVxnwW6LyBwI9AgF9AiBq9WlU/bVaqS6PqA0eEzx8yHBUDlrgLQL8A65eunrm1Jkrl67k5uiygK1ftx4Ti927dNdqtVcvXSURSWhhpw6d0G8xRb7C+mPWLYYtI/Jrv+ljolaXycvJRXc6fn6ihXr/YnlwGwc1Tk5IPnn8lH99fyyQF90pF3O1bau2xTaASIxPHNh/IFaBSCROnzK9MudJpVBNDJ6IIEhgg4b6Owz/uA8rly9n2thy7Bj2bK6YyxfzBSKeQMQT2vME9jyBSCdn7UUCEXZi6taeL0QL0RKRQCQWiBwEInuuQMDm8VlcEU/YunnLXVt3yGUFP+4nauH/r6ZNmTwFQRA/X//XLz5tSmco+2AHCACBSiOg0Wj/2bCJxeSKRU7XrpbYubDS/ICOgIChCYCoNTTRH7NXTlE7ctjITu07mZmZIQji4eoRsnjpogWL3Fzc/Ov7H9h7IDo6umnjpqgQtLSw3LZZF6p7+OBhNIMsgiC/jPoFdVMukxMtP+0oFvE2omz39UUtJjTLedE4qPGz/0LbtWmvX5/NYrdo2oJkXaS2rSysZs+cjepyrVabm5O7fOlybPsGHIIL8A+o/NQz69as020F7Oz26EEpac7KJlbG0ymTJtPJFB6TJeLwUFEr5gvFfHt7rlDEE4qKK1p7e/6XT55QxLMXsPkcO5ajUNy+Vdsdm7dlphvydebszGx0xbptq7ZpyeVKoFvG2OEREAACVUggO1syfPgvBAK5efPWaamG/KKowkFB10BAq9WCqDWuj0E5Re3KZStv3rjlU8eHz+OHLAoJWbwUSzLgXdt7xLAR2KKsh6sHupHs+j/WY+ujy0J0Ibm63bzyFdiLXHY2jIS48oYfoMkKrCytSp6WFpb6Jw6HQ1Vs46DG72PjVy5bKRaJUU/YTPa8OfPu3LzTuGFjTOk6iByOHjqqVCjVKvWBvQew1+YQBKFT6GtXrZUXlLLVWYXO4onjJ83NzW1ptgf3HTRYRxrNoP4DqNbWur3EikStTtGK+PZCjkAnbXlCPofP5/IFXIGAKxDyhPonWmjPtxcWVuPYsbkMDo/J9XB2GzF42MmjJ7JKe8/vR5wPfxOOvno4oO8AmdSQscU/4hW0BQJA4JsIaDTalJTUAweO+DdoRCLROnf56V1EpFT69ZTY39QLVAYCVUUARG1VkS+932KiVv/NraGDhmLKb93qdVqt9tzZc8uWLHsf837Lpi0CvgDTrNheBvrvVM2ZOQdrvmXTlg/pH9LS0t7HvLezsUPLbWg2z/57lpqSmpKckpSYlPGhlD/fsZVaIpHYq0evvr37ljz79OqDnV07dcXCG9CYWqVcuXHDv86Ozjwub9qU6ZIciVar/WPtn3RaUbwvgiCNghrfv/vg4b2H3rW9MZ+trKx6dO8ZGxNXOriKLH3+LIzNZP+f6oJ5CwyVAEFRUNCudRuKtbWQxxdyuPZcvoivW50VcgVCDt9Z5Oju7CbkClgMFofJ4XP4Ap6Qx+FzWFwOi8tlcdlMNovB5nP4PA6Pw+QIOPxarh4dWrcPWbj4ddjLioiQu37luoO9Ll/v0sKXFCuSN9gGAkDA8AQ0Gm12du6Ll28XL1nhUz+QyRbQbdkiR9cBg4bv3nvo7dvwnJzcivjqMPxIwCIQ+DIBELVfZlMVT/RFrSXe8tKFS6GFR9jzsB7demAKb3nIctS7ojUzjXb1ytWe7p4WeAusDoIgTg5OWK6WkcNGYo/69x2wbMmyxb8vnjVjFrZSSyKSxo8bv3Dewjkz50ybMu3ffzaVBICJWrG9uDy/QcdGxWIbQzRq2EiSrZOwGpVm57adIYtDkhOT0S5iY+L69e6HNy/asBdBkFYtW/0/QxnmMN4cH9gg8Ob1WyVdqoQSSY6kedMWCIL07d0PHcKPd5qemuZbz4dCItnzBTw2W6hLYiAQCYR8NpfP5rVq2mLm1Bmjho3s1qV7x3YdO7Tr2LxJc586Pq7Obk5iJzSO2dXZrb6PX7Mmzbp26jph7Pgt/2z679F/0sI/En7cveIWNNpN/2yys7EjEomXL1wu/hTugQAQMG4C+fny2NjEvfuO9ug9kMkTk+04fCd3oWstGkdoSbVj2zv27DNgx+79b8MjcnIlms9e1jXugYF3QOBzAiBqP+dR1Xf6olb3Uk59v5bNW7Zs3rJt67YCngATeUsWFd+yVSlXHj54xMXRBVuvNTc3Hz1idFZGlm5HVpWqU/tOWHMcgrPEW1riLSkkClYfQRC8Gd4Sb4mWBPgFlISBiVp7vn158lvFRsdiK8FBAUFYFjCNSlPsJ+w7t+74+fjp61rMW7w53quW96H9hzSqKvuunTJpCg6Hq1+v/ttXb0ti+Y6S8Ddv7AUCGoUq5PE5LJZO1Ap0qQy4TDaXyfl93sK0lLT4uPjXL18/ffL0zq07p0+e2bFtx5qVaxYvXLxk0ZKli5euWblm947dF89ffPrkaUJcvEJWlPjiO5z5ahO5TD5+3HiCJcG7tndcdBUsln/VQ6gABIBAqQTUKm1mZva1a/emz15cL6AZXeBIt3dx8g9q2KVHk559vVq149bxseIIzG0Yjh61+wwZvnPfgddvI7Jzckq1BoVAwMgJgKg1rgkqJmoxYVfsYvHvi0v6nRCX0KZVG0ykigQibFEtIz2jrpduB4HyHz51fEp2oS9q8yRfD8OKi47DXvNq2KAhJmpLWtZqtceOHHMUOZb00F4g2rZle+VsiluqY1qt9uSxk3QK3YZms2fnni/V+abyO7dvU8hkGxpNUChqdcu0QqGAx2fZMZi2jO2F7/YVM6hWqvPz8qW5UqkkTyaV5eflK+Vl7XxRrPmP3L6Ped+0UVMcDjdi2IhK6/RHHIa2QAAIaLXa/Hz5u/D3GzftadOpF1PkbslxYNSuX6tdl8aDhrcZO6HNhMmtxk9qMGSoY+u21NreFnZMHN3OqXadAcNG7Ni9911ERK5E99saHEDAhAiAqDWuySqnqF20cFExv2V5sg3rN7CZbFQUmpubTwieIM0t2h/h1YtXPDaPYEUgkUhUKo1Op9NpRSdaH5XCtrZ2drZ2dBqdQqG0aNqiZHyVvqiNCI9MTEgs40xKTHoR+kLAE6JdBJYparOzc+7dvhcUEKQvanEIDofg/Hz8Ht5/lC/LLzbkyrxNTkwO9A/EIbhfR/2K7lvxg72fOnXKwsLC1saGz+Nx2WyhQGAvFPJ5PDsbG4at3amTp37QvmGbnz11Vsi3p5Fpu3fsNqxlsAYEgEAFEcjOzr127cG4SbMdPerj7ASWAmduo5Z1+w5uHDyp8aQpjX6b1nDq9MBp0wN++81/3Li6Q4byW7aydvew4PItWWynWrX7Dhqye9+BqOgYWX5VfvdWEBwwW10JgKg1rpktJmpphQKUSqGiJ4VCoZApJGtSyKIQfb+lEunpk6c93T2LFCoOV8erTuizUKxOTHTM0CFDB/YfOGrEqOBx4ydPnDxpwqRJEyaNGzMO+8WfSCCOGxM8c/rMSRMmjf117J/r/tSU2F0VE7UMW8b4ceOn/ja1jHP6tBnjxo7DVmoD/ANLXanNzckNDw//959NzZo0s8QX7dmLIAi25Iw3t+jUodOh/Yfehb+TSvS2McOGVykXY0aPMTczr1enXrFMut/X+bZt28zNzRl2dnw+n8vh2AuFOlHL59PpdC6X+/Tp0+8zWxGtFHLFtN+mWRNI9evVj3pnsP3JKsJVsAkEgIBWq83LK4iOidux81CHbv1sRB4WbDG1bgNhh64+o8c1+G16/Wkz6k2bUWf6DK8ZM2vPmOE1Y3rdGdP8pk/znTjBfdBAXps21h7uFkwmQqaK3dxHjB138uy5mLg4WZUuK8C0AoFyEgBRW05QlVRNX9TizfEjh40MHjv+l5G/jB45evTI0aOGjxo+dMSg/oOOHzmOOZSVmXXi2Anfur7YmqtIINqzq8Sv5BptSZEqyZZQyTS0oYAriAgvzFOr0erWaEuLX8VErf56ajmvi4lalUqVkZER/jZ8147dfXv3Zdgy9O2QyWQrSyv9EoYto3/f/vt273v96vWH9A8KRWUn9tq/Zz/TlkmwImwtLTYAm45yXixdutTMzIzJZOpELZcrLDwEAgGNRnN3d09NNaJdKyPeRjRq2MjS3HLM6DEqhaqcA4RqQAAIVD4BhUKVkpJ+7vyNMcHTXbwDrPkuZPd6vJYdvIeNrj9pSr2pOiHrOXOWx6xZbrNmucyc6TJzpuvMmW4zZ3jMnO41Y5rP9Gl1JwS79e/Ha9WK5OFhYccwt2PUqu83dvKU/7F3FuBRXF0f37gTt42ue7ISF9zdCU5wQmxtdDe4lAotxSl1WqjRwtuWtkChLYXiDsGCE0+I6+73zUyyLAmEJEQIzD73Se6O3Ln3P3c3v5w595wf//fL7Tt3S0vJcH4df1fJK7ZAARJqWyBWBxxqDLV2NnYP7z0sKiwqKnhSCvILc7NzDbFaHz169On2T6Miogz85+XhvWzxspJmOLzq9frK8kpb67rEB17uXrdv3W56jG0CtY8LH9+7e+/Yv8c+fP/DiRMmBvoHGjpPoVBMTUz9fPwmTpjUt1df4zhfxDEBfgGjR45+9+33Dvxx4Fr6tZzsnLLSMl2HLNa9evlqz9ieFApl1IjRjwtfahWFTqdLSUk2MTHx9PT08fGhUql+fn6+vr4+Pj6Ojo4REREtRfb2U6C2tnbLpq0uji7eHt47d+xsenqQe0kFSAU6UYGiopKTpy+teXdjzwGj7L3ollSGiyyKMWqCZGGKWAUKAZgHIRwYYSMoC0UZCGJcWAjEgSEujBluJWqlODGBN2mST+8+djy+paeXtTdVFBqepAB27/mZRNtOvMXkpV+oAAm1L5SoQw+orqxmMdgEwFlZWJWXPteZqbSk9PLFy0sXLzV4HVAoFBdnF0Wq8sH9h83sdHlpuSGorYerxwsfLhug1tTE1NPD08Pdo4ni7ubu7ORsANbIsMj0y+lHjxzdvGGzPFneo3sPg2eC4RgHewdxkOSd1e9cT79+9N+j8+bMDwwINDXBEqcZv5y6OYmDJZMnTl65bOWhg4dqKjvCfFhZXrlYu9jK0srHy2fvj3ufaclupuyVlRXjx483Nzen4i8f/OXr6+vt7e3k5DR8+PDG7ejqX413teuWrEdZw4eOsDCz6N93wAuzKLdrT8jGSQVIBZ6nQE2t7v7DzK++/WnizPl+PImNL8uGJfTpOYA/eYY0RSEGEQGMcBCUBaNMBGUgKL1RYSAIE4GZCGa45UFQEARIVUpZYiJ/8mTffn3t+HwLDy9LF3dJaOTCVOV3P+zJuH2nqqqDFqo+b9TkdlKBxgqQUNtYk87cUl5SzqAxCXdSUxPTh/eejae1NbW/7P1l9KjRLs4uBtpzcnSaHT87/Up68wdQWVZpON3V2fVas9Pkujm7LVm0dHHa4kXaRc8raZq0xAWJNtZ1aXijI6I3b9wiDhI72DkYSJq4ugnFxNrKmk6jT58yfe9Pe8tL6lD+wf2HGzdsio6INh6mocMUCsXbw3vjhxs77Jn4P3/9w2VxKRTK5IlTCvMLm69zgyNzcnJiY2O7detGmGm98ZePj4+Xl5ezs/Ps2bMbHI8F961/Nd7Vflt0Ot23u771cPdwdHBctWI1Gfeg/aQmWyYVaJ0COr2+pLTs7OV0aPFyYUSslXeAhR/DLaI7c/T44PkLxUq1CIJ4ONGyUQ0TMUCtho48VRjYLoQoLOx4mI9AwQgkBVTS5ETe5Ek+vXrb0pjm3VzNHV15QdL5SakHDv39KDOrpvZZnmqtGwx5FqnASytAQu1LS9imDZSXlMeNi+se3T02OrZnbM/n+QP8v/vBIu3ibg7d6qDQxMTNzS1+WvylC5da1J2q8ioDI7o4uqRffgEQGyy1Ir6osvzFXq13bt3x9vAmLhEbHfvdru8YDIbhisRqMDs7OwaNMXzo8G1bPyIy+jYYwn9H/1PJVRKxxN3N3cLiSXYJWxvbmdNn5mbnvozRtMG1mn5bUlQyb858C3MLPx+/PT/uqalppYX4+vXrQqHQ1dWVSqV6e3t74S8qlerh4eHk5ARBUONuEEzbeHu7bnn08FHc+DgTikmINOTEsRPtei2ycVIBUoGWKlBRWZVx7/73e3+NmzXX2pNq6uljzRFQ+w0SzZwjTVVIQEgAQbi/gYaFYoWBm2lxS62GjmiNypNdxDEsFGWhCFeDoy0MytRK6cIE7rjx3jE9bOlsc2d3ioNzSPfei1e9c+S/U/cfPCStti29d+Tx7aQACbXtJGzrm02/kk6US+cvNchQYNzondt3J4ydYGlhaWFuwaQzlXJli2y0RFPlJeUGxHRycLp88YrxJRrXu0d3J4738fJpTkaxjBsZfA7fz9fP389/9MjRj/Mfb9uyjfCUtbaydnV15XP5E8dP3Lp525XLTSU1qKyoOnjgTxRC+/TqQ6PRnBydLC0sYyJjTp/o6CgB+3/bz8RN6dOmTHv44Nl29Ma6Ndhy6tSpgIAABwcHt/qXu7u7p6eni4uLo6Pje++91+B4wlLbeGO7bqmoqNi2dZuXh5edtZ0W0TYnLHG79odsnFSAVMCgQG2tLq+g8O9/j6u1iyQxPWx8/K0D6S7hEfQxY8WJSRI1EATBXJxoWTDKQjRMvDAQTX3RMpAGxbALA1wmihUWirJRhINgy8iEoFqmUkoSEtjjJ3j26GXD4pl6+Dj6M6L6DITSlv35978PH2VWVLRjChjD2MkKqUATCpBQ24Q4r8CuJh/snPjvRI/Ynt2ju2/4cEPmw8xWdLesuIwWSCOKgCd8IdTOnDFTwBcI+ILu0d0f3q9LctvEdYsKizas27D2nbXvr31/546dtTW1JUUlcePiuFzu0MFDVQr1rp27bly/2Uyn2PLS8hP/ndi6eWvCvIT+fQds2bilwxwPDGMsKSpJTUq1srTy9fHd+fXOlq7oItr5+++/+Hy+p6cnlUr19PQgWNbBwcHKysrBweGTTz4xXK4TKxcvXBwxbISluSUeJ/i/TuwJeWlSAVIBYwUqKirTr93a+skXw8ZPcqUzzb2oDgIRY/BQ0YzpstSUIADgQyAHhlgwQjjRMjGWbYCwTbyts9oyUQ1e0HpfW5APAcGAWqpQiucnMMfFuUX3sGHyzNyoDtSA6D4DF69864+Dhx88fFRd3cpHWMZjJOukAq1TgITa1un2qpx18MDBQwcPFRe1Mu9LbU3tlk1biLJ928cvJONj/x77cfdPu3/4cd8v+5ppuqupqtHV6HQ1utqaurC3//797ze7vrl04VJxYWu6ravV5+fmnzp5Oic7t1Nuw6kTp6XBUgqFMnLkyCtXXmDbfmYPMzIy3nvvPY0GTUlJmTVr5ujRo/v27RsREcHhcAQCwZ49nZ95oaS45L133vP19qV6Ud9a+VZFWcUzB0JuJBUgFehgBXJz8w8c/DtJCXIkoVbevtY0uld0jCAuLiI5OUytFIMY0bJhCPeORQkDLbPZREs4JNRbcwnbbZ2vLQtBiDVkQgiSQnCYGhDPW8AZO8EjqodtANPUxdPVjx7du79myYojR4/n5OTWkr62HTwzyMvhCpBQS06EVinQpAm5VS12nZN0+nfeesfR0dHZ2XnJkiXlrUq3o9PVVlZW5OXl3bt3Lz09/fTp0/v379+x48tt27bdunWr07X45/A/PWJ72ljZjhk55vo1PHpxp/eJ7ACpwJutQGVlVcbtOx9u3NZn0HBnP5qFl6+TMJg5ZGjonLlRSkU4DIphUABDbBjCY3VhUQ5wPG3CKNtwVz3UGrY/8bUlFpmxYYQDw0IYCYYQKQBFKNWh8xN5Yya4hUfb+NFNnd0dvHx7Dxr2zvvrj588k5WVY7BldNjKhzd7jpCj15NQS04CIwWaj6rNP9Ko+demejvj9qgRo62trNks9v4/9ldXt1lom7KyMl3jJBkdKZxO//Dho4ULFjp3c+Zz+N/s/KYjL05ei1SAVKCxAtVVNZlZ2X8ePpKsAAM4QmtPX1sayysiOihuUlRKagSAJU0QQSAPhjhYWC4Ej9hFBDfAVoO1xPeg8cF1vraE0ZeFxQVDuAjKh1EBhIghJBSEo9VQ2IIk9sixLiERVn40Mzcv90Bm74FDV61579TJszk5eTX1j+kaD43cQirQtgqQUNu2epKtvSkK7Nm9RyaRmVBM+vXpd/bs2VZHQnjV9MrLyV+zao2Pl4+/j3+aJi0/L/9V6yHZH1KBN0gBnb6kqPTcmUtr39/Yd9AIJ59AK6q/hzSMNXSEdObsiFR5KACIQVAAQVw8NxgTS6lAhKF9Et/g5aD2KczF0RZloRo2ouEgGj6sEcEohrYQHCpXBs2eGzh8lEtEjFUAw8zV08WfMWx03PvrNp3473RWVnY1Gdf2DZq4nTZUEmo7TXrywl1ageKi4nfeesfN2c3UxDRhQULGrYwuPRyi88XFJTs+38GisxxsHSaMnXD29LnXYFDkEEgFuqgCuhrdo/uZu7/dM3dOIj8o1NGH7sILCuzdTzR5amhicogKEIOQCIL4dVEOEBYWaJZwOWjRyrCnsLVpAmYi2rpACqiWiWrZiJZD0C2CCmFEDMESpYo/ay5t5Bj3yFhbBs/a08+Hzh08dNTbb7//75H/MrOySV/bLjobu0q3SajtKneK7Ocrp0DGzYzpU6ZbmFv4ePusXLEyLzfvletiSzpUXl6+75ffesb2NKWYRoRG7Nm9p6rixaGIW3IF8lhSAVKB5ipQVlp++dzVlUvfCguN9fChuwRy/MJigsZNDJ2fIJMrxWpACMF8CMYNtIYoB63xo22aYp+3l/C+ZaJpTJxumXgcXA6CChA0GIRlCpV47gLumAme4bE2vjRTRzfvAGb/AUOXr1pz6vS5gpdLM95cBcnj3kgFSKh9I287OejWKaDTN1jucOzosZjIGCtLKzqNvn3b9oKCgtY13OlnVVZUHj1ydNyYcXbFnrj0AAAgAElEQVQ2dj5Un/fXvt/qkBqdPhayA6QCXVqB6qqa+/ce/u/HfTOnzw0IYHdz9fFki1i9BkinxEekKqVqUAhAPAjhwggbC9qFWWfroxwQ/q8tsLw+j1mb2G6UskHLQNPwomWgWoZGy6hHWyGMSkAkRAHI5i1kjRjrJouw8aGZ2Dp286AOGjlm08efnL90KZd0berS0/RV7TwJta/qnSH79QoqQECt8SI5nf6P3/ZHhUdZWVoFBwV/9sln+fldzwm1sqLyxLETs2bM8vbwpgXQ0jSLHtx/8ArKT3aJVOD1VkBXqysoePzf0VNLFq+Kiurt6h3oQePSw2PFI8dFzEmIVAISABJAMAcPQFsfg7bjrLME6RpDLbYKDedauiYNL1q6RsvEPW55sEaERUiAwxXqkHkJ7BFjugWFWHj6UFzcqRzuiLhJ67Zsu3jlakFhoU5n/JX6et9hcnTtrgAJte0uMXmB10cBnV5fixtrjb6EdbX6nV/tCpOFmZmZBQcFf7z945ycnC405PLy8mNHjs2aMYvqRWUEMgAl8MxkxV1oRGRXO0yB6uqa4pLSikrSTaUNJK8or7xxLeOTT3aMGjPRj8F38A505wbxBwwNnTYzMkkeqgbFICzoJOvs8wy3BsBloGl0FONaBga1WhbubstFNAIYDYaREAgNVaj502f5DhjSTRJiHUi38qIG8IXjpk7f8vGn5y9cysvLJ31t22AOkU3oyZBe5CQgFWi+AgTUElxrdFZZSdknH30iEojMTM2EAtGmjZsePXpxujWjBjqtWlpSenD/nxPHT/Ry9wrwC5CnyK9eTu+03pAX7lIKVFfXXLx0dec33/9x4NDV9Os5OXkV5WSW1FbewtzcvIMH/1aoEF5wqJWrt30gyy+yh2jMhMiE5HAlIAWRIBjhwygHy3aL4qvBWhyD9nlg+jLbDVBLVAirLe5om4ZxLYa2GgxtEU0wjMpAJCRVERw/mzVshEdIuJVfoImLuz9XMHbKtI1bPjp77mJRa7MItVJ08rTXUQHSUvs63lVyTO2kgAFqG3FtcVHxxx99IuAKzM3M+Tz+6pWr79+73069aKtmi4qKfvnfL0MGDXV0cAzwC0hNll88f7GB03BbXYts5/VT4N79RxCaJhAGx3bvM3Xa7FVr1v6w++fjJ0/fvJVRUPC4hkwo1bxbXl1dk5Fxe/2GLQOGjPQMZFl5+bsIJMzBw2Wz5obJlVIAEsEID0G5+DN9FloffKBlmW870MsW0dZDLca1RKlDWzz4VzgIR8qVsplzmIOGdhMGW3j5mLl5BnKEo+OmbP/ky8tX0svKyfyFzZs65FHPUoCE2mepQm4jFXimAgaobbRiTK/XV1VUfbL9E6lYamlh6UP10SLa9KvplRWvou2qpqYmMzPzm53f9O3V18bK1tuTqkhVXrt67ZmDJjeSCjRWoKKyaud3uzlBEjMbWysHF1NbJzt3HyZf3L3PoNkJKRu2bD946J9z5y/cvnO38PHjSjJAaWMF9frq6tqs7JzDfx1JVQIMQbCVm7cjk+cX21s8eXpYcmqIGhSBWPRZDoLFhWXhj/WZaPviaeustsb2WkMLTNzXth5wMastHtcWDYIRGYhEgUiMXCWZPtOv3yB7QbCFhw/F0c07kBU3dea3P+xJv37jcVHJszQjt5EKvEABEmpfIBC5m1TgiQKGhWKGypN9WK2yonLnjp2xUbHOTs7uru4zps44dODQq5a/oKSk5MKFC2vWrAkPDXdxcmUz2CqF+ub1m08PhXxHKtCUApcup8dNi7dy83Dl8AMjYzyCQ+yZXGtvfwtXL1NnDy8mVxrVfdjoCQoA2f7plwcO/XPx0uU7d+8VFDYbcA0fMeNKUz3qYvuKS0rPnLv03rqN3fsOcPYJcAxkesnCucNHhs5dEKYCgkGIjyVTQLBkCqgGL3iEATTNQJAMJM2ovKKwy8BifqWxsGLwRkDrHW2RCBAOS1EKpsT79Blozw+2dKeaOLmzRNKZC5J27Prh2o2bhY+LSYt/F5vZnd1dEmo7+w6Q1+9CChjWhz3/D215afm+n/fFT4unelMtzS379e63ZeOW69euV7wCz9R0Ol1mZuaen/bMmjkrwD/Aw82jT88+77/7/t0797rQTSC72ukKFBeXrH77PSqTbePnLxwyLGbWnPD4WfzxcbShw31793MNDXcUiGxpTEtPqgPVjy4M7t5v0PgpM9SI9qNPPv/j4OFzFy7evXe/qKi4qeypxh8xoq5vuEaz03VoXQdqamrvP3j03U8/z5i3kBEkNXendmPz2f2HyKbFRxAGWiz6LJFGAcsNRkNRuoYImIXFz+paUEsk6TXYa7FUZCiWioyHYGgbBKMSSCNTw7JEOX/SDP++gx0FEiuvAFsvf2FI5KwFyZ/v+PbS1etFxaTVtnVz7U08i4TaN/Guk2NusQKGP7HGZxr+1hpv1Ot1tfrzZ88v0ixiMpgWZhYMGiN+WvzPe3/Jzspu6q/40420+bvi4uKLFy6+tfqtqMhoRwdHD3fPuHFxe3bvyc/tejHI2lwcssHmK6Cr1e3ff0gaHm3h7ukdGhY5Z06MQh6mVEjkqZLUFFlyUtCc2aJpU3ljxvj37u0qFjswWfb+NAcff2ffQDpXFBHdY8SosSpI8/FnOw79deTylfRHmVmlpeVPdcDwcTP8G/nU7i78pvBx8cnT57VLV4bG9nLwpdkyOB7hMdzR48PmJ4Yr1VIsYhfCqSNaDR3R0BANDdXQNVossAARPAt5FY2yBq+DJip4mgYNwbVszEUY5WJ0qxHC2mBIK1Mh4ckqybQ59P5DnQUSa09fK1dvvjhs6sx5X3z97c1bGWXkMsQuPPE7rusk1Hac1uSVurAChr+yDcbw/D+62VnZ27duj42OdXF2MaWYyiSyVStW/3f0eF5unq5jn6gVFxffuHHj66+/njxpsp+Pn4O9g4ArUCvUx48dJ3OGNbif5NsXKnDn9v1p8XPMu7nY0lmCUaMjU1OkKoVQpeADSgGgFEGqILVCBijCVfLw5ETZ7JlBk+JYQ4ZQY2KdhEG2/jQrZ3dzB0cbd28/Nj88usfESdPSlqza9e2PZ86ev3nrdk5uXllZ/Tohne51WrZYVV17//7Dr3btHhU3zdmXYeriZUXn+A8YEjRjljQxRaoCggGIDyFsGIs7S0c0hEWWhmhpqLYuWla9mbYJcHy1d2kYCMpENYZSv4wsjQunCSGtFNRGAZqoJKVk0gxGn0HO3CBrD18rF0+OULwgWbF77683M26XvwKPvF74GSEP6EQFSKjtRPHJS3cpBZ5pl30+1GJj0+kP/3k4YV4Ch82xs7N3dHAcNHDQurXrTv53MvNRZnuvIaupqSksLExPT9+1a9eC+Qu4XK6DvQOTzhw/ZvwXn36RnZndpdQnO/tKKFBcVPLu2vXuvoHmnlS/nr3DExLC1OogEOBBai4McGCAjRUVF1IKYFUwrJbBqlBQEaJIkSTMF02fzh0zNrD/AO/IKBdBkF0Aw9LZ3cTGztrFiyWSDRo5YV6S8u33N3z/48+nzpyrA9zXhWAKCoqO/ndm0bI1IbF9Ld38rHwYzrLIgMEjJfMTJQq1UKXmASAXgnGixQy0Bh8DOqLFuBbPcWDY+GqTa9OGZCLnWV3CCDwRGh4tAdayYS0P0gSBWhmgiVQh0QvlsonTmL0HunBFli4e1m5eQll4khLY++tvtzJuF5eUvhKfB7ITr54CJNS+eveE7NGrqUDT/Pr8Pt++dfuLT7+YMC6OQWfY2thSvaiDBg5auWzlvp/33bh+oyC/oKa65vlnt3iPTqcrLi6+d+/eyZMnPv3009mzZ4vFEhdnF28v7549eq5asfrUiVMVBmNYi5snT3hzFaiurtm//1BUz34mTm5u0lDZzFnhSpUYAPgQyIUhNgIxEYiBFZCJACxEzUZUHFjJgxQiWCVB1CGgKlylCE9KDJ07RzZtOn/EaP+efVwloQ5sgXUA04waYOru6xLA4ssiBwwfuyBF9e4HG3/c8+vZcxcyMu7kFxSWV1S29iPYmbesoqLq9p17n37+zcjx06gska0f20kgC+gzRDg5XrIwJVgBCACIA0JsCCYyhDUgWgPIGle6MtRqGVgwsmdkQWMiWhas5UBaPqQNgjShABKthCITUoLjpvj37NONK7Tw8HbwCQjp3itZBe76/sdbt++Ulj3ttdKZ95m89quiAAm1r8qdIPvxGiugq9VfvHBp6+atY0eNZbFYTo5Ozk7OYSFh8+bM27xh8z9//ZNxKyMnOwdbTNbav9vV1dUFBQV37969cOH8rl27EBgZNWokn8d3c3MLDKD16tFLi2r3/7E/NyfvNdaZHFq7KpBx+96chCQ7b18rBpszakykUiUFISERdgpGWAi+VB9BGAjMxAAXQ1smomZhaKviwioBpAqCVBJQFQKowtWqCHlqeFKybO584dTptJFjPPr07xYaaccW2PgzLDx8rT38POnc4LCY4WPikhXgh5u2//Tz72cvXLpz735+wePKqrb8P7CdRNPp9Xl5BQcP/auGF4tCYm08Ax2YQp+YvoJxU0Lnp8hSVEFKgA9AHAhhQwhOtJgVk4BXAltfI5BtYL4l7LVPbWQiWqzAWGHBGh6MiEBECiJhSjAsMUU0aap/r77deCJzL187ql9wWFSyGtm999eMO3fLyYR27TSDu2azJNR2zftG9roLKqCr0V04d+HTTz6dP3e+UCB0cnSysbLx8/Hr3bP3gnkLVq9cvfu73ceOHLt6NT0rK6ukuKSysrK2tvZ5A62urq6srCwqKrp3797Fixf379+/YcMGuVw+duzYoKAgF2cXF2cXLoc3auSot1e/vf/3/TnZXSl57/NGTW7vLAVKy8o2btvuzxeZelM9e/aSLkgIgWAhBPOwhU0oC9Yw6xYwEXY4DG0NVlvccIt5JnBhgA8BAggIAgExCMggKASEZAAgVaqCk5JF8+bzpk5njR7r12eAizTcjsm38aVZulNt3H08A9nBoTEjxk9OAZD3N2z7374D5y5cepiZXVFZ3VmCNH3dqqqa9Os3N27+eODwca4BbBtfpqs4nDVsrHTWgpBkpVQFCdUQD6zDWcJGy8TzKbwZUPsUzjYwPOMKYLOIBaMcGBVCqBRGw9VQeGKKcOJU7+69bTgCipObraevJDw6CUT3/n7g9t371TXP/aps+k6Re18zBUiofc1uKDmcLqDAg3sPvvvmu5SklB6xPeg0ejeHbmamZg52Dhwmp3tM9xlTZyxbsmzL5i07v97522+//f3338ePHz958uSpU6eIn0ePHj186PDevXt37Nix7oN1crl83LhxoaGhXl5e1tbW9vb2VCpVJpHFT4vfsnnrieMnih8XdwFRyC6+2gocPX6y56DBFDd3+2Axb9r0EAAUQQgXQtmwhoVb14iYqfXGRQ0dW+1ksNpinglMBGIhEBuGODDEg7DCry8CCBJCUBAISUEwHATD5UrJnHn8uMnsoSN9oro78cX2fgwrd6qps4dpNzdn70ChOGzk2InQouVffvPDkaPH0q/dyM7Jq6ioehUk1NViBto/D/87NyGVwRdbe/g5MAX0voMl02eHpSilKlAIEDiLMmENVrDMt0RpCvUakN9r+bZ+8mjruZZAWywcBB+ExAAYBkCShCTWhEkusT1t6CyKg7ONj780tmcigPx+6J/7DzOr2tSV61WYTmQfWqoACbUtVYw8nlSgbRQoelx08vjJzRs2z509r2/vvlKx1NfH19Lc0sbSxs3ZzdnR2cPdg8PhhISE9OrVq3///gP6D+jfv//AAQOjo6IlYgmDznBzdbO1trW1sXV2dvGh+ggFwj69+0ydMnXF8hU//bjnTsadVjsztM0IyVZeFwXyCwrViNbB18+CzggcNjxEoRLDKBd7aE4QLZEFYBEdWURH0vCixX1DCddJhIHRLVaYeGEhCAs2LjALSzQAc2CYB8EiBJEgSBiCRgBQpEIZnpAomzFLMGYCrd8gj7CoblyhnS/dysnTzN7FxMHF1ds/LLb3jLkLV7/zwe6ffjl56syNG7dysnNLS8tra1rryvMSd62kuPTK5etbt33WZ/BIWw9fCw8fN3EYd/iY8ISkcBUoVkN8EK53n9W8lmD6MoN6GmrrphAdQZmY1Rbh4k8GgkE4RA2FpSoZ4yd2i4q1ZnFM3TwpTq7S2F6alWsO/H30/sNHZKLdl5jCXf5UEmq7/C0kB9ClFaiurH70MPPM6TP/2/vzgrkLXJ1cXZ1dB/Qd0CO2R5AomM3m0Gg0KtXH28ub6k31ofr4UH0CAwIZdAaPy5NJZN1juo8eOTphfsLSxUu/3fXt8f+OZ9zKKCEzTHbpOfGKdb6iourbH/bwpeGWVD/P7j2C5syVQggfRtkwijtBGhNtQ67FVwURDpTYz3qTpHEFJUi3jndhhIMgPBQVIogQgkQAKFEDoWogXKUOT5GHzF8gnjqDP2ocrc9A79AoJ47I3svPysPHys3bhUrjBYUOGjZ2wULFu++t/+67Pf/+e+ra9ZvZ2bkVHZKqurZWn5mZveenX+fOT+aKw+19aLZMnndML+GkaeEpihAAs0PzsPgGGM0zMVAjobYpy3Q94GKxIIiZw8KmHMKFECGESGFEplKL5i+gjRnr1r2nLYNt4ubpTGN1HzQMXbry598O5OcXvmIfI7I7HaQACbUdJDR5GVKBFyrw4fsfujq7clicX//36+FDh3d/v/vzTz/fuH7jqhWrly9ZvnLZylUrVq1cvnL9B+u3btq644sde/fsPXzo8Lkz5+7evluQV6DrDNPUCwdFHtClFdDp9GfOXho8crylu4+bJJQ3eYpEoRSCWDhVFkxgWRoDM9A2KHWJr5phtzOshSfMuphZjo2ibBSjW8J2K4AgEQRKIEgGgmFqIFyhikhKDZ27QDItXjBmfGDfAe6ycHsmz8aHbudNs/P08wxgB0kj+/QfPntu4jvvfPjjT7+eOnXmzp17hYVFVe2zwqy0rOLM2UvLV70b02uQg3eAlS/dIzSSOWK0ZM68UKVKAsICCMIjdhE4+4y1/80QqikEfP1Or4dazBUBHx02T3CTLeZoy4cQIQhJQFCqUEgTFnImTHSJjrVhcsw8qY5eftG9+v1x4HCX/tyRnW+1AiTUtlo68kRSgTZWYMmipTZWNjGRMU9Cbun0NVU1FWUVZaVlZaVlpcWlJcUl1ZXVNVU1GMJ2wvPVNh4y2dwrrkBObiGSttzO3dcqgMUfM0GaLA8CYS70ZGUY7mzQgGgxJ4SWYNYTU26dNReLz4+yUMyIy4IRNoxgbrgIzIMhPox730KQGAKlABCqVoemysVz5gkmTmENG0Xr1d9dHOrI4NlR6VbO3jbOXt4BHGFw+MCBI1Lk0KbNn/z668EzZ87fvfugrLQ+xcPL3YDaWv3DR1k//e/3MROnu/nSLTz9bZl83179g6bPDFcopSAowr2HOfgo8AARhI2WNNO2gtHrDPwsWMPGvF9gPgQFQZgfdqhKJV6wgD12vEdYpImji6m98+Ztn77cjSXP7qoKkFDbVe8c2e/XTIGqyqr/XyJmZmIWN37iazY0cjhdVIHKyuoffvo1OKKHibMXtXuf8IUpEjzrFYdwpcVMaIQH7UtCbQO+eYbtFqNbBCYK+4kDLiSAwCAIkkBgiFodJleGJ6WEzV0gnjiFPXiEX0wvj+AQBwbP2jPAvJu7STd3zwB2cEj0kGHjVGDalzu+P3r0RHr69czMnJKSstY54D5+XHz67KUVb70f0WughRvV2ifQK6oHe/T4kISkMDUoBiEBBHOx3uKGbdzQiIdoJYm2wR1v2VvciQXzsmXDmLx8CCbQNlqllkycbOYbaNbNdeOWj7voh47s9ksqQELtSwpInk4q0DYKZD7M6tOzj4WpBQzAbdMi2QqpwMspcPnKjUnx8+z9GDZckWhafDgAiUCYg7k2PlkfZux4wEAW1ZcWWWobM00j2y1GhFgoXKIYHHDZcF04BS4E8kGQiJ8QqgZC5ApZQqJk5mxh3GT64BFe0b1cgsPs6FxrT39zRw8bNx9/Br9H70HxsxNXrHrvq6+//+fIiavpNx49yi4uLtU1IzZUZWXV7dt3d3z17YSps6hskY0vw0kkpQ8aFjxzTqhcKQFgIQjzsWBnWCFcNfCoZ8S4Go+347YQj/UJO7pxvSWW9Y7r7TN7RUCt0RzA1pDxITAEBMTTZpjTWKbdXN9Zu/7l5j55dldVgITarnrnyH6/ZgqcPX2Wx+Y52jtu37r9NRsaOZyuqEBJSdlb767zZHAtAlgBg4aHpirEEEysDzOCWkO4A8xkS0T1qv/ZhuhT50+Jr6/CHCvrU1KheFAFGE/3gNlx2Xj8BNwHFwoGQalaHapUS5NSJfMTxfFzOGPiaP2HekV278YLtqXSLN18rDz8XQM47ODwXgNHzJibtGzVu1/t/OHYsVPXr9/KyswuLSl7JuDm5uYdOvwPiC4ShUXbePvb0jneUT0E4yeFJSbLlOpgAOKDWLAznP6x5XQs3P8YC3xW5x7ahso8u6m6RAZ4OgOcC5/8k4CHWqt7i0eoeLILX9VHNNj58P1MnK3f+MSWT0wJFu6gIobA4JmzLNk8im23JUtXdcUPHdnnl1eAhNqX15BsgVSgDRT48YcfnR2d/X38D/x+oA2aI5sgFXgJBXQ6/YFD/4TE9DJx9XSLjJHNSwiFESGM8BANQbR4bFoDxT4breoRpE32GgdMwJCLALL6aLh1wcIIH1ziwTTmhgtDfBAU4JEHJAAkVagwwJ23QDhtJnv0BP9+QzwjejgLZTaBHAtPf3N3H1d/Jk8c3nfA8HkLUleufHfXzh9O/Hf6zu17+XkFVXiWB51Of+PGrfUbtw4YOtKdxjL38nUSSZhDhktnzomQK0NAKIjIRoGH72Vjrp8aPOoZZtjuaKjFgwfjdKvB/g2AkSelPsKaIdSaUcUQhQ01Ytwm7mBnuVIQ2I39h4MXhI1gTgjBc+ZYcfkUK1s1gLzE9O/sU3V6bL2EobRVdwwNGiqtaJk4txUndtQpJNR2lNLkdUgFmlTgvXfeMzM1EwdJzp+90OSB5E5SgXZX4M7dh9NmL7B297ZjcXkTJkYCkBhBeQjKRTA4I7ItMOtMs00QTzvuwh+dEykejA23T+pGj6exCLi48yUWV0sCQDIVGKoAQpMVkjkJwsnTmcPH+PYe4BYe7cAVWfnSTZ28rFy8Xal0gShk0MChyUnKte9+uOfHX04cP3X40JHERAWDG2Th6mUVQPeIjBZNnhKRkhIBgqEoGoRgkc44CAGydUIRctUr1o6CEP9C1FMs1geCqrGfEMICYRYIEYUBQQwIojcq+HaYAcEMCMLVI7j2iVm08X8p9LoIGO0+rsaXxpm77nYTLtciEBTPm2fNE1AsbRITU8l1tG3/NfEyNNz2vXl2iyTUPlsXciupQAcrkJqUSqFQ+vXp/+DOgw6+NHk5UgFjBR4XFb/7wQb3AKaFpw+tT3/sqToEC7EIshoODrWGp9vPQo0O5psGT88bvyVcFLDcZiwsvwPCgxA+hIhAJBiEpVgkfzBUpQ6Vq2SJyYJp8YHDRnpE9XASSLrRedbuPmZ29qbWDm6efgKhbNCgkVFRvRxdqDauVA+xlDZwUNCsmREQGIJAwSgcpNXwUA0b0bBQzM3geaW9FWMiGhaeqoANIRwQ4YIID4S5aoirBNgKJVuh4ChVbLWapVYzVCqGSklXKhhKJVGYKhUT305XKukqFV2lpgMgA4ToIESHYDqE4NZxIt1XB9/l513OYK/F1hFicd/mz7fmCylWtnNmzautaoZztPG8J+uvhQIk1L4Wt5EcRBdXoKqyavTIMRQKZdqUaeUl5V18NGT3u7ACVdU1fxw4FBbT09zFw0MWJpsRH6pSi0CIC2ELnuq8aTvKN/QlEdDYmktH0frcVJiTKweLCYXyIITIYRYE4/H8QUimUMkWJkni5wjGT6L1G+wZFukukniyhc5UWjcXqr2jp52LDz0kOiRuckRSUhgCibWoQANzsIKyNFoG+jz8avftGEbj/rtsCGEDEFup5shVPLlKqFAHKQCZGgoDoGhU03vpsoGrVw99990h7747+O13Bq5ZM+jttweuWTPgrbcGvrVmwFureyxdGqHRSEFIpFJzFUqmXEmXK+lKNU0F0EGYDqP1nrgYuLOexveXvF+tOp3wt8ZWEAbBsDQhwVYYRLG2mzplekUbRW3r+A9zQX7Bo0ePsjKzsjKzKutTh+hqXzaC4+PCx5mPMrOzsrOzsrMys0qKS1o3tLzcvOzsnPy8/Py8/Oys7IrytomO17rOND6LhNrGmpBbSAU6WoFH9x+FSEPMTc0RCCGfmnW0+uT1jBS4fuP2rLkLHdypzkxe0JgJkakKMQDiqbDqiLYjfUNbRTlP8JFY3V/vffskNxWR54yJObyiTBhhoSgbQbFMZggihOFgCLPgSlVqWUqqdEFCSPzsiLipgu793f04Th6B3agMyaBRPbEkYSohCnHSUKYGpmsQBqphoERm1463ZWKOrSxEwwBhlhrkqAB2ioKbmCpVgD00i4euXDPpgw3Jn+9I273nrd/+2Pzvv1+cOv3dxUs/XL783cVLRPnmwsWd587vPHf+i9OnNx359+0/Diz53y+qXd/O2PbRoNVvxyxaKkW1HKWaoVDRlWoGCGGiIRo2msZB04zcUZ4o/5I3riWn10EtG0WDESQkMcleLKHY2I0dM76ooMhoXneZaklRyfZtHy9OW7xs8bJVy1edP3ter9eXlZSdPnn6Wvq12prWm5+/2fnNkkVLV61YtWLZiuVLlh/cf7AVolRVVq1ft2HV8lXvv/v+++++v3L5qhP/nWxFO+13Cgm17act2TKpQHMVOHrkqLent72t/cb1m5p7DnkcqUBbK1BaVv7hpm2+DK61h5bQrjUAACAASURBVA+rd//ohUmhACgEQTYMsyCks/GlxcxUD7V1lFmfm8oYOp/yymXimcy4CMJHEAGCBCGwBIZCFaq+ciBy/DQvttjRi2HvwwoeOra7Qh0MqlkIQNPAgSgUiCJ0jZauqcujRly3JWTW/KE9y78CQpgwyoFQhlzJSVVKAbhn2tIxa95T7tj1wcHDX506s+/6zZM5eTfKK+9U12Tq9fl6faFe/xj/WYj/LNDriZKn12fq9Q9q9Xeqa9JLSo8+fLTz7PkP//pn0c+/zdr+2cDVb4dACF+u5ChUHDXIAWAujLLxVXFYwDI8vIPB76J9ht9YKAJqUTaqCUbQ0OQUx9BQil23IUOG52bntfXnoyPau3XjljhI4mDn4Ojg6Obitm3Ltvzc/C8/+3Lk8JGzZ845duRYdVV16/oxesTobvbdnBydHB0cHR0c09C0VrRTXlLO5/AdHRxdnFxcnFwcHRzfe/u9VrTTfqeQUNt+2pItkwo0V4EvP/vSxsrG29P7p90/Nfcc8jhSgbZW4Njx0/2GjDRzdncVisOnz4xUqYMBgA9BLAhiQoiBVzosNFW7glE98tYFUiAWHhHLy4g8vTwU4aGISK3urobCp87y4MocvFl2PhzR0LHRSkAIAQwEDMCIFg5EUZpGS9Ok0fBsFO0Q1IyAOeM1W3UL/zFvVwBkqkC+GpSC8JDVb6d8uXP9X0d+vXbzYlHxAx1Gq8V6fbleX6nXV+n11Xp9TZOlGj+sBl98X43DbpZen1FVcyIr96sz5xb9tHfq+k19Fy+VKgF+qpKrUHFUIAeEsbVohshlHRi8DJ8hWGQMNqoJQtDQ1FS3qGiKvVOfvgMfPcxqq8+HrkZ35fKVSxcvXbly5drVa9euXbt+7fr1a9ex2tVr6VfTG5Qrl6/czrjdumduN6/fpHpSKfWvxWmLt27aGuAfSKFQzE3NB/QfePjg4dY98e/fu399q9hvFEJbo49O70v1NW5n5dKVrWmn3c4hobbdpCUbJhVotgIrlq4woZgIecLjR483+yTyQFKBtlQgL79QCWudfAIs/ALZw0ZEpcilaoAPABwIZEEwA0bbFTE7vvF6qDXYcZ9CRswnQYNyNKgQhmNANGLmAndBuJ0X286Xxx88JkoFCiCQjkL+GjgARQJRTSCqDUQJqF3UPlBrWBRlCGKFsCGYpVbzATBSu2T02nXQt7t3nDl3MifvgQ4zxJbq9RVGIFtrFCTKsIq9caVWrzeUGvx0goarcJtuRnnl4Tv3tv97DPhq16hVb4erIH6KgiNXslUAGwuwUJdpwmC17ZjbaoDaMIXCq0dPioNzTGyvO3fut9XHo6K0YsqkKXET4qZMnjJj2oz4GfEz42fNjJ8VPyN+xrQZjcvkiZOXLl5WVV7Vig7cybgT4BtgoEZ5ijxxQaKzk7NhS8/uPX/Z+8vjwsctbXz4kOGGRigUypK0JS1tgTiezWQbt/P26rdb1047nUVCbTsJSzZLKtBcBaoqq2bPnEOhUHrE9rx1I6O5p5HHkQq0nQLlFZXf/PATWxZm4ubpGhElmz9fplIJAYADgmwIxs20nRWRtPET57bcYuwqUL8ECsNHFqphazRsDSqA4ShIEzU3yV0UaUfl2fkJWP1HRqggAQQRUOuPogE40eJQa8hG0WadxHv4xE0CC26AoGwI5oIgHwDCtNox69an7f1199UbFwuLc3CjrMEiawyyjSdLY6IlthjOMtCt8ZEVuPn2cl7hrlNnwR27Bi9dKVWquakKtkLFUoFsECYyqBFc22FQy0LQIAQNV6p9+vSj2DuHhEZdv95m36XFj4vNTM2MSe6F9Z6xPVvn1Hsn4w4tgGZof8OHGy9furxg7gJvL2/DxvDQ8K93fP348bOdhu/dvXfx4sUrV66kX02/ln7tWjpmV864lTGw30BDCxQKRZ4sv3H9xrX0a1evXL165WoDY/Mz3964fuPmjZuSYKlxO6AaunH9huH4q1euXr50+eqVq2WlZY2nXAdsIaG2A0QmL0Eq0JQCWY+y+/XuR6FQJo6fWJhX2NSh5D5SgXZQQKfTHz99bsCosTZ+AQ7BYu7EiTKFXASouTjREjmxmMibALWY1RbnMA3zCdQikSAaPS/FSxxr78u39xfS+wwPV4J8CKIjmKXWH9UQUEtD6twPjEH55amuHrURBgyzECzvLheCeWq1GAQHrVmj/O77ry5dPldUSuAs4TbQzHXyxqjaRL3BjCMar8XR9mx23kdHjs3b9nF3dBE3OZWZImcp1ZjJFsJCTHSYvZYIZCZC0AgVEDBgMMXeWRgsu3z5WoOet/ptWXGZtYW1Mcm9sN6re6/WQW3mg0wmjUm0b0Ix+WT7p3q9/k7GHRiEvTy9DNeVSWQH/jjwTA+H9R+sjxsfN3Xy1Php8TNnzJw5Y+acmXOSFib5+z0xAFMolNCQ0Lmz5sZPj58+Zfr0KdNnTJ3xwjJ39tyE+QvpAXRDNygUSogsZM6sOYZzp0+ZPnni5OlTZ1xPv95qwV/mRBJqX0Y98lxSgTZQ4MK5i0GCIBOKiQbW1FTXtEGLZBOkAi1RIDM7P1kFWbt727J59OEjQpKTgtUqHgRyoDqrG7YMqIuE8Xp5iCSgloGgLBRloYgARiJwqKXKejj4Cez9hYE9h4TJMVdjGgwaQa2WhhgvQWsrS23dQigmjHk2cyHMQhwMgpEoOm3L1s0nTvybk3tfry/CPQ2a/u7QPZOAnj9PCMx9/n6suWq9PrNa99ede2/9dmDwytXCVAUrOZWpULMACF9ZWLd6rI1uynMlJaBWCCPhaoA2ZBjFwZnNDz53/lITnW/RrrLiMgszC2OSe2G9R0yP/Jz8Fl2FOLggr5DPFRja37ppK7H93p17EAC7uboRu+g0+jc7v3nmLZ05faYJxcSEYmJKMTU1wYqZqZmluaWhTUPFzNSMOLKZP01NTK0srUxNTA0tEBVTE9MGLZiZmp3spKgIJNS2YtaRp5AKtKUCf/y2n+pFtbWy/eLTL9qyXbItUoFmKFBeUbnzux99OAKKi4dbVEzw3LkStUoAAhwYZsN1q3868lFyewNQ89rHULIOahEkHEBiFqT6hvbu5i+y9xf6xg4ISVHxIdgYamlYPK82h1oiOTDKQhA2BHIBNV+lDEOQIatWg99+/2vG7QydPhcn2krcEbYZd7vtD9HhDg+3q2s/O31m+uZtMjXETJbT5SoWQNhr6/JQNE/252Jr06cTUCuA4HA1wBwxiuLkSmMLTpw801ajraqs7tO7T88ePfv17Teg/4BBgwbxuDwD2JlQTKKjogcPGtK/X3+i9OjRMyUxpSCvoBUdKCooCgsJJxo3oZhs3rDZ0Mj9ew8S5iW4ubpJJdLNGzbnZOUYdhlX5uDObIbudVbl5PFTxr3qsDoJtR0mNXkhUoFnK/Dxto9trWz9qH5//fnXs48gt5IKtI8COp3+3MWroyfPMHFxt+YJ2BPipAqFAAS4MMzCYpGiTASz0RKlabB4vfY+BbVhABKToAiI7NfNX2TnL/CO7CNLVgjgOqgNwFeJGcy09Q4MreQzIxnrbLQsBOXACB8C+fJUqUIx6YMP1h7487/cPAJnS/G1XM30N2ifSYQtLMNMtnr9voy7qu9/il26gpmqZKpA3AlBy0LTmGia0bheXpmGLRhDLWfMOIqrpy+dfeRIWy66PXPqzPH/jp8/d+HyxcvX0q8BSsAAizaWNvt/23/92o2LFy5i5fzF/44dv5aOOT/k5xccO3rs9KnTZ8+cbU65eOHS6ROnjaEWhTUXLlw4f+78hQsXLl+6vPu73QP6Dli+ZPnpk2euX3/28/3UZLmri6u7m7u7m7uHuwdRPD28zM3MDX2mUCh2tnZenl7EXuLgF/4kDjahmBi3Y29v7+3l7eHu4e7m7ubq5ubq5uri6urievjg4Xaab003S0Jt0/qQe0kF2lcBXa1OA2tMKCZikfjKpavtezGydVKBpxUoKCxevmatO51j5hvgP3ioLDlFDII8GGYjCBMn2nZlkVe4cQJqNSwU5SMIBrWJysDoAfYBIls/vmd4T1mSXAjDdBgMwOJ5YaEP2sFSS0At5kTLAyGhUilJTZ3ywQefnTx58XFRgV5fhkfpIpxon76rHf1Oh9uJK/SY2fjo4+Llfx2JXraSoVSzIZRIOdbeN/oJ1AKgIG6SiTvV059x8ODf7SeEPFluADtfqu/zsnP9dejvPr37DBs6bNSIUaNGjBo9cnTTJW7CxElxk709nqwJEweJJ4yfMG7MuAnjJ0yeNHnihEk9Y3uOHjF67OixEABVVTwjwMIP3+0GlAACoSis0SJaLaJNQ9MWpy2h+T9Zf0ahUHr16L1k0ZI0NE0Da9DmFQ3eoIuTi2HseGr3fiuWrtAiWgRCYRCG1BCoAlVy1cVzF9tP/yZaJqG2CXHIXaQC7a5AWUnZpLjJ2FdD73652bntfj3yAqQC9Qro9Pp9fxySxPSiuHs7h0cHz5svAyEhjHDwJ+9vNtRq8QAIWhaq4SNoKIDEJKkCewy2DRDa+PE8QruHJKaKUYSFYGkXiAi1dE0ao43tkThYIwgPggRKVYhKNW39+u+vXMmoqi5+ZXC2fiphvp1Ven2JXv9Ir/85v2j4h5tYCjUHxrKOYZbadnbIJqCWD8FhACiaMs3MO8CVStv7v98M3Wvbiq5W16dXHwPY9ere65m+rXq9/qsvvzIc1pyKCcXE3NS8gSnU+ETCTZY4QCaRPX5W1rSKsor83PzHhUXFj4uJUlJUUlpSOnTwUOOmli1ZXlJcUlJUYjismRWxSGzczuoVq8tLy4sfFz8ueEyUgvyC3Ozc8tLOyfdOQm3bznayNVKBlilw/8796MhoCoUyY9qM6spWpopp2SXJo0kFcAXuP8yKn5dk6eVnwRGw4ibJ1KAIRngIvm4dQRlYeT0jHjTTcMhC66A2BESiU9S0PsOtA3GoDYkNXZgSotFwUJimwdIuYLnEcKhlthnAEd60CBuGBAAgVaknf7Du+6tX7+PgWIFbRjvX5aDBZ4iA2mK9/mp55dqjJ2KWLGerQA6iJaCW1ca4/2z3Az4Eh4Bg0PTpFv50J0//nbt+aNDJtnpbVFBE9fIxgB2gBJ7X8s4dOw2HtajSBNca2gkWBefntsBtd+TwUYZzKRTKyuWrqquqKysqy8vKm1mqKqvKSsvC611+idbWvrP2ecPvlO0k1HaK7ORFSQXqFDh57CSDxvj/9aSLFy0mRSEV6DAFiotLN2z5mMoWWPgzPPsNlKTIgyCMaNmY1wHmSvsGEq1hpRfhF0tALQ9BpSASJQdoA0dZ0oTWflw3SVRoQnKYVsvVIHQNSiTIxcy0uPNoWwCchoG5fyBMGOKCgAwEx7239rNTp+/qsNxglXg+sFeKaPV4l8r1+geV1V+duzR89TsChZoDwGxYw0S1GOh3CNTyIFgGgkHx8VY0loOH76effdVOn6bjR48boNPUxOznvb8870I/fLfbmCNdcGdTZydnJ0enZxYXJxdXF1cTkydOq7Y2tp6enq4uroazHPGXg71DTFRMbpbRw70XzYnBA4cYd2bMyDGff/L5xx99vG3ztmYW7PhtH3NZXON23lnz7vOG3ynbSajtFNnJi5IK1Cnww7c/eHl42VjZfPnFl6QopAIdo0B1de3BP/+J7NXP3NPXNTSKHz9bDMICGOXgSQfeWBttA6jFgUzLRTQSEIlSgoyhY81pQgsftnNQeMi8hWGohqdBGBqUodEaiJaJP21vpiX4OYdh/1QwsLzEIAtQC5TKEWvWbP73aHp5xeO2JtoXUVALJmOVXp9dVbMv/cbczdvEqUqeEmCDCAvuoH+NCPcDHgRLIDB4zhxrBtfWjbp+Q10wrBYMo3mHfrD2AwPVebh55uYYkeXTLfz4w0+GI21tbFUKFaAEFCkKebL8mUWZqlSmKn29n+ShjQyP1KJaSA0Rx6cmy1OSUlKSUubNmbdq+ariwuInF3zR7WyQfMHW2tbFycXZESNsx26OzSlurm6eHp4NooO9s+adJ314BWok1L4CN4HswhuiQOPAjzr9++994Ojg6OHmcfy/tlyr+4YoSg6zdQrcyrg/Z2GqtYePA1fEGjlWkqoUQggX0eDLejoIRJ6DdA2fLLf3YcYgS0fS8FIfmQszvmo5iEYMoZEqiD0qzowuMKUyHEUhktnzQmGEhz6BWsIe+dJQi9JhhAFBDBBkAmqeStldq3379z8uFhcX1keifRG6PGNGEBnCavT6slpdQXlFVlHRvdy8jKysm5lZt7CSeSc391Hh45yS0sLKyvJ63wYinVhzLleLp+T9J+OeYvun0RDEVyg5IMiEYIzOO8SJpQ5qYVgMgeJ5c23ZfCtnz+Ur2iV9a3VV9YSxEwyo2q93v2coXr/JGGpp/rS8nLyCvIK83PwmSnZm9uABgw3tAyowPy+/sKAwNye37qycvLycvMyHmdmZ2U/58r7oVjWAWsMlXrJCpsmtv9vkb1KBN02BRlBbXVmjVgK2VrZ8Lv/Rw0dvmh7keDtFgdLS8o1bP6YJxOZUf/8+A2TzE8UgzINRNqJ98+LRPgkuW0+0T7iWsL9yEG0whEaoIc7YSSZ0vokXzUEoC545OwSCuQhksNQSOMt6KUuthg4jdBii40TLTE0JQ2Bo9+6TefkFrSJaIihBNR4n4VFx8aUHD/dfvLTj8OFNP/+8Ztc3iz77PO3Tz9I++3zRZ5+t2rVr3d692/bv//ro0f3p6ecfPLhXXFyo01XhfgVNz9JaPE5ten7+sl3f9lCDIoWCCwAsCGLAWACNDoNaJoJyYTgYAsXz59vzhBZO7jDaLg5djx48YjPZBhCE1FAT+hhDrYgvauJI412TJ2JLh4nXsiXLjXc1VTdAraHy9NGD+g+qbxX77eXpxWQwaYG0AP+A5pTAgEBaII0WSLOxtjFuZ82qNU9fp5PfkZbaTr4B5OVfcwWMv18aQW1eTt7ECRMtzC0G9h9YUV7xmktBDu/VUODof6d6Dhxq7k51CpYFTZsRqgbxiAcaIm1Yey9Ub2/La0vbr7fUEiy7iI4sqqfbOqcCDqINgtAIAOaMm0yh8SiegfYCadCMmaEQxIHBtoNaLNYBHYZpEMgEAZZSwUtOjt+69VA2FhKlooV+tATOVun1xbX6O4WPj2VkbN+/H/7440nLl/VXK7vLUyKTE0MWJoQkJoQkLQxNToxITYlVKnsCQD8EHr1iRfJH29/9dd9Pl69czMzKKq8wfDEZf5kRc1mHe0TcLire8MuvA2E4OCWFr1axIZAJY2baDvPMxqMpoxwYDoJBScICB77I3NFNDWra4wO3//f91lZ1VGdpYfntru+auEpjqL1189axo8dOnTp96uSpxuX8ufMF+QXx02caqFGDaJto/6ldjW/PU7v1DaB2ctzkj7Z+tGnDpvXr1jenbFi/YdOGTZs2bGIEMgzdo1AoJNQ+LTP5jlTg9VbAGGSN6/io06+kx0TFmlBMUpNTX28ZyNG9Igrk5uXLAcTOy9cigMEaPio0VS6GYGx9GIplWGgpEb4GxxtBLUG0Bq7FjLgMNI2NaINgNByAuROmUOhcileAvUASND0+FIK4cBtaajEzLQOGGSDIVqv4Cnm/JUs+P3v2ER7uoFr/1HPmJuYSgbM1uD/A/eKSI7fubN73+8IPPxyCwBHJSUEJ8/gL5wuSFwrkKSKVXKhWCNUKgUrOV8gFCjk/NZWdkMCcN0+4MDFCqRq9crX68y8//efo8fsPcsuxgKiEG4Px1av1+oelZV8c/mtUWpo0JVmgUrABNROCmAjSMTba+hmI/UvAhmERDEoWJnTjB5k5uCYlq5qrmvGQmqzranVLFi0xIB09kH49/UYTZxhDbbBIrNfrYRDp17ffsKHDhw4ZOmzosAZl/JjxB34/MHfWXMMlGoRWqK56ToScRn9cGvdq8MAnXg0UCuWtlW81PqY5W0KloYbukVDbHMXIY0gFXiMFjL9rjOv4EI/+c5TD4lqaWW5Yv/E1GjM5lFdUgZqa2q+/+Z4RJDH18PaI6i6bnyADIAEWmFaDBxNNYyANyuuPuS2A2rgpFDqH4h3gIJCIps0IgyAeArehpZbwpmUCAFehiIQg6JtvzhUXE4vDXmSDq5tvOjyzVyXOwReycz7787By60fDNNqwlGSpPDVIpeCrFVxQxYHUbEjNhgFWXQFZEMiGIA4IcQCQowI4ShVXruInp0pSFQPSFqVu/2TH0eMXMrOKamtrjKZ2rV6fX1X9vzPnpq5eHZqSLFQq2ICKCQEMuNOgVggB0sSFziKJiZ3TrNkJOuPuGvW81dWiwiJje+fYUWPLSw2G7Ge0agy1MkmIXq8PFgUbE2GDuoWpxZaNW1KTUg3blalKQ7tZj7IO7v/zzOkzGTczsjKzqquNALfRHxfDWYbKkEFPxakFVOC9u/fu3b139+7du3fu3r394nL/3v0H9x/IxDJD90ioNchLVkgF3gwFjL9rjOv46H/8/kc3FzcXJ5dffv71zZCDHGVnKnD5SvrA4aMsPLy7iYK5cZNCVeogzDEUM9PigajSGMgio9K+qU3rbWydzM3PgtonbrV0RMuCNULcUsufNM2EyaNQA+34wYLJU8NhuA2hFntSD8NMEGSrVEK5fNK6dXtu3MjG3VWfBrNGXyL1E4og2nK9Pqe65tiDB6u/+2H04iWxKpVMIQ9SKYUgwAHVOHGCDBiiY+nQYAZClLrscSxYy4I0bLxwIQ0PRHhKgJ+SKk2RD1u8BP5yx2/Xrt8vKyfMxrV6LL7YoWs3FZu3RisVwUoFt45oQToM4WbajoxzXGep5UOANDnRVRxCsXWaNn1O7TPybdXr1arfJ4+fDPQLNCBd3PiJB/44+Mfvf/y277d9+37b9+s+rPyy7+i/R2ura/V6vTHURoRG6PX6IGGQ4fTGFQszi80btyAQYtiVkvTkId5Pu/f06tF71IhRiQsS176z9sG9By0axNDBwwzNUiiU8LAIpVyFFyUWkCFF/sICqkAERBpkJiPdD1p0F8iDSQW6uALGf4OM6/iwNqzbYG1pzaQxz5w608XHSXb/VVcgP79Qs2ipg5ePDZ3JHDZcmpQUDEL8OjMtCbVpuDftE4faetjFoFYAYUnFhFPjzTgCCjXQii3gTJgYAcP8p6MfEKvEWhenloBaFqDmKOSREPTun39er6oqwS2vRmZa4huk0fcIPvWqcQLOrq7+/dp18LPPByBISGqqWKUUgQAXAtkwzIDqWJaOIHQEpSMaojAQItGDlgmnseA0dl3RsmEtB0K5AMSVK/mJSbKUlKlr13505N/0wseluDH4TG4esP3TXiq1WKngASoWZqMliBnBgxx3ZOYOIvsazIMBaWqyuyzcxM558pT46gqMLNvw9eEHH1pbWRvQ0N/XPyw0TCqWBouCg0TBIqEIKwLR+LETSotKG0BtWEi4Xq+fFT87MiIyOio6Oio6NqZ7bExsTHRMdFR0VGQUsf2H73avWLbScIkFcxcY+r9y2UpTE1NTiqmFuUWoLOzShUuGXc2pNIBaE4qJlaVVXbGwsmpGsbGysbdzMKWYGrpHWmqbozx5DKnAa6SA8R8g47oe85JTK9RmJmYxkTGPHpChD16jm/7qDaWqsvrHn37hS8JM3b28omNC5s+XAmoBTJhpMd8DFroI9z0wWGoJP4RONqN2gDW3Hl4J6+xTNlpiFwG1IWo4aMYsS34whRpoTucwR4+LhGABAbX1+QUIqG1VogENtqwKgtgqFS8leeK6dQezsKj6RHSt+tlEfH0YftZvxn/X4ovJcmt1B2/eSty0KVahCFEqggG1AAS5MMyCMQ9XGkywLFpPtPWRy+p8qdOY8CImvIhVVzDAZcFaDqzhgjBPDXBTUvkJC/unLVq17/djOTmnCx4v3/NzrEodlJzMV6uYoJoJYzZa3ADckTZaYoo+gVqZQu4ZHkWxcx49dlJ5SeVTMr3cm4L8glFPJ+UyZjvjerAwuDCvsAHUysQyvV5/8fzF/b/vP3Tw0KGDh/7+6++/Dv91+M/Dhw4eOrD/wIE/Dvx54M+H9x9uWLfB0NqMqTOIXldXV8+aMcuwvVf3XgUtSSem1+sbQK2hqZeskJbal5tW5NmkAl1LAWOQNa7r9VUVVWNHjTWhmEydNPW57v9da7Bkb19VBdKvZkyJn2flTnXgCUWTJ0eoVUEQxEUQTr3vAQ61bxzRNoDmesA1jvNVZ6kNUcPiWXOtg6QUaqAZjU0bPjISBIUowkRRQ9IszC+5NamzCCBDmADAUSgkcvmaAwcydLqnvWkNLPv0l0j9fKvGnQGOPXwEfvZZRHKSKDExCFDzoSdES0c0NBil1VtnjUdaL0IaE8Gg1qik4bZbLRtCORDCAyGeUslemBijTZPv/hHd93vPxYv5KSk8pYINAgzI2KuhE6EWDFEqvSK7U+xcBg4eVVSAmUvb6nXg9wO+1CdpEZpgQalY9rigqAHUSoOlzezJl599aWh8/JjxxFk5WbmxUbGG7fPnzNe10AzdAGo93D2DgzDrsoAnaGbh8/hCgdDC3NLQDdJS28x7Sh5GKvC6KGD07LDBUtysR9mRYZGmJqYIhL4uoyXH8SoqUFBQvPaDLQF8iYUfgzZwSLhcLoNhAQzjRKvBHWoXMdHF9d60b4qNth7mnlijjVHPUCcstTIAls5dYCMJpfgEmgayAoYMiwQAEYqwjKC2VUSrxZ/UoywYZqlUvNSUIStX/PHoUV590IP6+dQU1OpwM+3Vx4+Xff9dbwgSJS0UKhV8COTAMBO30WJEi2gDYU0grDGMy1DBdSBuuuG/micVJpLGQtLYsJYLa7gQzFYDXKUqJG1RxJIlPJWKC6jZIMDCYnhBDNxPt1MttQgPhkJVgHdML4qdS8++Q7Iz8+sFfNnf1ZXV2IM1UzMDz5mbmfv5+gUGBPp4qNWAcwAAIABJREFU+/j4+Lo4uxh2SYKlj/MfN4DaIEEQ0YlS/FVWWta4EIEd/7fnZ0NTgwcMJs46euSYt6c3sd3M1Gzd2nUtHVIDqB0/dsL3336/a+c3X335VTPLji937Px6p7cn1dA9EmpbehfI40kFXlsFTp04zWawbaxsNn5Ihj54be9ypw+stlb/62+Ho3sPtvQKdA2Lls1bEAJCIgTB14dpWPgSMSbme0CUN5doGzCugfmYiIYPITIQliUk2oVEUHxpZgEsvwFDIlVqEYKwUMJ/9AkZN2inGW9xSy0EsRWKYHkq+O23N2tri3BONbLEGaD2GROqRq/Pqqra9uef/VFELE8VqOqIloWlckAwAy2M4kSrDYS19VF4MUeLp4NdGObAk9BmTHQxC13EQhexkf9j7zzgojjePr5UUZDe65W9ztGLgF1jNIkl9h67lIPrtzu7d6Cx5a8xGnsvKaYnxnSjMdHEWKKJJbF3BHtDkL7vu7vHciBVAQWXz3xwbnd2duY3e/i95555HjK0mRAzCgEmRAEVKgERIYgQoAKqVEAteceWDeZl4X4AMAkAsXo0sMfLkKN7fOdely40bitVDeJWHDr6z1GJUGIJcx6uHhiKLV+yfMH/3l644J2xo8ba25lNmFHhUQ8es9TSUHv+/PnVK1avXrF6zco11crqlas/+uCjWzdu/bFnL3Ojrp27lZWSD8KihYsZpHbt6Lpz+86KoTX034H9BzLdQhA0d/bchl5ZtZ1cKrfsZ+H8hVXPP+NXbPKFZ7wA7O1fWAU+/+Rzb09vXy/f779lQx+8sE9Bs0/88tUbE1PUjv48J0mEbNT4TnokHJBEK8JoG20mRbR03AOWaCvZlIFaAWaUoFgkAqIVGR07dbYK4tlyhP69+3bSaEPJFAN0MtjKCxtAsZaN6U1amBBBREplFwx8dOzYPSoHmEXQg7qIlqBC0v5y7tyw2W+Gpytkep3EwkZbgbOkjZYDTFzA7IcjybXik0xlpWK3HHUWn8HHZ8BkyaLchU0CMpixUYDhAgwjTcsACDBzoXSgcbaFsohV1Zn6YAAwCQriDCCoz2uQk4csstPJk+eb5A1W+KhQma6stkGKE8w5sO9gWUlZcVFJcVHJJx994uzkQtNedER0bVC75YOPvDy9vDy9vD29qxUvT69QSeiBPw8cO3KcocboyJiSIjJ01yALd97IiKic7JxqUysqLLp75+7dO3fzHjx8vNy/d3/ga1Wg9s0Zs/If5uc9ePjgwYO8B3mPX/L4kYL8R3kP8qKqhvR6a85bhY8K8x48fJhHFrrDB/ce3L93//69+wX5j6qNs7lfslDb3Aqz/bMK1KzA2/9728HOQS6V/3u0cZtYa+6OPcoq8JgC9/MKlq59z18UYRMAB/V+NT5DE41gMsASrSVW1lMXAKMExSMMICpD5dy5m3Uw344j9O3xUrxKI6eglk/aJuvppJYGJIpRmbeA0KCXZWSMfGfh4fv3C6k0XZaOS1TuhaoHKta6lCDOPniQ9clH4SnTZRolHeiAzn1A+9EyNloaah8HWfoIjbNcLIsufDyLT0Et9TsLptyFYdzEJ7kWhzGsxlIRyesZ+dSSUIvFIljwKwMhFy+uNPLosZMVOj3Vvzt+2uHj5cOAJl3hhnCPW/zp/m7bdx0dO9KnYiJjKqB2K3NVZHgkQRDrVq9jjjxecXNx2/PrngvnLjKnpCJpSVHJrZu3gvyDmINatbaaMxtBEIcOHnpzxpszMmfMnTPPssybM2/enLfmzppLW1itICu6n5dfennh/IVvzX1rzuw5c2fPpZrNq/v3O28vmv/WfE5wZVAzCIL6vtx30cJFc+fMmzeXLHPnzJsze87sN2fPmjlr9szZn3/6eQvvGGGh9qmedfZiVoEnVKCcSE9Nt7Gy6den3y1yozP7wyrQxAoUl5b/uOuPmJ79IHd/16gE2ZgJkRq9HMXF1W20zNfQT0ZmbfwqAelLiocjIEatde/WyyoYtg2Bvbv2jMtQhVGmyqeGWtLqKdZpI1Uq0+efX6eI1iKqfj1Pxf2y8i8P/fVKplGiSJUgekFF4gMqXJeJU+F4wCXNtGSp6nLALD3pjcC1KKRzAm5ZTHzcyMfJKGAW5EobZWv83ZLxvEj7MYzhAoBLUDwGwUL6D4Hc/YJE8r8OHa1HvgacLi0pnTBuAgOUTIUTzDl25DjTwTdbv3Hq4ESfZaD2048/Zdp3TuxCEMT6NevpIzbWNlwOl8vhhgRzPD086YPuru57fttz89pNZjMWJ4hT/Kj4+2++t7W2pds4d3T+Zccu5r5MZc2qtYx/AnNTCIKsICsryMrOxu7xs/a29tZW5vhcdLO6f9vZ2rWzb8dgMXMXphPmCF2xgqwG9h9IRzdjxtncFRZqm1thtn9WgRoUKHhY0PelvnY2dmnJacXUt0s1NGIPsQo8hQKnL14dm5xh5xNsxxHyBwyJSs0I06NSYBRhZFTaCq+DNo6ktZhIGzJrszMGCbUAD0NAnNbg1etlKIhvHcTzSuoWl64MxzABBvgAb/Bdqjl4UF+aY5gQRSUadWeDYdOBA/kEQSekbeDKn8vLw97bHKVUSLRqEUBgMp8CHYOWjOFQAbVGLiALD9TGmuaYtVxyS1lFoS6hXXJ5lHsu/ZtPpsC1LLVBbW33aoj4jWtDQ60Q4GKARyM47/URkHdQoDD0z32HGyhjHc2Ki0qmT5leDdcgCGoI1K6rQFgIgvq/OsASat2c3ZYuXrrs3WVLFi15Y9wbdP8ebp5/7PmjML/Q092LPuLj5ZNzJUeRomAG0L1rj/v3yF1o1X7WrlrLtHl+Kq/2e/Xh/YfVhtqsL1mobVZ52c5ZBWpW4MypMyJY5GDffv5bC2puwR5lFXgKBR48LFi0er2XSGYdyPHq0iN8SnKUzhCKYrSZltqnXw2wGocRDca4VtptpQmTjtUqR7B4Perz8qtQIN8qgOuZ0KVTujICw4TkF/ENpLfKPivUq4RasVLZf9asnZcvF1VPuFDXQ1BOEL+cPTNk1kyZUiFGDQIM5ZOJFSpDHNAsyxCtBdRSvrwAhwHOBzi5nwzFOFQJQbGKAoIRNARBQhCEgxiYwkURplQEpmWSk5GJyrgoXTAeifsNJ/4nf1RoT18aaqMQXDh8HOTP84Wlv+7+sy75Gnxu145dLs6kv6xzR2cm+UIdUBsbFUu7Hyz43wKGL8ePGW8JtQG+AY8KHhU9Kip6VPTRhx/RzTzdvfb+/idRTgj5QvqIq7PrxnUbOSHmb/ytrW0Wvb2oxoGvX7OetqGSCRosihVkZW1l3a5dO4d27ZnBMBU7Wzu6Tttora1tbKxtbG1sra1trK2sqxlurS2CP9BXWVvbdGjfoZ19O2trG/pGtG2Y6X/AawPu3SFD9rbYDwu1LSY1eyNWgUoFfvn5F1dnNzcXtw/f+7DyKFtjFWgKBcrKid/+PNjp5Vch38AO4VGSMeOjNfpwgEmp/WECnKQHeiNUBV09OU+0xR5o+jSHg4DJDFumUASPQ4D/qwOgINg6gOcR3zlBoYwEmAjHGwa1VfqkfAAqgnlhmBBBxenpE5csOXr/QTFBlFIutBYPArNRjKmYTxYSxOpfdiSqlRKNUkiZaaslVmC2u/GqeP1SvrwAg1GMjwKuHuHqDRy9nqPXh1QtwTpdiE4botNydBq6hOg0IXotU7h6Hc+g5yMGpvAMBo5Oz9HpyW4RlPLNMFJhy5rxGWOgVgTwSBSXjJkEBQs9OMLvt9fwNb2FsA2tFuQ/ern3y3a2dr17vhQSFEITWzWo3fbVNsb9gIFa1IAyeKdIURAEsabCnurr5cvcfttX2+hmZqgliJjIGPpIB4cOvXv0ZjoJ9A86c+oMc6FlZdeOXSOGjhg6dNio4aNGjxw9euSYMaPGjBszbszIMRPGT5g8cXJCXIKdjRlh6Q7lMvnY0WNHjRg1csTIsaPHThg3YfLEKdOnTE+dnjpt8rRJEyZNHD9x/JjxY0eNpcuYUWNlslBmMBAEdXR07v9K/+lTpk+aMHn8mPGjR44ZOWLk6BGjR44YOWLYiOHDhi/43wKzpbZmn3DLGTRNnYXaptGR7YVVoFEKbFy/0cbaNiQwZMdPOxp1IduYVaBeBXJv3slATQ7+wTawOKT/oFiVNoJMf4WLcaMQJ8N4sVBbO4tb0ifJtTTUylA8DsWCBg4modaf7xabGJ+aHk3FkWgA1FbvszrUGgyyjAxky5ZLJaUlBGERyYteaoZlmYr5EcgtKtJvWh+uSBbrVAIM4WOgbqiFMdr91EjGr0WBCGAyo0moNwi0WqFGI9RoBI8VoUZdUVRCjUqgUQm0KpgqZF2jEuu0Ep1WqtfRRaLTCTVaoVYrNiAiFAhQjIcCymTbQlAbgeKh46daccUd/bmfffVtvW+WBjZYvWJ1ZHjkymUrmb3/dUFttNlSmzwthUFADMEIgli1YhV9xMfTh7n141Dbo2sPupm9jb2nm9njFoKgsaPHMldVq+Q/zL9y6cqli5ezL2dfzc7JuZpzLefa9Ws3ruVcu33z9q4du17u/bK9Rd6EkOCQjes2Xr54Ofdqbs7VnBvXb9y6fuvAvgN79+z9a/9fe/fs3bd3/43cG7du3Lp+7cb1a9evX7ueczVn04bNQYGVW9Y6OnVUpav+OfzPvTv3bt24lXOVvG/u1dyr2TnZl7OvXL5y4/qNxiaJqDavxr5kobaxirHtWQWeVoHysnIcxSEIiomMOfp3E2xleNoBsde3IQWKS0q3fL6VGxkHefu5J3WNSUuPQUAohomMuJDMFGAk97BXsduxLxkFHqdPEmoFwCRF8VgU4wweDgUJrP14rtEJcSmKGAwXk/GtjHBdetbQZxWoBZhIrw9TKhf+tP1mDWZaKqE2udfdspif18O5uSPmzZIqksV6TTWopZe4mj3evKGKTMkLYAMSP2fusE2bhq1ZO3zlqmHLlg9bumzY0qXDli4dsWzpiGXLhi9bNnz5shErlleUZSNWLBu+YukwqpCV5UuHkS3JMnLZslErlo9esWL0ipUjV6wasXLVqHUbBqxcHTXjTa7ewEOfPpovs0Y1VCwttREoFj5xug1faucZsOG9j5vqnX3+7PlN6zcd/edYZFgkjZucYI5l9ANLS21cTBztfjB44GAGav83738EQaxYuqIhUDtsyDC6mTVE+hLQdVcX14+3NHpG+fn5B/48MG3ytA4OHRjfAF8f35lZM+/dreIYkJudmzI9deiQoSNHjBw6ZOjENyadPlndKlzwsCDLlOXr48vMixPCxVH8yD9HWjjKQW0ry0Jtbcqwx1kFmkuBwoLCkcNHklsHXumfc6V6uMHmuivb74uhwLETZ/oNGWHjG9QhNFw8emys3iBHgRijE7rSPo4N9AGtgR7aOg3T8Xor47aSllqMgVqcN2y0dYjINkDgGtkpfroiFsOlFXmGa+faWqG2YnsTJtHro9Tqjfv23accaqnnlPmy1pJl6br5OS4hiK//Ptxdr5ZkpIoQHYyhPNKh1rxLrDaoJaPMAkyAokK9YejadZsuXPj60qVvz1/87tz578+e++Hs2R/Onv3x3Lmfzp374dy578+d+/78ebp8d/4cXb49f+7bijrZ4OzZH8+QZfu5cz+fP7/j/MXt5y/+cOHi95ez15w4PWDZSp5Gx0ea11jLRD8QAjJORcTkZDuh3MrVZ8mKdU34pi/If5R9KVsqltE8Vz/UlhOd4hIY+Fu7ei1BEEvfXUYfsbTUfrP1G/og436g0+iYC5lKr+69Ll+43KgZ3bt7b9tX2wYNeL2jkzncGARBHu4eGqXm8qXqXR3751hwQDBzOxcnl59//Pnx22VfztaotN5e3kxLTw/PkcNG/vTDTw8ekMmBn+0PC7XPVn/27i+iArnZufEx8RAEJU9LefigKbOTv4hqsnO2UOD27bvYjDlOvkHteSJ+/4GxSlUEgkoAEJLb1XFqF1EV6GnrkNpYLq8OtVSGgkwYmMhYUSguGDneliuzDxK7hMfHTU2NA7gMN4qorGwCPLN2MR/nWrIxjWIigIk1mkSDfuuJ/x5SoQ+o9awNas2LXU7lXFjx4w/RimSJOl2E6hnfg9qHYU6dIASYwGAQa7XTPvjwb4K4ThB3COI+QeRRuXkfVvy+TxD3COIuQdymyi2CoMtNgrhJHblLNbhf0Z65/EHFVfuLyias3wSrNDBKbhqr6tfb2KWpqz1jgRYCXK5HI6amOkgjIGfvt95eavHmaIJq9qVsiUhKw1y9UJufV8AJ5tKN7Wztvt1G+kIsWbSEPmIJtd9V5MVloHbThs0MMtKVDg4dFry1oLTYIilHfRPKvnJ15fJVSYlJDvYOTG/ubu4p01JOnzr9+NWnT5wWwuYNahAEubm4/brz18ebEQRx+tRpnVrHRCKDIMjOxi6xU+KyJcvOnjlb4yUtdpCF2haTmr0Rq4BZgf179wf6BUIQNG/OvEb9kWIVZBWoQ4GiopLPvtzGk0XY+wQEd+0ZOz051oCEAiAirYlGGCf361Sz5NUBQC/kKZo+K3/TSWVhzCQBeAwwisZMtOPL7YMkzvK42MkpFVCbSecmqFMxS66l62bEFAMgVql74PiOSxcL6rfUmte/nALHWR9/FJ42XaJTCVEDBbVk3IM6hlHxNT0m0OslKlXae++fppC0iHJ7KLNwcSij8LqIytZbQGU4o3/nUzCdTxCPqHi69La2MsoPuIwafAl1/BHV7FgJMWnNejhdKUDNzr51jO3pTlFb3zCcglokarrCSR4DuXjPnNPEsWUaDrV59/IuXbjM5BjzdPP85/ARgiDeXfQuzZdeHl4Xzl/IvpKdfSWbQVgGag8dPMxgKF2Jjog+QvVQx18A5lTeg7z9+/YbdAgnxEzVdCcO7Rx6de/13bbvLl64eOrkqdOnTp89ffb0qdOnT50+c/rMrh27LFMBu3R0/fD9LfTZUydPmdufOXvu7LkL5y/s/nXP0MFDLQ3AEAT5ePtMnTT15+0/X79+gxlMC1dYqG1hwdnbsQoQn3z0SccOHW1tbD98nw19wD4PTabA8f9ODxn9hpWLh2dYVMSosfFqTQSKSjCM3hwG4yay1Ak9TwcWdeFUK+25wifVKAZYDGaSTZhqxw+zCxQ7SqOjJ0yLA5T7AWaiobZuoKya9YDUikZMCQBStaa30bjz0sX8KlD7uOMBY74lHWxvEIR+/brQ1GkSg1rQGKgVAUyo10nT09M3bDxPMehj8RbI/i0htYhqZvmbwdnKMVmgbRFFvafKiCmr1wkU6QIU5QLAxZsv01gl1IYZ0JiUDOfwOMjVxzhjbpO9u6iOGgi18bHxDx883L93v01FxgSJUJKbnUtaahebLbWOHRyTpyUr01UZ6cp+fV+hodPT3fOP3X8QBJGbncvkJ4Mg6P/jiM3InFH0qKje6eQ/zD/x34n1azf06/tKh/akEy3zExIcwufwEzslTpk0JWV6yoTxEyZOmDh54uSJEyZOeGPCpAmThg8d7uVhjo9LG1/79O5Dn50wfoK5/aTJU6dMTZ6WTPYwbsKwIcOCgyo9FiAIsrayjouNmzVj1u7fdl+8cPFRAZsmt95FYxuwCrRqBcqJhQveaWfn4O7qXtuXO616fuzgn4kCd+/ee+vtd/0FUnv/EEG//okKZYwBlQFMhJHhDqjSEINiGwTTp+FpCmpJYBIDLBbPDJ+aZi+IsA0QtxdFRo6bHE9BrQij9t7hmfVBLZPNyyyyGWpREmp7YfjPF843HGpJ7iGItGVLJNMni/WqRkItEOl1UoUife36S+UEHW/Bkk3pB7icMt+WVthfS6pWSi2iNFSjb/qSIoI4RxDT16yH0xTNDbVm72QMF1E+tfEKNQm1Lj4IPrNp34yWUMsN4VlmOP9u23dOHcx+qwlxCYX5hVve38IAZa8evR89JPFu6btLmYNMFFjmiLur++5duwmCOLjvoIdF0IPY6Nh/j1dmU39w/wH5scPip7ys/Pq1638d/GvThk0T35gI82CmTxo0eVze/LcWjBhG7uWo7YfZkVZbg2rHBTzBH3v+mDd7nkQsqXatm6tb927dVemqrV9svcvGqbVYKbbKKtDWFCgqKNKqdTbWtmKB+NR/p9ra9Nj5PAsFSsvKv/1+e2LPPu39Q3zjEjtNS03Qo+FkqgVcSBFtA74fZ3G2BgWqQW1UckZ7cbRdgLi9IDxi9MROKEZ+bKADSuBk6N9GAXQ1qN1+/lyjoPYqQUxZ/I54+mTGUltvOFj6jiIAKEutImPtusvlj4fFNT/BtLG2rAJtSx+rWLorWHItfUkxQZwniJS1GwRpChhBmtVSa/ZOxo1izBiB4olKnUtEPOTsrdKRUbSa8KcK1AZzD/91uKy0rKy0rKSo5OuvvnZ3caexLzE+saig6M2sNxkKnDxxSnkZyaGMTy1zyrLi2tH1152/Psx7mDw1mbHyQhCk1+otZ/HFZ1+cPVXFdbW0uHTrl1sHDxwM8wXt7NtZ9ung0D4mKmbxwsV3bt/NMs2wPPWUdR9Pn7u37966cWvj+o1dO3dz7OBYrUNHB8f01PTLF69YDr6566z7QXMrzPbPKlBFgZvXbo4aMQqCoF7de928drPKOfYFq8ATKXD5Su7oCVMc/YJcZOFhI8d2NqBRKCYFuJAy01L5wxrHW42CszbcmIFaEcBi8MyYVJWjNNYuQOTAl4eNGJ8AcCkAZP4F3MgnobZxYSUsobYnhv107mwjobZ80uKFouTJ4gr3g4ZALUw6ntJQm5axdu2VMnNY3KqGP/NTaImq1eq0H221g8xL2nXhQjmRtm6jIC2NbzA0N9QKqMQiNNR2VundohOgjp7T09RP9H6q9SJLqHV3dcdQbM3KNatXrF65bGVaSpqzkzNNdV2TuuY/yH9jrDn5rRVk9dact+hOFy9cTLdxaOeQmJDYrWu3rp27dk7q3KVzl4ROCX169dn9656PP/zY3dXMx3RjvaYSagvyC3p175UyLWX/vv15D/LobstKyn7+8efw0PBqWOnm5j5owOtffPoFndZr4YJ3fHx8/X39Hy9BQcE+3j60wZXJTObvH8AJ4fj7B1Qvvv4+3j4CvjAnm4zeU1hQuHPHL9OmTGMyU9DDiAyP+m7bd/l5+dXsyrXq2xQnWKhtChXZPlgFGqzA6ROne3QjA2tPnTS1IT5SDe6YbfiCKlBQULhs9XqvEJ5tQDDnldfileooFMgAJsSoqLSNJK02TKhPMDVLqI3CTXEZ2o7yTrb+wna8UNnQMQkAk2FAiON8o5FvJDfh1YuVlmOwhNoeADQKasupqAWpq1cIkyeLGuN+QEOtgHQ/SFOuXZtdRvKGuZSbfxryRqq8irm8aqWUIC6WE4r1G+HUVApqMS65VbFZPlyZLdAYaamNBMYuaoNnXBLk5D5u4rSmxSlLqKXyaXXs6EgWZydnF2cXmgVpg8XlC5eTOiXRbOfU3umrL7bSqr6z4B36oK+3747tO3b/tvvXXb/u3PHLrp27tv/08687f/30o08jw6OqsWmv7r2YRcm+lO3s6Ny+XftX+r7yyZZPmONlJWXvbXqPyzHvDOvQvkN4WLheaziw/2BZiTmhx/59+xe+/c7idxY/XpYvW27ETJ7upE+tNURGxnV2csYBvmrlqncXv1utLH5n8dsL3l6+dPn9e/eZAVy+dHnZu8t69ezl40XCcUhwyIfvb2FuzTRr7goLtc2tMNs/q0AVBf78/U+5VG5jbTN/3vwqJ9gXrAKNV6CcIP7cfyihZx/I2d09Jj5sytQog0FKxvDCYZKxGodZzcQcrbdbBmqFAIvAjfEqvWtkkq2/0I4jlQ4elYjhoaASavlUfAmKaxuUGNYMtQCTqrXdAfbjubNVox88zo2Vz0c5FVQL+/QjGmphc0iveqIfUGPDBRioBrUEQZRVEG15eY1G28pbW9YeHyJzpIyC2vQNm+AUGmpxbrN9vqKVFAKchtquGsQnoRvk5D54+OjSkkZMx3JqNdarQW019GRe9uja48vPvwrwDaCP8Dj8Y/8cozt8e/7b9EE/H7/Skurxuf49+u/Q14fSTMn0BkGQn4//7Vu36R5Onzhtb2NPn31j7BuW4ywuKn5rzltBAUFCWDhu9LjPPvn8xvVGfBl46sRpESxi7uvn7Xdw/0HL/qvXH5O2tLh07x9/zjDN6NWj18zMmQ8fPKx+SfO/ZqG2+TVm78AqYKHAl599GeAb4Ozo/NXnX1kcZqusAk+iwNXc60otaO/t3y6EJxg8JFKjkaGIEACKaI2N/UK89dJnc46cNMEKABaGGztpUY/Ybjb+ItsQiXjQiCSAy8ngEmZLLWmvNX+QaNDHCRrFxACTaHRdAPbtmTN1Qm2Vx6OcIB4QxILtP0hSpwq1GXxEVxGntm5TKDlCC6hdd6XUzLBl5QSDtVXuVN8LhmKrVWioVW58D05V8A0IB8U4AG+mZaoOtVokoEsvyMm972uDCgrqjxhQ3xQrzzcQahPiEzMUSiYnba8eve/eNufuWr50uYe7h5urG5/Dz68apPzkiZOp01OZoAcO7RyYuo217faKPAh/7f+LMQmnpaRVDo6qXcu5Nm/2vDUr15z470Rj89Oe/PckzK3cYebl7rX/z/3V+m/Iy3t37v2++/fLl1rUlZYZGAu1jBRshVWgJRR4d9ESpw4dOUGchgcdbIlhsfdohQrkFzxavWEzLzTSxssvoHvP6OSUcINBDFABlWqBR0alrRtx2LMNUYCCWgyTY3gigvsmvmQbILYLkYgGDOsM8DAcE+IY31jBtY2EWpjcsI+JtboEBP3yPzL5Qon5OayGiNVtYuVUHNn3Dx2MVqcLlGmwQcsDKBdg9a24BdSmK1TrN1wqNW8UK39SqK0xjS+9yexSOaHa9L4wLZ2vR5sbamHqg4cIwyMB3k2HhvTsA3V079qr7/2q4PiU73JLqG1uYgsQAAAgAElEQVRn3y42JrZzUueETgmWJSkxaezocd27dGdMnnqtgeHLA/sPzp45e4Zpxvx58wvyK8NdnTxxMi05zduzMk1XUkJSn159mE4wBKO3mn31xVbm4Ow35zw+o9u3blv2/HiD2o6cOXlGLBAznXt5eO3/80BtjZ/b4yzUPrdLww6sDSpQVlKmVmpsrG0T4hJoz/02OEl2Si2iQHk5sXf/X91fftXWw8dFKo8c90a8VidHEBEANNQ2yr+zmUxobaJbEmphDAvF8M7AFNC1n32QxD5EKnh1cBKKhRsxIQ4oqKW49smgVqeP1mg37t9/r8FQS6Pk7qtX+840wYpkvk7DBygPYPUJbgG1yoyMjZvOlxPF1E3pEF3V2bnBT3I1BqeHd6mcUG96X6TIaBmohSmreQSGddEZOL37Qi4esZ2737pb6fTZ4NnU2tASagN8Az5878Nfdv6y/aftlmXH9h3Ll67w8/aj6dChncM3W7+x7LGosKiwoLAgv4A+WFZSdvTI0ckTJru5ujFA6e/nv+WDLWtWrvn/CLX0wcROifSurPlvLaCPWFtZv7/5A8ueLesXzl048s+RY0eP/Xvs34aUUydPb/9xu6X7gZuz25YPPjp96vS/9f4c//f4sePHjx0/euTosaPHsq9kW46khess1Law4OztXmgF8u7lDRk0BIKgEUNHNO0Ohhda1hdy8rnXbmoNmLNPYIdgnqRf/y7pqji9IRRFhQBjvWnrY7uGGGiZNhVQi+NJmCmox6vtgqX2wRJ+34FJCBZOWmoB31hhrG0M1NIerkKASQyIPD1j3rZvblABtqjH+XFKrPKU0/R5rrBw0oqlgpRpfLUSRhE+CbV1b8aioZZMkyvVaFI2v3+yIjtujRnCqsXzoiPaVhmHxQt6xBYHiMsk1G4WKWj3A9B87ge0khTUYmEYlqTVc/q8Arl6hccmXL95x3JIT1m3hFqYB/93/MTjHRYWFum1BsZDICw0LPfqtceb0Uce5j3cvWv3+LHjLeNw+fv6Zxmz8vPy/zv+n1hoNp26OLuuXbU2+0r28KHDaah1cXL5ncrU8HjnpSWlmXjmsCHDRgwbMWrEqIaUN8ZPGNB/gCVY29rY9ujeY8L4CaNHja67jBo5auSIkSNHjBw+bPiIYSNWLF3R8vvDGBFYqGWkYCusAs2uwJWLVzrFdrKCrPRaQ7PfjL1Bm1bgu++3i2UR1u2d/cNje01L7aFDYvWIDAUCgMMk2dQNNwyxsZV6FTBDrQzHk/DMkN797YOl7YLEvN6vJRnQCBwTkUT7dFCLoNK0dOW69ReKis3b1MmPvEyp4TmmofY+Qbz59VeytGReeiqMGPgANGBroFGA4TACxDr9mHUbvs29vvfa9YO51//OuXY0J/dYTs7xnJx/zeXqsZyrRyvKsZzso1cu3cx/2HBr7uVyQrVxk5AK6cVBUQ7pFdNMjyUJ6zTUygFI0Om5/V6F3LzE4dHZOddrkO9JD106f4n5gp4TzPnn8D+P97R3z14+j8/YXHVqHeN7UK3xjes3Pnzvw5d6vmSZ+svXxxfVo9dySA4uyC+YMnEK01V8TLwJM/n7+dNH5FL5pQuXq/VJvywuLE6siL3AXN5ilYnjJ5YUVvjR1Di+5jzIQm1zqsv2zSpQVYH9fx7ghfDa27dfvnRF1TPsK1aBxinw+edfh/BEkJ2jb2hkj0nTu+uQGAMiRQGJLM2FDvXyX5tsUAVqeX0H2QdL7ANFIT36JekREmor3A/IaLWNt9QKACZBgUSRMXbBwn/u3K2AWsZVta6nopQgPjt2tAui56ZMFxh0fJT2QKgHHMlUBQCD9YakOfOmfvzp9Pc/THvvA+XmD9Sb39Ns3qzdvEm3aZNu00btpo3qTRtUm9erNq9Xb16v27hWv3LprhPHG0gr5QRxhSCUGzcK01L5Bn1LQm2cVsd9tT/k4cMVh549f6kuBRt5LvtSdu8evYMDg4MDg7smdT1+tDLLF9MTqkcZfHRzcdv9K5khrMafw3/93btHb8amC0GQr4+fRqW9cP4i037bV9s83T3pDm2sbSzT2I4aPqqwoJBpaVkpKSx5llD7xiQWai2Xg62zCrRZBbZ88FFHx46+Xr47tu9ss5NkJ9YiCly4cDldqXP2DLB38xH06JuYlhFrQGQoKsQwFmqbw/1AhuOdjVmCV4e0C5HYBwqDuvVJ1BkicVyMYTCVfwEmU4tZcm09cEl/aS7AMDHAxBmqvqbM7WfPFVMWWuoJapBJ9Gjeg3HvLoanT4M1ar7BwENpY21dny7o/FtcAwIbkFCjSaTRitUamUYbqtbINRq5Rh2mJotcrZZrVaFaZag2PUyriFalxEwZv+m3nTVj1GPPfDlBXCaIjA0bBGkpfIOOgyItY6kNBSBGp+MOGAR5+QZwBcebNGtjfl7+5599vmLZihVLV3zy0ae3b5rDbFnOfvnSFXKZnMbQQQNef5hXa1irK5eztSqtq4sr3djf1x8g2OlTpy17u33zdvLUZIaSmUpHp46rVqy2bGlZLy4s7t2jt0M7B2cn58rS0dm5IxlP18XZxdXFtQmLi7OLM9W5o6NjR8eOUydPK2zSoBOWU6u3zlpq65WIbcAq0GQK/P++VwiC5LJavzZqsjuxHb0AChw58u/AoWNsHVzbBwvgAYOj05VheoMYACEwwpgJZkMfNI0CpKWWj2ESHE8yZokGDHfgyOwCBAGdeydpDVEYLsZwAW5kioWxtoFQi5MBVtXaThrt+j/2FhBkii8Le209z/FNgnjn5+3xOi2ckc7XaXkIbaytO3gWSd48FOOjGIxiPD3C0xv4OgOsMwh0eoFOL9QbhHqqrtfDeq1ArxLpM6TqVOmkset//7WgErvrGhsNtek1QG29stRF5LV8XKE/S2AwjkkBGq3T8V8fbOXj7x3EPfT30bpG+cTnyonanApu37r96UefxsfGBwUGbf3y67rvcO7MuXGjx3Vo34HL4c7MevPK5RrCYB0/dvzVfq+6u5lzjFlbWXt6eI4aPurcmXO1dV5WWrZ5w2ZgALNmzqosb86a9eas2bNmz541Z87spiyzZ82ZRXWeZcrKMmZ9+dmXJUUNNOjXNoMnP85C7ZNrx17JKtBYBaZOngZB0Ct9X3n0sDKYS2M7YduzCjAK/PTz7k5dX7Z1928vkPIHD5MrlHIESIBRAFiofQI2qvESIxcnoVaMYYnGLNmQse35YXaBIv+kXkkafTSGS54cak18zEjGWAW4SKeXp6cbP/vsFoWMpQ0DR4IgHhHE79euT1i+TJSaAquUfIO+YU4I5H1Jiz4gCwxwGOACgAtQXFhRBAgGI4CPInxEJ0DUIk2aaPK4Dft+z2/w2C4RRNpGS0stbUVujoQg5g8efAxIABKp1wmGD7fxD/LwD97zxz7mzdJylXJi6xdbZ8+cfb8BsRf2790/bvS4xe8sriNRwuFDh43A2P/V/n1e6jN08NBMY9bBA3+RTte1/5SXEaXF1ZM71N68ac6Ul5WXlpS2/H0tR89CraUabJ1VoBkVKMgv6NunnxVklTwtmY442Iw3Y7t+MRQoLCr75PNvo7v1gVx9HMOiecPHRGn0YQgmBjhrr63FqlcjudZxkIRaHgW1nfDMiFGTOsARdkFi34SeCSptNGWppR0PGu9+QN/USKauNSAiRfqIhQuP5eWVEmTs2LKGsWMJQVwrL1+1Z0+iVgOnpfBJJwSSa0lOJbGV/GwDYyZBRaUOTciWwCSoKDBqhFGMD1AuquejGqFWIZgyfv2+P/Ib/M66SBCpG9aTozK7HwA+FUG5GbaLkVDLIzsHYoCE63Wi0aPtgziuPgHbvv2hweN90oY1wWVhQeH1XIs9ajW1oe9XUlTy37//Pbj/oO7b37tz78g/R/b/uf/Efyfv3jGncqj7khfzLAu1L+a6s7N+BgpcOHshQh7RoV2Ht+a89Qxuz96yjSqQ97BwzeaPeRHxkGdAx4h46RuTo3WInORa1l5bB6o2/JTZCijGsHjMFDt+uqMwyjZI5BXXNS5dRUMtmUvMSDrUwjhpfK0o9d+CypVAfnUOI4hAqUwwGD49euwRBbU019b9zJZTLQsJ4tDt24q1a8LS0+AMBV+r4RsMMBUHQ0A9AwJgEuKZAqrUBLWZfCyTX0G9JAFXci0NtQYe0MLadHjy+PX7SAeJBv5cJIiUDRv4aSk8g5aDGrgAbQGoFQIkzKATjxvnEMLr6OHz/ocfN3C0T97s8WBmln3VfdayJVtvCgVYqG0KFdk+WAUaoMCeX/cE+Ab4+fht+eCjBjRnm7AKNFSBG7fvz3lnuQ8sg1x83BO6hU9LjdajoQgmYsN7NYFbbSXUxmGm+EmpTpJo60Cha1RiVGp6NIaLsIp0YmaorZ9lGbLkYSYqlTHOR1BYq5UqFOiWj29SZlraXlu7gY98NujEXaUEcYcgvj19esTbC2TpCoFKCet1AhSFUYyCWvKzTe1QSxOtmWtptKWhVghMAhTnA8ADCBfT8XXpfApqG+44dYkgUjdu5CtIqOWi+paBWgFqkBt00okT2vMEDi4eK9esb+i76Inb1YGtda/fE9+RvbB2BViorV0b9gyrQJMqsHnD5vbt2osEol93/dakHbOdsQoQV3JuTFcDR89AyDPA76VXIlIUETqDDAUVuRiaY3dOI+iNwbhWWKmE2lhgTJia7iSNhfxhR3ls+LSUp4RaSg3KUosCgcEgSFP0y8zad+NmCZXlq4QyxNbNRbSxtpggrhPEhv37Xps1K1SZIdSoYdJYiwoARnrKAmMtUEuzbBYfy6KMteRLGGQKQKaQLCbSgwVgPIByMB1Pn8GbPH7dvr2NhNoNfEUyz6BpCajFMR4OBKghFNGFTpnUARbZOrn+7+1Fz+yvQ90r98yG1cZvzEJtG19gdnrPiwLlBA5wCII6xXY6fuT48zIqdhxtSIH9f//bb/g4KycP22A4+LVBEYqMCASVAEAH+aI9LFshUz5zdKahFhcBLAYYE5NVHeXxkB+/vTRKPnl6DG4U44yl1gTjJsqjoFFjpnbuo4DyQFCFJ6cu+unnW6XlxYQ5gW3daEQba0uoHWNnCgoW/bS938yZoUqlUKMmKdnMtXRwhkwYz6Rsw+QgqZLJw6oUPpYFgywaakUU1ArIyA8k1PL1GfzJ49fu3dNw9wPKUruer5jeklALA4MU0YVOneIkllp1cM56c04beouzU6lfARZq69eIbcEq8PQKFD8qHj1iNARBA18bmJudS3ZY939WT39LtocXTIHiUuKb7b9FdH0J6ujRXhLGHzoyWqOTI4i4IncuG7/2yZie8hAwCgEeDYxJqRrXiCTID3aQRMonTYs3ZUoph1q+0cTHTXyKGht/FyMfxfgIEOkMkpS0UfMX7su5UWABtXX/qaC5tpgg8gni2O07i37aPnDuvHC1WqRWCfU6AYIIqMzJAhK4jdy6CkXkpEMtaaaloBaHUcBD9BxEDWsUoknj1uze1fCNYs8EavnAIEF0sulTnWVyqL0Time26J+BOlwRWnQcL+7NWKh9cdeenXlLKnD7xu3OCZ1trG0VKYrCRw2MX96SA2Tv1RYUeFhQ/N5nW0UxCZCHr1NYlHDM+DCVRoYgIspiR0Et64fQKDMq2ZhLeb4KAR6FGrso9B4x3SB/YTtxpHzitITMGTKjCTYaaaJ9Uqg18QDORzERAmQqTWeNfvn2nbnFJbT7AR2ztiFcW0Jx7cm79zb+uW/80qWxWq1EpRRqNQKDAQaADzAuwDgoFoJiHECWEKrQdQ51lgtwHorzURw2F8BHEK5OzVUrJMqUPojuy0N/NdL9oKUttTxgEKM6afI017BIqH1HlRZpC29sdg4NVoCF2gZLxTZkFXgKBY4fOc4J4jjYt583e95TdMNeyipQjwJ5BUWLVq4LEIVCrp5O0XGiCZPCdTopgogAgJsroFKjMbHxtsxneQsGaiMRY9cMxCu+FxQgshdFhE6Ympg5k4Jas5n2aaCWB3Ahisl0hkileuI77/6RnVtUkYihbqKlHwjaXltG2Xdzi4p/PHnS8OGHvTJNEkUaP13B12j4egNHbwgxGEIQJAQFISgIpkoICsgctgjKJQtCFgPCN6AwAnh6PUej4qsUsZhh/PIla3ftPH37drHFA1i3XZK21PJa1v2ABwwiVCdNme4WGQO1d05RqC3Gy1bbvgIs1Lb9NWZn+Dwo8PWXXzu2d3Rzcfvw/S3Pw3jYMbRhBa7duK3GMl38giBPH7duPSRTp8l1OilAhRiAMTJ8aetiymc+Wi71xb0Q4BGIsYsS9UnqAwWIbOBw6fgpiZkzQ42ZZCQvyvfgKaDWyAOkfVSsR+UqTRedYcG33+c8KqoW2KucdFqqGXEtT5QTxEOCOHz9+tJfdo5ZvKgLAGFqtUCp5GSkh6iVITptiEEfYtAHk78NHIMhRKfjaLVcrZar0fDUar5aI9TqZAgSiug7zTANXrIo69ttP58/d624mOZs5r1D37TmARGEGWrTprWkTy0PGISoTqZIdY+Jh9o7j5+czIyWrbwICrBQ+yKsMjvHZ6/AOwvesYKsuCHc33f/8exHw46grStw7OTp4ROntvf2h/wC3Hr1liQnyw0GMUAFGMZCbWMpuRJqUWNXNebbpS8UIIK4MsGoNyiozaKgNpOPk6XxG8XMRmjKAwEXIkCmM8jTlQNnzvr6n2N5VVPmUlDLpGWoApPV+LKcIAoJ4sqjRzvPnl3yyy+pGza8MnduJwyE6rVCjZqrUgalKwLSFYHpiuB0RXBaWkhaGk+hECuVkXp9otHUZ+68oUuWTHtv84Ldv3599syx+/fv1hKKwRKmq72ryOQLG9fzzFBr4AI6o1hzfKYiN/PxqOgHfIAIUX1oRrpHp0TI0XnwqHHVRsW+bNsKsFDbtteXnd1zoUB5WblSoYQgKC467vzZC8/FmNhBtGkFygli976DvV8fBjm7QSFcn/4DQtMzQlHSCUFAGWvhJgjg+ixdAhoLpk/TnoZaAYZHAFMXLe7brR/kL4CCxdyho5NMM0ONWTTONgnUClBMbABSjS5CoUxZsvxQ7vUSiwfVAmqrEK1Fk8oq7ZCQTxDZhUUHrl79+J+/F/2yA/3i80nr1g57991+b83rOevNHjNn9Jwxo/fMma/OnTts4TuTV65CPv7k7e071u8/+MWJE7uvXj1dVHiDIPIoRK7xljUepPfBXqCglktBLQ8gVMav5iBaMuEFA7UwhgpRg1yZ4ZnUBXJy6f3aoDLaK7lSGLbWlhVgobYtry47t+dEgQf3Hgx5fSgd+uDenfvPyajYYbRtBUrKyrf++LM0oQvU0dVOKueMGBWu0YQCVETthWfttQ3HXLOlFjdGYKYueqN/r/6QvxAKFAUNHJ5ozJIZs/hGs5n26Sy1Rj4ZF9YoRHGJAUiV6sR01eyPP79w70FV22w1m2w9TzETG+EeQVwtKjpx797eK1d2njnzzfFjX/x9+LNDhz47dOjzw4e/OXp058lT+y5eOn7j5uX8RzdKy+9SLPuIIIqooLmNJcNSgjhHECmb1nPSpnH1ai4JtXgzJMilP1lRUEulyYUxVAQQuUrp2bUb5OSS0LNPYWFpPRqxp9uQAizUtqHFZKfyvCpw7sy5pIQkCIIy0jJKi9m/sM/rOrW5ceUXFi/f8F6ILBzy8HaMiReMfyNcr5cBOiMDnc31RbG2NhxhH29p3iiGGyPwzM4GU1DfwVCAGAoUBbw2OAEnoRa2MNZWhIB9cmEprsWkejRMkdFTY1jx087cR4U019bxXX9DHt5yCk/pCLhFVGjbRxW/C6kdZnQas7KKDWp0pTZbbB13LKd6O0cQae9v5qYlc/UaLkC5LQK1ggqo9e7RE3Jxj0rqdv9+w6OQ1TEn9lTrUICF2taxTuwoW7UCf/7xpwgWWVtZL1q4uFVPhB18q1Pgxu17Wf9b6CeUQn5BzgmdxVOmyA0GCemEgPErIcMyV2plxtTH8e7FPEJxKpm/IAzPTEIzQ14bbh0ktQoUB7zyeiKWGWrMgilvWsb9gObaJ9OKvheMGUUoJtPqQ1MV/TNnbDn417XCQibCV2ONpjU+tDQfM9j6BORaY7f0wVLKXeFkeVnKB5sFSgXPoCOhFm9GSy31MGN8DNBQG6ZW+fbuDbl5SqLirl+/XcdQ2VNtTAEWatvYgrLTeR4V+PSjT73cvVw6unz95dfP4/jYMbVpBS5euZqqA65cAeQb6NaztzglNRQAKsIXCRkVBJZJ5UplMqY+uaHxyWDueb6K2vtFQq0cMyWALM7AkbbBMpsgiV+fAQmISY5XQi3PImVXY2dELwQNtXzcBANchKASjSZMkT5ywdsfHz6cW1RcTO3WKqUiIDQthjbhO6CUsv5eLSr86vyZwe8uEmlUfETfrFBLZcvDYXITJAm1YoDINSr/l1+GPLw4ktArl3OacHZsV8+5AizUPucLxA6v1StQVlo2d9Zcezt7AV946ODhVj8fdgKtUIFDR/4d+sYUOw9fq2Ce12sDZEqVBEVIYy3AecDIA0Y+RhtoWaitgeYZqA3FjPFYFuf1UXYhoTZBEq8e/ToZjKEYlX4Wz2SItrE4S7e3gFoyQBiZxgwFAoNBpFZHqFVj3138yZEjOUVFhRUeroyjbWOex+Yl4XKKuQsJ4lJe3id/HZy+dnUcigi1Gj5Chj5oPp9aGmoFGCbAgJCEWkO4ThP4yiuQp7c/T3j2DLs3tzHPSCtvy0JtK19AdvjPvQL5eflTJ02FIKhr5245V1ibwXO/YG1xgKVlxM49+zq99ArU0d1WIvMfNlyiUYtRFEYxPorzAU5xFWOszXwyLGurV9FpcgW4UQbwOCyLO3SMPTfUJkDk3rl3vA6Tk1BLJphlypPpwFxOMjRp8TVyAcZDAawnuTZKqxm9aNG6338/ff9+AcW1tL22kU8rs8msjkoju6SaM9vRHpSXnbxxY+2O7aPnzYlVK6VqlUCv46GoBdQ2fQAEGDMKMFwAMCH5FQQiBoZIvTZkQH/I29c7hHf82IknmRJ7TetUgIXa1rlu7KhbjwI3cm/0e/kVCILGjRnHJshtPevW1kZaVFL2wadfCSJiIU8f+/DIoDFjZDqdCCG5tiISAgu1NZhp6XBRfAwX4LgUw2LwTP6Ice14clt/oWtCj3gNEoaZBJRhlaHSJ4Na+ipzJ5QbAxdQXIugNNeGKZW9MPDOjz8evXkjj9qJ9aTG2iYm2jIKsh8RRE5B/q+nT7716ScDcBCjSA1VZYh1Whgx8ADgAkBtFMMtPLlrVPtJDtJQK6yAWikwRBu03EEDIR8/zyDOwQPs92Nt7a9ZHfNhobYOcdhTrAJNoMDZU2fjYztZW1lnGjPN3TXvd4BNMGa2izapwL0H+QuXr+GGR0M+/u1j44WTJocZDGIUFQIcxkxwpQcCa6m1RCsyXBQfwwQ4JsWwaNwkHDOhgyDCPkDkGt+tk8oQjhmFOBlKoimhtsLuywU4F8V4CCrQG0QqtXD6tJdwfPaXX+y9fOVGSUkxFaag8X9OaoPaJ3nqyygP2lslxUev5W75Y49y5bLeem1kemqYRiXV64QGPQ9BuCjgAowL6L2JTb9djIFaESB9D0IxQ4xeyxkwwMo/0M0/6NNPvigptoz2+yTTZK9pLQqwUNtaVoodZ2tV4Lddu4WwyMHeYfWK1a11Duy424oC12/eMc2Z7yuUQl6+bl26y5JTqGAImBAzCvDMCq5lobYK1NI76wU4JsFAtNEkeWOKsyTaPlDkEtMlPkMXAYxCMvNwM0Et6fHMQzAYASI9Ilar5RkZvQBQrd/w8cG/Tt+5m1eR6KvxaPu0zzTtQXu3tOT4jetfHDo48+MtI+fO6qxXR6jSZTq1xKAXIgY+ipC+ByjgUd7bVJza5nE/ADjteyBFDeGoPlqjCnn1NdtgTgcP77Fj3vjph+23btx62gmz17cGBViobQ2rxI6xNSvwwXsfeHt4O9g5LJy/sKykSaLxtGY52LE/awVOn7swWaHu4OVv5Rfo3aevLCUlDEElABPhllxrSXUveL3SUivBQBRulE2c6iKLsQsQOEV0ildoIoFRSDolG+nMC9SusidXjDH3MhXSLYFMykBm0BXpEZlWF6ZSxapUg2fNmfvV1z+fOXvlUWE+5QDQkk9WKUHcJ4gzd+9uO3pk5mefDJs3uyuii1JnyLUqiU4jQgwCFOGjKB+gPAB4ACOTADdDEjvyGwZggoFRAHARQCUoEoYaYlB9XEY6/Fp/Rx5s6+ji7xf0Uq8+y5csv3TxUktKxN7rmSjAQu0zkZ296QukwLfbvhULxNaQdY9uPXbt2MVy7Qu09s/lVMsJYu/Bf3oPGgI5udjwYP/+/cMzMsIQRAIwIekeypppqyEpDbWAttRGAkw+ZbpraKy1H+wQGhOXqoqioJbcgE9Fq31KqK2d/MxcKzYgEp1eolSFKjIStfrxi5cu2/XbbxcuZj8qLHrq5432S6i7mzIq09iZu3e/O3li7tdfjVo4PwnRyVXpEk2GSKcWIXoBgsAA8MmC8SmcrYiwUU3YJnhJQ62AXAIgQVE5Yog2GOJUKtno0QFJXRyDufZOrv5+Qe3bdRCLxBiCHT92vLys5Y3adSvKnm1KBViobUo12b5YBR5XIPdq7gzTDH9ff3s7+359+v3+2+9lpay99nGd2CMtp0BxafnWH7aHJXaB3L3aiSScocMi1eowFIgBLsSMVICkJgCO2vmsdXVu5JGJKlABDqQYGglA+LQU17B4yIdrJ46ITcmIxkxCMvOwEcZNME5H4yIjITT59MlbAFyAYkIECPUGkUYrUKSLUxTd8cxpK9es2PnbntNnr9x7kF/hkPBkz5Ml1zL0V0btSyskiJuPHh3Nzv7i78MzPv901DsLOqMkzoo1SpFeKzDo+IiewlkMJr2QmdL0/gZ80gWcttGaKKLFxGzK2uEAACAASURBVADIECRcq5VPn857fYhrdFx7Dt+bL+rxUj+A4t26dHds7+jr7Tth/IRdO399mPfwycRhr3r+FWCh9vlfI3aErV6BC+cvoHo0MCCwnX27oYOH7f19L8u1rX5RW/kE8guL1n3wMRwdB7l5dAiPEI0bH42gMhSIACYg9401C4g0Oee1SIdGHgYoqEUlGBIJQGSKwi0yEfLl2gjDYqanRQNcDIAAYDBupAoZYrY5oJaarBEGRtIbAcVhAwrrDDylRpCuilLrXsKzJi9a9vZX3247/M9f5y9evHvvTlEJDbhVHlVLaK1ywvyC9pQto8i4mCAKCOJuUfGlu/eO5eTuOnFi/S+/6Nevf332m3FalSQjVaxOF+rUAkTPNzsbgIrgBnQS5mZMxQwDkwCYhJSZXIwCGYpKMpScMWM9uvVwEMvsArlwVPz0DM3PO3fl5OT+9MP2kcNG+nj7dmjv2Kf3yx++9+HV7Ks1zZ491uoVYKG21S8hO4FWocD5cxdMuMnP18+5o/PokaP/PvR3qxg2O8g2rMCd+3lvLV4aIJZBPn5uXbrKk1PCDYgERYUoBpNcS4ZEaBFqfM7vYoZaIY5KMDQSA1GKDPfYzpA/z0YQFjU5OQYBUhQIAemfIMAxGMd5GFmaQzra0Za2U/KBkY/iMIIJDUCqQ+UqXYRC3UVtGDJzrmLZ6re+/Pq93//86b+TR67mXL734Majovul5fnlBJ2TjI4FxgRBoGNylVDm2DyCuFFccrXg0Znbd/66kv3LqdOf7Duw6Jtv8fc/mLRoUT8jHqdShmUopOoMgVYJ69U8RMdDET6G0bNuTqC3tM7iQnJnGC5GcQmKSbQ6/rRk39eHto+Jh4K4HiJ5z0HD57+78viJU7SxubSk9NBfhww6RCaRdXDoEBEWMXvm7P+O/8e6IrS9v28s1La9NWVn9JwqcOniJY1K4+7m7u7mPnb0uKNHjj6nA2WH9cIocPlqrsaY5caBbYI43n37haalyRFEhCACFMDUV+rNQWatrU86/yoqxFEpDiJxLDpD5ZXUAwrk2wjkEeMmxenRUAQVA1SIAQEOYBzjk+4KTR64ikz5xqNKRfq3TD65R4r8/l2EGqUGXKZFpelaeZo6SqHuokdfmzFr3MLFmg2bZn/25dIftm/+7Y8vDhz65b8Tf5499/elK8ev5hy/mnv8au6xqzl/X87ef+7CntNndv574svD/6z7dc/iH7dnffJZxtr1E99dMnj23B4o6KTTRapVoaoMiUYl1mlEBh1M+RvwAEq6z5Icb6SJlrJS0wnq6N9N9qGF2hNGzZfEWUyCYjIDECkyfIaP6tilh50kzCqIB8ckqU2zfv7tj9zr1cMdnD93YfPGzZ0TOtvbtQsOCp70xqTdv+4uLSl9Yd7uL8REWah9IZaZneRzosCpE6emTprq6uLaob3j9KnJF86z+Rufk5V5cYdx/NSZEZOm23r62vIE/gMHyVVqqQERksnGQIW99oV1RTAywbwEOBDjaCgGojEsXqUJ6N7HKhC248vCho9N1CERBkSKIkKACHHSXgs3PdSakxjzsCweRqcyZhIaZ9LepULUJEFNEj0u1QGp2hCq1oep9eEqbZRKG6PSdNLouunRvsasEfPffmPxkpSVqzPWrVdt2KjasDFj3frUVWsmL1k69p1Fw/634LUZs3oAY6IBjVFrwzNUYSpVqFIlVanEapVYq6F8Z/UC1CAACFyBszTBM+EaeJUBj7Mo/m4CqLXwoDWJgFGC4qEIJtciwqkpHn3720rDIf8Qd4Gs1+CRqzZtOX/pam2bwQryC77/9vvXB7zu6uLq2MGxV8/eX3z6xa2b1fH3xf1z0PpnzkJt619DdgatSoGj/xwdO3qsq4url6e3CTexXNuqVq8NDra0nNix+89OL78KuXvbi2UBw4ZLVWoJZawl/UTN/rWtlGufxl5I+4PiMAaEOCbCgBRHwwEai6Kd0pWc7n3sAmEHrji0/5DOSm2s3hCGIhKAiKnGMOmDS1tqGd2eZiRmouVXwVkGbamzIBMGmaSPKWoSo0YxYhQjOFn0QKg1CNRaXrqSm5bOTVMI0jNE6RnSDGWoUhmmVoWpVaFKpSwjQ5KuECkUAkU6nJ4BZ6j4SjWs1sIarUCnExj0AsRAFxilWRalwJ0xSNPTtJyj5fCeFmphzCTASA9aETCJUJMEwSU6VJKu5o2d6Na9j7Ug1DFEIOvUNQPN/GX3/ocF9QSBKC8rP7D/QGpyKieEA0FQZHjksiXLzp091wbf2y/klFiofSGXnZ30s1OgvIw4sO/A8KHD7WzsggKDZmbOvHzp8rMbzgt355Li0rwHeddyr126eOnC+YsXzl+4fOnKtdxreQ/yXtjde/mPij/4YpsksSvk7mMnlQePGiPX6iQoKiLzjpKbxuh4CK3NxdaSBWuIU8b4pz7uDkHNFydDDZAKoGKMDIAq02tDlRmSSZOErw/xDotp5xPi4BviGx4nHjgkbMrUcLVKjuhlGBDjmBADMGaOAFDhY/o0KYiZaxlSrKECU1xbsX3KJAQmAWokC4LDBgAbUL4e4esNfL0e1ulJVNVphXqyCHR00Ql0Olinh/UGvgHhGVA+AngIykdRGABzIedFlgr/CksXC0u1LYdXg/KPC17jEcY6K8QyRVimGGRKQaZEj4uVeu6Ead6vvu4YnWgrCA2JThw6Yfq69z85e/5Sw10JTp86/fb8t8Pl4e3s2okEYp1Kd+ivQ0VNEBXthfuL+rxNmIXa521F2PG0fQXKSst2/7q7d4/eDu0ceBze3Nlzc3Outf1pP9MZFhcVZ1/JPnjg4NdfbVu5fNWsGbMMWoNaqVYqlKgBzJoxa82qNdu2btu/b//V7Ksv4PaRuw/yF63ZyAmPgzx8O0THCydPCUcQGYaLqRywQtwkoMrzzbWWlsJqjFUDWtE+oBU5rsy79amwWWQkfyHAKK9NVKzXCVVK3vRpAWNGefTr6xwT0wEWOvgE+XHEQXypnbtfh0Cue2y8d//+vMkTQ7UaOQakGCD9a0mnZNrTlDZV0qhXw0hqRDqLgw2CWtKOa+baTAFptc0UoHQxwSgVLQHFSJcSqghQhCyA+k3XUZR0pKYLFV+WD3Cq0C7C1X7XaIe2ZFmm3sD5WkZLqFgLMqUCSediYJICUyhqCtXjguQM3yGjOyb1shGGdeDLYl4eMGP+u/sO/XM/L7/WPzBMZLKqLW7dvLXl/S2vvPyqp5unt5f3qOGjtn21jXVFqCpS63vFQm3rWzN2xG1AgdKS0u0/bu/ZvaedrR2fx5//1vy7d+62gXk9h1MoLSm9dOHS119+nYlnjhg6oktiF6lYxufygwOC/X0D/Lz9uCFcPocvl8kT4hMGDxpsBMYfvvvhBYz4k3P9Fpg130cgh7wDnLt0lSanRAJMhuESHBcZjUKjiUZbC9h62q+Vm7SrahTLQFVtKEmmVKBiFNBxHsjdYJRdFhOhQIICmR4J1eokaemBo8d4vtbfqUtX+9BQyD/A2tc/WBbWZ8AQU+ac/81f3G/QMK8gHuTmCQUFd4iK8ho0SJScHG7QywEqAYCMX0snG7MIkWbhe0qGs2VK7Wo0GGqxLBg8XkjPBDrtFhXRgp4vRttcLX6TCM4UC/cJJtxstQrjWWGiHGerCc68bAjU0r7Llf3Tw6A+WhjFqFGGmsIQPFSl50+Y5t5ngG1ojFWwMDgyYVSy8sOvvruUnVsLtRJEffHLHhU82vPbntTpqb4+fo4dHBPiExYtXHzpApt47Dn8Q97QIbFQ21Cl2HasAk2rQHFR8Tdbv+nauautjS2Py1uzas2D+w+a9hZsb/fu3tu181dUj3ZJ7MIL4fl4+nh7eHt7ePt6+/r7+Pt5+/l6+wX4Bvh4+Xh5eLu7urs5u/l5+3VO6GzCM/fvO1BcVPxCaXjy7IXpatDBNxjyD3Lv/VKoQhEOUBmG0VwrMpL22ufSWFsv0TJoxVgEcT7pIYDBZB41TAgAlWQVlaGITKeTqVSCKVODh4907/VSu9Bwa74ACuJ05HBD4xKGTJzy7qq1e/74Myfn+p079/buO5j1v7e79HvNJYgDOTlbBYc4JyQGDR8uTU2NMBjkKCDzD5OhfyvptiJKAB0rwDJiQG0fEhoBtZS9NosPqhVaH5OFWZqc/mOFsb/SKtHjYRSrVrEcbR0jZJS3bG9Zp7utMh76A4aINJbjMgMepgOS5HT/QSOcYrvY8GSOPFlUz35zFi0/fOy/vPo8aOt//5YT//37nwnPhPmwFWTF5/H1Gv3xY8frv/B5aMFEZaut8jwMsmXHwEJty+rN3o1VwEKBwkeFn33yeWx0nLWVdag09IP3PmDttRbyPFW1rLTs4oWLm9ZvGvDaQE4Qx9Pdy9vD29/HPzggODggOCQwhK4E+QcF+QcF+gUG+gX6+/p7unk6Ozk7dXAKCggeMWzkV19svX7txlONo7Vd/Nc/J/oOGW3n5WfF4fv27x+akS5HESmGiY2kvVaAGymutbTSWQLKM6k3imgZYyQmIC2pQASAFIBQFJEbdKFqlTQtlT9ufMDAQS5JXdtJw6w5fMdgLi8qtsegwRkA3/Ll1/8c/+/BwyrfdN+4fWfH7t/VmTPju3Z3D+JAXr62fIFb1+7w6DFhqYoIrS4CQUMBJqbQlgp9ZQ5kWxHY1eyiUIuPb92zYwyi9VYs4bK6ZZSyy9KG0idb2SeGWsuRYPwKn10BtS4SFEi0BmmGhj9+skfvV+wkkQ4cMS86aWyK6uOvvs15LGLX07zVsq9kr1q+qnNSZydHJw93j0kTJv+267cH92q3MjAQ+TR3rfFapucmqdR4izZ9kIXaNr287OSeewXy7uetX7shXB5ua20bHxv/0Ycfsfbap1+0spKyf4/9OzNzZkJcgpeHl4+Xb4BfYIBfYJB/UEhgCF0C/QMDfAP8ffz9ffyD/INobwRfL19fb19vT2+Xji4ebp5dO3dbvmT51eycpx9Sa+mhpIz4+oednfsOsPEOsJOGBg4ZEqpUygEqxTERjglxXIiT+8Yom98zQdhqN60Np2gWrGahpCPO0jiLilFUiqJyFAnX68KVSsmUySHDhnn2fskpIspeKHHgCQPkkZ1efnWSQrV09fpde/ZevJJdXHuC68s5uT/s/EWb+WZin1c8eQLIx99RKPHu1pM/dLh8enKkVhdB+nKQe8ioPAUYD8N4OF5RyAxkVaG2XkhtVANGB0a9amZX5iXToFGV2lah7pBe1Wy0ZNo2GKACQC6NDEGkGi1v0lTfQUOd4pJsYZlPaPTLw8YuWLr67+MnHhWWNPkbKu9B3vYfto8f+0aAX4Czk3Ov7r3Wr1l/8fxF0ofh8R9L4nz87NMcsez56etPM5LWeS0Lta1z3dhRtyEFbt24tW71ujBZmL2dfbcu3b749IsXcKNS067nv0f/1ai0UpHUy93L29ObJlrqd4Cfj7+Pp0+gX2BwIGmyDQ4I9vbw9vH08fXy9aZ++/n4+fn4eXt6u7m4ebh5xEbFLn7n3Vs3bzftCJ/n3vIePvps6/fhXXpCnt4OkZH8cWOjEEMYRubTEmEk11Z4Xj6ZVa9RtFRv4xpxqhrDGc0DJkMZACFAxKhBhhrkiCFMp5WnK+Bx4wJefc0tqXP7ULlVMKdDEEec2GXopGlz3lmy9fuf/jt5+u69B+U1ks1jq3jxytVvt/+inzGrU68+roEcyDugPU/okdCZN3REuCI9CqBh5tgIVAABo5HPFNzEJ0tmRcmC8RlkqTmM11MSbb2qNrZBjatAD9LSQmzZLWmjrXiQaAdfFAYIjOrFZKAJvSgtLXDkqI5de9pK5O04wrAeLxtmzP3xlz3Xbtxq2FI8tjYNOFBWUnbknyNGYBQLxdZW1jKpDEfx40db1hWhUSDbgEm9aE1YqH3RVpyd7/OowJ3bd1atWAXzYAd7h6ROSTt//qVm88DzOPbnbkw5V3N0Gh2fC3u6e5KGWN+AAMq7wM/H39vTm8fhdUnsMmnCJK1KiyGYERgnvjGpd8/efA7f2cnZzcXNx8vH3zeA3ENGtfdy94qLjvv0o0+fu3k254Ae5heu2PB+oCQU8vZ17txZNn1q5P+xdxZwTa/fH5/SzcY6gQ0WNKgYKCI2tqjY3dIwtgHWvXZd+yoNo1fUivDa/rz2tbvr2oE0//93E4yLCkrz+Pq+8Mt4vk+8zzP9cHaec8JCbLlsJo9jHa6KEIUUSSsRtZ87ZZdSubWKFnIE0rgR6sxcqgBNLosTZhsWah8abB/kz1y0gOLjg+o/wNDOQZNsrmtOJdg7uQ0dvjCUkyKSnDhz7smzF6X1zxFVY46yiso79x8oCovCf1vTre8AYwwRZorSs7RCufe1nDLFLsBfFc7BpfN4VuHhtPBwKnSp1O0XunYZNXwZTXXV1A9rkJBVu0hryXyuJpvi/vui9r+69qOPVh07q4oD4Vhzw+hhoYzQYFZggNXcuYjBQ3RYtjCSBdzaZvCEyfGpgpt37v2EOWrM0oC/79y6E70nuotLl06wTgQ8YcqkqYcPHemw+f4aAK51NAWitnXYAcyiwxN49u+zVb+ttrSw7ATrNMBz4JFDRzraKaVG2QJvXr3Zs2uPNc0aiUBi0VgowACLx2HwRByRTqP39+i/LHJZXo70/D/n79y68/DBo0cPH128cLEgv2DD2g2DBgyikChIBBKHxql1LR4LuXXhJvDhXsOvXrnWKDNsK508ffYyOGI5wtwSRiKZefazXTTfISzEhhtG50GH+q1ai6j9QqLVZjat0bLqzFxcKMwgLMyBzbYPDLBZtNBy6hTciBHwPn10bO06WVBNLa1sXHuOmzln9ZZtyr8O3Lp7r6JOZ6DahVZv+z199iJXUeDPDnfp0ccYR4RhCToMFtJzgPmUqcwlvsyQEBaHy+CpSNataz96bVVhCWp5Wn9dW6vsv+Dz7QQLv9jsO6K2Vl7XDvHJR6tKNwEd0YO8sxw2M8jfesE80vjxCI9+nayZegSKTc8+vrylBQcPv3lXXG/wjdDw7eu3OZKcYUOHmSHM9HT1Bg0YLBaIHz181Ahdgy6amAAQtU0MGHQPCNSbwN3bd5cvXU7AE7S1dMaOHnv4wOHK8sp6Pw0aVldWVB7af2jwgMFIOFKlSvFYNBbKbIBA2bLs/Jf452TlPnzwqE4v+MvnL/+/EHwEN8LR3gllhsaisHgsXi1qTYxM0Ej0b8t/e/+dXJjtEf8/l65NmrvAgETubGmJ9Rpq57vYnsNmcdVBCK0qsvZjSCiNF2HFjaBDVziUZTaMa8vh2rPZDoFBDr6+rFmzyaNGm/X10Ldz6Eyj61vRSc5d3EaO8eVFJqQJTp3958mz5997vzVQ1FZXV1dWV9+590CcK1/C5jm79zckmsMwBF1rFtzdAz9uAn3RYrtQtg2Hy+Tx6Lwary0Piq9VhSJ8/FoTa/t9XVvrlK29qRWRzXDzfVH7la5Vi1rI30/ncpkcji03zD4s1DbI33L6VOSggXoOjto0a7yDy6ips6KSUq/duvOdUOame9tBhceOHfdb7Gdpbtm5U2cnB6d1a9ZfvXK1tbtsq6qrKqsqyysryiqaDk5r7hmI2tZsHTC3DkfgxvUbYSFhCDjCyNBo6qSpp/4+1eEQ/MKCXz1/tWLpCnOSOQ6NI6iyGUCnvszQ5iTzkKDQs6fOlnwo+X73d27dWb92g6OdI9oMjcPgVF5eHMoMZWxg7OzgfOzwse8/3s5+Wl5Rte/Q0YFjvDsh0Vp0OmXsWPsAP3soGQJXHVlbk820GWTTd4b45Pmz5kFJBlhcnkrLhtkFBjsGBNrMmWcxxps4aAi8aw9tK6Ym2RJFt3H2HDR5kd+a7btyC/Zdv33n/Y82xq9Ytryi6sbtu5nZsnlBHMeefQ1wFBgSq2XNQnj0t/SZbLfY1zEESv7F4HKtuOpjZDUBCRER1PBIdU2y7/prm9kv+19b/FDUftK16mptnxQtm+0QGmy3ZBF5vLdRr54aNJohzcp10FD28t8P/u/Ei+/kH/gVk9Tz2arqK5evbFy/ydnJRUtDi2pBDfALOHbkWFlJo2b6q4J+G68oqygrKftQXPL+3fu3b96+fvX61cvXL56/ePbv86ePnz5+9PjRw0cPHzy8f/f+3Tt3b9+8fe3qtYsXLp47e+7UiVPHjx0/cvjIwQMH9+/bX5hfKMuTZYuzhRnCG9c6Yu1fIGrrubtBM0CgmQhcu3rNd5Ev0gxpBocyy1w8f7GZBm77w5w5dWbIwCFIBJKII6lFLQ6Dw6KxUydNvXD+Qj1dLPfu3g/nhFOIFJWzVh1ci0OYIEyMTH9b8XvV91x5bZ/gf1ZQXFIqzM5z6NUHhkDq2dpb+vjYBwXaciBnrRWvNgnUR0dpTRrU/4qexn3li+Ggw0aqbFnWXC6Ty7HlhEGu2aBg24WLLCdOshg1xqxnbz26jY65lR7RkubU3ct7Em/lmsws6dnzF5/8+7x5wjSrq6tLyiqu3LidmS1fGBru1LOvPo4CQxP0rVhojwHWk6bZLfGzDwm1gQISuFY8LjWcB8XaRqjSI3wsS6by4PJqHbFf3TQu4Yb2Vg9Ry1WFO3MjaVCdsHAGh2vL5dmGhrJ8fWnTpqEHDdK1sYFRKHg7e5/5C1PFWddv3SmvrDMK5D97tIlfePLkaUZaptdgL7gJHI1CjxszTpothXLUqMRoeVl5aUnph+IP796+e/P6jVqJPnn85MH9h7dv3b5x/cbVK9cuX7x8/tz506fOnDp56u/jfx87euzQwcP7ivYVKAvkUnleTl6WOCszPTOVnxofmxD1Z9TuHbu3bt66acPmNb+vWbn8t8jwpVw2NywkLDQoNMAv0G+J35JFS+bNnjd96vRJPpO8x4wbOXyk12Cvgf0H9evr2ad3nx7de3R16erk4BSzN6aJ2bTG7oGobY1WAXPq4ASuXr66ZOESQwNDhClizqw5169d7+BA6rl8fmIy05qJNkOT8B9FLRqJsWXZKmXKevagbnb65Jl+7v3MTM1UJ8xIeKg6A9bYwHjIoKFPH//boK7aQePXb9/tjUu0tHOCmSINnFysp013ZLOZkPbifZbf9FM5qF/J9qX+qP3zr1QeVO5BVRBL/RU6+FWTzSBcXc+WzlHnmuXYs9l2AQGMOXPNx4038+hvYOugZ2ndCU0wptBc+g6ctTgwKi7l6LET9x88Lilt/JxQ9bF1eUX1zdv3smXKBYFhLKfu2nBsJyTekGWP6j/Iatp0+4BA54hw23AozNSKx6WFcy15XCj5l6r4Wa3LVh0aWxOW0FAB2hTtvxa1lrxllp/lbVCVNIOqmqnK3kYwODzbMI5jaBh97nzc8JGGXbt1JpK08YSuAwf//se2k2fPvS3+UB+YzdbmQ/GHI4ePLJi7AIPCGOgZ9OrRa83va/iJ/IS4xL1/Rm3fumPLxi0b1m1cu2rtimUrwjnhIUGhAb4B8+fMnzVj9rTJ0yZOmOQ92nvE8JHDhw8fOmTooIGD+nv2d+/j7tbLrbtr965duro4uzjYO9jZ2jEZTCuaNdWSSiFTSEQSFP6ExiDNkHBTuKmJqYmxiZGhsZGhkZGhkYG+gZ6unr6OvoGugbGBMdwYjjA1gxtDzZAIJAYFPbVh7YZmQ9R6BgKitvXYAswEEPhE4MI/F8aPHW+gb2BibBLkH3T9KtC1n+DUeVdRVhHgFwid8VLlnSXgiDg0zgxuNm3KtLdv3tb5yLdeLC0pXbF0BRKOVKe2JeKg6gwoMxTNgvZX4V/feqodv/7s+csVqzfgLKxhZhiTnm6M+QtsOWHWXC5V9XH5l4WpaqtS/Yx4+lzOqitvQRkMVEkMrCAPn/qCjn/RuTw6hwfVsw0Ls2OH2QeHsBYvoU6fgR852rRXb12mLYxkrkswt7B39vAaFbr0d3Ge4vK1m+/el7YSM12/eYefJpoyexHTyVUHQ4RhiEb2TuhBQ6xmzWb5+dmGhrA4oXQu24obRv2oa9XSFqpApvaItzJR+4Xn2JK31LLWqQwV6V1aI2cjWJxwWzbHLiCINnWmqbunljVL25xKZtmPnTFLJFM8eV5X7rz/ZrlqCStevHCRy+basGw6wTqhkWhrK2srmpU5xZyAJ+KwUB5ADBqDgCNMjEyMDY2N9I30dfX1dPT0tPV0tXT1tPX09QwM9Q2NDI1UObDN0Cg0Dosj4AhEApFIIFHIFAtzC2uaNYvBsrOxc3J0cnZy6da1W4/uPXq79Xbv7e7p4TlwwMChg4eOGD5izOgx48aOmzB+wpSJU+bMnLNk4ZLQYHY4JzySF7ly+cp1a9Zt3bJt0/pNRw8fbQlOLTwmELUtbAAwPCBQJ4GqyqrDBw6PGTnGUN8QhURx2dwb12/W2RK8qCbw+sVrT4/+ZnAo9kBVJIyEQWIIOMLe3Xt/AtH+ov00SysMCqvOZUsmkIl4IsoMvWvHrjrPmf3EEG3rkVu37/kGcUzxFBiOZOw5wGrRIkYYm8bl0KBqAp9fte7bhiX8+lLOqgNJocpb6mymVly1UzbcmhtO56q0LIer1rJ2vn6sOfMo3uPh7v0MHJ21rBi6lnSSY9fug4ZPWxy4LSp+3+FjDx49bR0fZX9h85LSiguXrsYlZ06e78vs0kMHR4Zh8Po29gjPAdQpU22WLLYLDYbSTUD1CCDCn7ls1TXJ1AEJP/PLQ2OlQfiP1T6WkKgV3Govu0rRRjI5EbZh4fZBbNa8RZbjJhq7unUyt4bTWB6jJ6zesvPk2XOl36pt0TpEbXV19d3bd6P+jOrTq49aetrb2Ts5OnV16drdtXvPHr16u/X26OsxwHPA0EFDvQZ7jRg2YvTI0RO8J0z2mTxrxqxFCxb7LfYL9A8MCQzhhfFWLv9t7eq169du2Lh+46YNm7f9sW3X9l0xe2P4CfyM1IwscVZOVq40T6pUKAsLCvcV7Tu4/+CRQ0f+a+vfngAAIABJREFUd+x/p06cOnvm7Plz5y+cv3Dl8pUb12/cvXP30cNHTx4/efb02asXr96+eVvyoaT4XXF5Wct8HPHFLm/2b4CobXbkYEBAoH4EykrL9hftHzVitK6OLolAWr50xcOOVNqqfpA+tbp5/ZYNwwZhiqitf4uEI1kMm0P7D31qVO+7p4//7d2zt7GhSa2opRApaDM0N4zbYY8Vnzl70XvSDC0EFkYyhw8ZSvfzZXLDVK5EDpX3+aXWtb8iatX+yI8hDTSoaAIPymbA4bE4PFsOxz6UbR8QyJwzj+oziTh0uDpqFoYjGZlb2fTq6z1rwaqtu7MU+85fufbyzbtWEZj57Y337n3JPxevxKYKJi30Y7h010YTYEisoZ0jbvAQ6+nT7AP87cPYLMgvDv3+8Lmuba4I5u+J5h+LWm6kNXcpg7uUxYmwY4fb+AVSfKYg+w4ytO+iQ7Gmd3dfzI7MUe7/Qc3bViNqq6urXz5/WaAo4Cfw01PTM9MzhZnCHEmOLFemlOcX5hf+te+vQwcOHT1y9NjR//19/O+PAvSf81cuX7l5/ebtW7fv3r577+69B/cfPH3y9Pmz58+fvXjx/MXL5y9fvXz15vWb9+/el3woKS8rh+rvtPKN++0t3bI/AaK2ZfmD0QGB7xEoKyk7dODQsCHDtDS0LMwt16/d8PxZXR/Pfa+PjvKz0yfPUEjmcBM4hUgxJ5mTCWRTY1NHB6efO2lXXlYxcfxEXS1dCpFSq2vNTM0Wzlv44Z0q4K82wdPn/+O2a9gV5VWFRYfc+nvBDEw1qHSi9zi7oEAmhw0VguKFUaGLrfrK+05YLS186X8vavhSy09XpDqE9GPFKW44nRfO4obbc8KdOOGOQaG2Cxcxp82wGDEG4epmwLDTIdP0iJZkG2ePYWP8ucv4mZITZ/559PR5SXlbEgXvikv/uXQ1IVMyce4iKxtHXRxJk0gxsrMnDBnKnDXLxt/Phh0KnSHjQr8wWHKhUISagOZPvzxYciM+vxrLHVtnPzVyFgozqLn/j5sWUrSRDG6kLSfSLojDnLcEO3SUnr1LZxINaW0/aMyknVFJV67f+lDSxpJPVVVWlX4oLS8rV1+V5ZUfNWhb2nHt9p8qIGrbrWnBwtoHgarKqv1F+93d3DU6a9CoVju27nj54mX7WFrjruL40eNkAhlurBK1ZHMKkWJqZOpg5/hzora6utpvsZ++jr5a1JLwUEiDqZHp7Bmz371+B838cy1be9+4S2p9vZV8KEvPkNg694AZIfQdXJjTZzqEhjA5bCsuW6VoQ1Vfw+uUQdCRr/ClVnVdtE/lYdXJWSNo4REfHbTccDtuuGMY1yk41HGxL3X8RJznQFOnrvqWdG0UEYG3sHPuOWna3G07Y/YfPHrr7oPixk231LwmKC6tOHfhclxyxqRZ86k2jppwtBaOZOLsgh4y1GLGTNvgYPuICCYv3IrDoUEBzTzVFU79pGXDLbmfX5/07rcs8tOv1wjZr0Wt2n+sSnEQAclZ3lIHzlKWb7D5xBnwPgM1aTZaeHNmt95B3OX7Dhx7/uJN8wIGo7V/AkDUtn8bgxW2dQKVFZUigbh71+4anTXpVvT4mPhXL1+19UU1+vxPnzhtQbaoFbXmJHMkHGnHsjv5U7l+qyqrAv0CTYxM1E5ftaiFG8Pnz5n/9pXq2FmtkP38ptFX1fo6fP367e7dMZYMexgKj+zlzpo9R6VrQ614bBrve6L2W4rWqsZ3q644QAuPsAqPoPOgrE8MdhgrhG0bEGQ1czZh5FizPn316SwtCtWIQqPZdxnoNTYoiJuUmH72zPk3r9+3PlQ/OaOS0ooz5y7sjkoYO3mmOd1OA4XtRCAbODnjR45izl9gExjICg1lcDjWHC6Nw6FyuFQOD/LdQtfniha6/2nN+sMHa0TtV95ZVc5gLhT6zOCEQxG0wWGsuYuxXmMMXHpqWjDxNs7DfabtjUu+eetuZQfLjveTuwE81kACQNQ2EBhoDgi0BIF3b98lxSc52jvBYLAuTl3SktPevVX5C1tiMq1zzJvXb1rT6J9ELcUcg8RQzanSbOlPTLikuGTW9FkIU4S5yulLJpBJeBLCFBEaxP4i/OBzRdthPnx8+vTZspVrcDRmZxwJ1bef/YKFDuxQBifU+mdFrVX4UmtepDUvks6LYKiCDWzYHEZAkPnsObjxE80Gexl0cdWwhuQsisZwdPecPm/xjt0x+w8cvXnzTvH71pX+6Sc2W52PvHlbfOrsP9v/jB0xYYqlraM2jqhJphi7dMEMG245YwbT39+GzWaw2dZhYbQwDo3DtYSkbUuKWqqqnBt0kk9dyy0kjLnIjzJ+sknPvlo0GxNre2ePweEr1x3538lXrxuWjaROPuBFQKBOAkDU1okFvAgItDoCz589371jN8Oaoamh6e7mLhFKPhT/oD5Wq1tDU07oxbMXPV17QvXDyObmFHNzsjkOg0chUJvWb/qJYR/dfzSw/8CPvZGg3ghYghkcuWHdxo+1i7+Ss+pvf2KktvnIjRu35vsGGeEpmgQyeegwJ19fe3YIgxNC44XRoHDPLxx4aq9e3Z5a3lJr3lI6L5LJjbThRtiyubZBoTaL/SmTpyO9Rhq49tKi28AoNBNrG5ve/UZNnxOxen2KMOvsPxdevHj9vUIY7eUXjFev3x0/cWrr7r1jps6wtLXXRGM1yBRDRyeMl5f1rFksPz9WSAiTHUYP49I4PCoHErUWn12f+1N/6HytZ4PP+6y9VylayDsLneRjc1j+gdQZs9GDhkERtERLgq2Lz6xFsUkZt+/cr2ovpmmbb9z2P2sgatu/jcEK2w2BJ4+f7Nqxy9LCUkdbx6OPR252HjghW2vcstKy6VOmkYlkC4qFBcXCnGxOIpDhJvApk6aWNFz9FygLWHQWEU+EJLLqwqAwJDxJkC74OGLHFrXV1dXHTpwZPGYczMBEj0anjRnr7O9vGxZixWXToE+9ofQFn12Qxq0RtZFW4ZFWkJBdyghfxuQtZXEjbTgqORsYajVzHnH0eDOPQXq2zp0oVjAcGW5Bdx3g5cdbnpghOX767IPHT97Vx5rtSzk9f/nq71Nn9sQljJ02HUezhhkaaxJJJl27YryGWc+eYxcYbBMaxgjjWoVBurZ5RS1kZRo3wpobwYTiDXiObI6trz/J28eoZ29NKsPA3Lr7gGG/b9h2/OTZFy9BBG3tP1fgpqkIAFHbVGRBv4BAUxB4/uz5+jXrzcnm2lo6fft4HNx/EDp42+H/lBZ/OHv6zLix3mQiiUIiQzEDJAqFREYhkCwGq0CZ3yBCr1+9juRF1ipaqCsixczUrEe3HufPXYC6qlPRdjA7lJZViHOkDj3cYHCkIcuWOm6cXVAAk8O25vJUztra4/nqcgxQYTBIzoZDYQYMbiSLG2nHXWoXFmEXyqUv9sdPnIIcOsLY1U3bygaGo2hhyJYO3Yb6TItcu1lW+NeN2/fef2hI3YT2aIt374tPnT27bvMf/Qd7YSiWMBO4Bp5o0q07YbQ3fe4Cu6BQFptLD+PRODwLLg+SttDvFZ9c5vV0xP6w2Wd9QhG0VrwIOuSgDXcI4zkGhTLnLsQNG6Vr7wwjWRLtXaYu8JNICx51vDp8DfoHBzRuRAJA1DYiTNAVINAcBB4+eLhi2QoSkaypoTlsyLBjR45VlLexnDiNhqmq+u2r15cuXMhITpk7YyadRsOi0CQ8gUIik4kkMpGEQ2NMjY0n+Uy8evlyPQctKy1TyBQe7h44DO6jOCZSCDgC3Bi+YO6Cj6HMQNSqaL55935PXIK1c1cYEq3v6GQxdYpNaDCTw7Hi8r68wtXFwFQhsxEsboQdJ8IuhMvyDaLOXoAbN9mk32AtG0eYOU3b3Jps59J70IgZCwN2RSf+7+SZJ/++aI8CtZ6bsY5mz56/OHT46IrV6/oPGU6kMmAYohaVadLLnTB2PG3uAnpAEIPNseaFU1X+8qbIZVvrgKfyIqy5ULY1yEEbwrFZsIQy1sekl4emla2xNav74OErN/xx5vylkjJwIqwOO4KXmogAELVNBBZ0Cwg0IYHbt27zwng4LE5XW3fihIlHDx/rgP7ayrLyqxcvJcXGLZ43v7drd3MiiUGjMa2syQSiOZFExhPIeAIBh0OYmhLx+KUR4bdv/bgkW2Vl1f+O/W/urLkWFEsijqj20ZIJZDQSQ7OgZaZlfmHU/0rbL37cIb558u+zNVu2URycYQSiQW83y7lzbMPCGDwencutvRgcdekErg2XZ8MOYwYEWc1fTPSZihg0zNDVTYNuBzO3MrW2tXP3HDdn4brtfyqKDl26euO1OnVah6DY4EU+evz00JFjqzdt7z9mIsHGGYYla1GsjLr3Rg4fYzl7PjOYTedwrbjhNG642jtO40Z+cfG+V1Lhu87aiNoswpCi5fAcwrj2/sHWU2cjPQbrMBw1KXRq196zAkIFuYr7D5+AX0gabFrwwK8RAKL21/iBpwGBFiJw/dr14MBgU2NTE2OTaVOmnz93voUm0hLDVlY+efBQmZMbuHhxNycnEhZjZW7er3cf/0WLZk6dSrekknF4kuoi4nB4DAZhYmzDpK9cvuzihfPV3z5e9P7du0MHD8+eOZthxSDiSbU1F/AYPA6DnzFt5uOHj79e7Ve69usfd4jv79x/EBS5Ak5jwEhkI3d3xuIl9lyeLY9nw+XacDi2HK5dGMeOzbYNDmb5+lKmz0COGGXUx0PbTuWapdLJLt37+0xlr96Qmi07de78k2cvOuwHDw3dLo+fPjt49PiqzTv7DhuLINFgCFxnItWwqxtylDd5zjzroBAbbgSLF8ngRdB5kdbcCCtupFWNuv2ucv2W5I2g8iJovHArLs+aw7Ph8OyD2Yy5i4gjxxk59ehMopta2nqOnrR1b+K5S1fqFfrc0AWD9oDAjwgAUfsjQuDngEBrJXD1ytUF8xYaGRqZIcwWzl9468at1jrTxpzXu1evjh04+Ftk5IA+fShYDB5p5urkMH/mjB2bN0ky02P+3D20vycehcSjUUQsloSDLhwaCTcxotOoM2dME2amX79+raTkUx6oqqqqN69fnz1zNiYqasyo0QQcAYOEzoSRVLqWiCOizdBuPdzyFQV1HMv7XNQ25irbWF+nLl7zWbBEm0CC4QhmQ4c5BQS5hoe7cDjObLZLKNspIIg5dx5p/Dh4//56Ll060axgZIoh1drW3WOyf9AOftqhv0/de/wUfE79c1Z/9PT5X4eO/b55R5/BI41xFjA4rpM5Xc/VDTNmPGuBrzOb58iLtIUOckXQORF0VZWvj17bhvlrVTloeeFQyeIwrl0Yz9Yv0NxnKtx9gDbDsTPWgurUa3HossKD/3sGSir8nCHBU41BAIjaxqAI+gAEWojApYuXp06aCjeFo5AodjC7fevasg8fLv1zLmrnDu/hw6gEHBZubGdtOWHUsLUrIjP58QV5WYWyHEW2eM3ySCcbBs4MTsCgiFgMCQddWJQZwtQIiTB1cbSfP2/O9u1bhYJMqTQvLzcnLTVl3dq1kydOdHZwwEMCGEXEEcgEEhFHJOFJBCyBTCBHcCPev6srvX+tqG2hDdBKhi2rrC48dtLD2wdmBO9MtaZ6T+gVFNwjMMhpwUKb6TPNR49F9Omrw2DCSGQ9Ko3k4Nhn5GjfyKUpWTn/XLn6pkEnwFrJglvfNJ6/fFN08Ehw5CrXvkPgFDoMRdKyZMJ7eViMm2y/yM8pJMyezWOxw9XSVuW1jaBxv+WR/fx1lXcW8vJCDloGl8dic2wCQljzFxNGjNWz79qJwkCzXPqPnrR1T8KV63cqQMBB69sbHWpGQNR2KHODxbZDAif+d2LShEnGRsZYNDacE3739t32t8iyDx9uXr8uTk9fOGuGPZ2GNjGwImEHe/Ri+y+I271VKkrLzxXm5wqUOYJCqThPlBa4eJ4jy5qINiNgkEQsmoRDk/EYIhaFQpiaGOojzeA0S3MXZ8febj3devZwdnSgWpqjzBBoMzMSHk+B8ieQKEQyHosn4ghEHJ6MJ7KDQx4/elQHWCBqa6C8Ly3PlObbufWFobDGTl0Yo0bTR43B9u1n4uisa83Ut2LgWXbd+g+c7uu/cfeegkNHbt27/6G0rOZp8HfjELh7/7E0/0BI5Kqu7oOQFIYG3lKHaoPo1Y86forNvMX2AWz7sHBWGJRQlg6JVEjX0r7tr6V9DDaAGjM5PCY7zCYohLXIlzxukqlbP226vb4F07b3gKCI34sO/Q0ctI1jQtDLrxEAovbX+IGnAYGWJlBRXvFX0V9jRo3R0dYlEkirf1v98P7Dlp5Uo41fVVFx/85deU5OBJvt6daTgkOZ45CevboELJixbf0KUUq0QpKqyEqVS5IVWdCNMie9SCYWJMf4zp/hbEsnYhEEtBkJi6Lg0RQ8pG7xGBQaiTCDmyBMjZFwEyTcBIUwxaDMsGgkEY8l4fFkAoFMJJIIBBwGY8NguDg44JAoWwZz1YqV165ebbSFtceOXr0r3hWfbOniqk00N7Bm6ltaaZLMDSlUq249R0+ftWLDZolUcf7S5WcvX4I0dE1n/4rK6tt3H0hy87nL1nh4eSMpDBiKrM9wRPTuT/GexFrg6xDCsVNVSWBwwq04kLStSZLwxQ0NqhAWTudBctYmjOMYxmEt8SX7TEIPGKpn6wIjUon23cbPXhKTLLx64w4Ig246g4KeG0QAiNoG4QKNAYHWSOBD8Yeign2DBgzu3Kkz1ZK2ecPmZ/8+a40TbeCc3r15c+TggeW88EH9PJiWFuY4TK8uDvNm+Gxbv1KUEiUVJSqy+HJJkkycKBMnyCWJMnGiXJKkzE4tyMtMT9wTtHiOq5MNGWuGR8FJWCQFhyKrXLZkPBSQQMShoQsLfVWHKKi/ErAYAgZNxuNcHO0XzZ/LY4f26+1mpKdLIhKD/AMu/PNPAxfRsZofP/3PwFHehjiyNgqHoTF6e41cEha+JyH52MnTDx49KS0r71g4Wm61pWWVd+89Kth3hLdifQ9PLyOSNQxN1qXamPYZSJsy02axn01giA2by+Bw1XmFa1ML03jhqqNgUOwsncO15fIcwzjOQSFOC5dQRo7Rc+yiYW6lR7bq0t/r9807/3f6/KvXdYXltNzCwcgdnAAQtR18A4DltxMCJR9KC/OL3Hq6aWlo0a3pW7dsff+2Df9nU1Fedvnihe1bt4wZOdySSMCYmjjbMCZ7j9rwW2R6wh6ZmJ+fnayQJCok8TJx3JdXvEycoMxOLsjNEKfGruAGDh/gbkXBE1BwIhpOwpiRcCqvLQFDIWAoeDQZjyLjUCQskogxI6ChC4dCWFmQBnn2DQ8LzkxNyssSblq7qle3Lrramlg0esHc2WdOn6oGtT7/874pLS373/G//QKDGXZONJbDKJ8pG7fvLjpw6PqtO6/evgeRlv8B1hwvVFRW33vwJL/oQAB3hVNPTx0UCYYmG7Kc4H36Ebx9GAuX2IawbXk8Bg+StlZcHq0mwTAdOg3GsWWHOYeyu/gH2kydgXH31KPbaOApBJbjpLlLshRFD588Ax735rAiGKMhBICobQgt0BYQaMUEyssqskRZbj3dOnfqTLeiJ8Ylvn3zthXPt+6plZeV3LxxTSRIXzBvNt3KEmNmSiURhvRzjwgJ5EfvkotT87NTFZIkhSRBIYmTi2Pl4hiZ6PMrVi6Ok4sTlFkp+6QCmTB57x/rFs2cPMTDrasdg2FOsCSgzXFmFBySgjUjYRAkDJyINiVj4BSsmSUR7ciyGtC31/xZU7ZuXC3O4OfLsooU2fJs4fpVK/r26m5ipI9CwOfOnH7k0IHysoYUuKp7re3k1arK6qdP/83KypkwYaIZEo0nmi9Y5Hfk2IlXr9ve9msnJvnPMm7deZCRpZjtz3bs4aGPt4RhyTpMB0S/QeYTp9gs8bUNCWaFsZmcMAaPw+BxGTyuLY/ryOE4BwY5zJlHGzXWrGsPDaKFAdGie/+hK9dvOXXuYnmdFRXUIeb/GR28AAg0GwEgapsNNRgIEGhyAsXvi9NT0p0dnDVgGl2cuvATk9uSrq2qfPL4oSwvOzQ4wK1nNwIOSSFiPNy6L5ozfdfm9ZLUpPzsTKUkRSFOVEoSlJI4hThWLopWXVFyUZRUCF2qb2PlojiFODE/K6UoN6MoNzMrNXbPlrXL2f7zp/t4e3l69nTp3dWupxOrhyOzpzOrhxPTo4fzyEF9Z/iM4gQu3L5pVXpSlFSSJstKV1+FMok8W7B14+rhg/uhzUwwSPi4saOUcum7t6CWPZT29+qV61u37nB39zA1RdBo1kuW+B86dLS8ok7V0+RvATDAtwh8KK24euN2mlg6P5Dj4OZpQKJ1Ilro2ToiPAeQJ0xgLJxvHxLkyA2z54bZc8Kc2KEu/v6MSVMw7h4GTDtDC2t6157TF/hmSvLuP3ryhYO29qxk7c23ZgBeBwSangAQtU3PGIwACDQjgVcvX0XvibZj2Wlranfv2l2YIfxQ/CknazNOpGFDvXj278H9RWtXrRzo2deCjCcT0K5d7OfOnLx57crU+L1ySbpMlKoQpypEfIU4QSGOr1G0kJyVCffKhHulqkv2UdfG1Oja5MKctH15mUU5GTIhX5i0N3bnhq1rl25YwVkdEbwqPGjN0tBVkcGbVkXs2bomJXaHJD1OJklRZKcpstKk4mSpODlPxFdkpxdKRYqczD07Nk0YM4yAMYObGA4bMlCQkfr61YuGrbN9tS4tKT1x4lRwUKitrb2xsamLS9dNG7dcvHipuC1sufZlivqupvhD2ZVrt9JEuQuCOI69PfUI5jAsQZfBRLj3sZ7k47JksWtIUNfAAObMGcShQ40cnDXxJDiVPtjbZ9ue2DPnL717/+U/JrVC9vOb+s4FtAMEGp8AELWNzxT0CAi0LIFn/z7bsW2HpYWltpaOZ19PWZ68ohUfTi4tKT5z6u+tm9aPGjaYTiVjzYztGNSJ40asWsHlx/2ZK0yWSVLl4hSpIEkmTJIJE+SieLkoVi6KUfto1Yr2y69qf61a1yYoxUlKCb8wO7UoJ7UoJy0/KyU/K0Uh5suEiTJholycJBMlysR8hYSvyEqWZyXLxElyCV8u4cvESVJRolT90+y0/DxBoUwUt3fbpPEj8Wg43Ei3n3uv5KS4N687qK598/qNXKqYNm0GhWyOQCAHDxqakpz6+PGTlt38YPT6EPhQUnb1xi1JnnJhUJht1+46KGwnDNbI1pbg6Wk30Ycxztu0e3dNcwsNHNHaudviYI5y34Gnz158ctCqQ6Q/F7K19/UZHrQBBJqMABC1TYYWdAwItByBx48eb1i7gUQg6evqew3x2r/vQMvN5ZsjV1aUX796JTkxduYUH1u6JRpuYGWOHznEcyknMGHvthwhH5KzkhS5mC8VJkgFCVJBvFQQKxfFKoSxCmGMQhgtF+6VC+q6hFGqBrEKUZxCGKcUxStECaorUS5KgAIYxEkqsZukhMJzoUsuTpSJEmSieJkoXiqKk4ri1PeqrwlyCV+RnVIoE+TnCRJidsybPdnakmBqqNO7V9f42D2vXj7/5iLb6Q+ePHqSFJ80bOhwLBpLJlGmT52hVBS8ffuunS63fS6rvKLq+s3b6aLsqXMX0h1dtNFYTRTGxIpuaM2A4QimFMsBY8fvSeBfuXYDpK1onzugPa4KiNr2aFWwJkCguvrRw0dLw5eSSWQjfaMRw0b+ffxEHVVeWwhUVUX5g/t3pTlZAb4LuzraEtCmlkRU3x7OfgtmxO3+I0+YrMxKg/LOSpLlYkhuyoXxMmGcTBgrE8bIhDFyQYxcEC0XRNWtaCGZG6VqALX8qG6FsXJBrFwQJxPEqq44ufCLS9V/nFQYKxXGSAXRUkE05A+GRlQ1E8XLJUmK7JT8vPRCuVCYER/oO4dFp5gYajk5sHZu3/Lo4f0WYtncw5aVll25dGXtqrU9XXuiECh7G3sum/v3/06UgMJgzW2KxhmvtKzi/MXLCcnpU2fPp9s66iHQBliibfdei0M5RYePvWyDh00bhwvopW0SAKK2bdoNzBoQqAeB27du8zjhFCJFX0/fZ/zE/x39X8vr2qrK50+fHthXsGJZuGffXmSsGRkD79XFbt70CX+sXSrg783PTs/PTlNIkhUSvsp7Gi8TxclFsTK1kBWqtWzUdxWt2nerbqNWt9EqjRutUsNqTRyj0rhqpav+GiMTQJda0coE0TXqOeajDhbFySWJimx+fl56kUIkyogL8p3jYEs10tdk0qm/r1x2/drV6pbnW49t8QtNXr18VVRQ5LvYz5pqTcQRPft67tqx++aNm+UgAe0vUG0Nj74v/nD+wqW4pLSZ8xZPn7coKoF/5fqN8k8BB61hjmAOgMCPCQBR+2NGoAUg0HYJXL96IzggGG4KNzI0mjRh0plTZ1pwLSXF708cP7Zlw/pRXoOtLAh4pLEzizp1/Ih1K8LS4nYqxPz8rBSlhK+U8BXiRIU4QRU7C4XPyj5q2boiDeoMP6jjRbXGrVW3dd9AWrbmqtHBUMuPGlcUKxfHy7P4yry0ApkgMzk6guPfvYudga4GhUQMCw26cP5cC+Jt6qEfPXyUnJg8drQ3Fo0jE8hzZs7JkeQ8+7fDhV40NecW7P/d+w8XL185e/7S85evW3AaYGhA4KcJAFH70+jAg4BAWyBQVX3p4qUF8xboaOvCTeBzZ829fPFyi8z7wb07/MS48d6j6FQLpIkhjYwd4+W5OjIkLW6HXFVMIT8rWSlJyocCXhOUojiFCIqaVQXOfj/SoP5Kt9Z3+zM3MkGUTBgtU+lamSRJkZOan5eRLUxa8xuvZzd7fV1NIh7ru3jhhfPtseRYVfXNG7fWrVnf07UnGomhWdAiuBFnT599/664RfYSGLRJCYBKGU2KF3TepASAqG1SvKBzQKBVELh44eJ47wkG+gZIBNIi5t+AAAAgAElEQVR/if+1q9ebbVqVFeWPHt5XyPPCQgO7d3VCmRkTMEj3Hl38F8yM27VJIUnel5dWmJuSn5WklCQqxfFKUXw+dBQsRgEd9oKubwfO1l/ONkrLKJkgSiqMgfzH4nhI12an5uelS7NSN6xe2rd3NzNTQwIWtWjB3NMnT1RVtJ96sO/fvf/f0f+FBIbYMm3RZmi3nm5bt2y7fev211tIff7961fB94AAIAAINB8BIGqbjzUYCRBoQQIn/z453nu8vp4+Bo0JDQq9c/tOU0+mqrLy8cMHRfmKlcsi3Ht3J+NRFiRsz66Os6dO+GPdSnFKTH5WSkE2H0o6K4pTilWXSs4qVZkNWpmihWSxTFXf4ZO/Vpwoy0rOz8uQ56Rv2fDbsCH9MGYmODRi+uSJh/YXlZV+mdGzqXE3Tf9PHj8RZgh9xvmQCWSqBc1nnE9aclodIQcgo1PT8Ae9AgKAQIMIAFHbIFygMSDQVglUVVYdPXR01IhRBvqGeBx+5bKV9+824YH9D+/fnTh+dP2a34cPGWhtSUKa6jvbM2ZOHrduZXha/J9ycUpBdmoB5J2NV0BJBqLzRTEKkSrYAEpcoL4axb3amJ2oSjyo65bV+GvFifKslAJppiwrbceWNd6jhpCwSDNjowljRyplOe/ftOHAxKpKKORg+9bt/dz7ocxQTDozKCD44F8HX7/6z6JqFS343Lqt/vMA5g0ItBMCQNS2E0OCZQACPyRQXlq+f9+BUSNGa2tpm1PMVy5b+eDegx8+1dAGleXl165cjoveO9lnHMuaikUaM6mkUV6ey3mBybE7ZcLk/Ow0ZVayUpyYL45Xij/Gziqh8NnWE2lQtxSuqVsGBdfKRR/ja1UpEZLzc9Nl2WnRf26Z5D0Cj4QjTQyHDfTITEl8/+ZVQwG2hvYVZRUnjp8MCwlzcXRBwpEuji5rV6+7dP5SaUlpHdOrFbV1/Ay8BAgAAoBA8xEAorb5WIORAIEWJ1BWWrZ/3wF3N3cYDGZBsdiyccub128acVZPHz+W5+T4LpzvaMvCoxGWZJzXgD5s//lRO9eL06IV4mRVZoMkpUh1FEwYqzoN1tpiZ+tWtKrwg4/FeKXCvXKRum4ZFF+rkCQqsvjK3FRZVmrUzo2zJntbEFEmetq9uzumJcUWv21juvb9u/eFysLJEycTsAQCjjBy+MiM1Ix79+5XgQRPjfhWAV0BAoBAExAAorYJoIIuAYFWTKCstCxLlOXazVWjk4YN0zY+Nv79u/e/Ot+q6hfPnu0rLFgRETGgrzsRg8QijHt0sV8we/Ke7euyMuLkqjIK6rJeUH0vYVxtVbBWGDv7raNpNZ5aSNrKIF0L+WsVYrWuTZBnJcmz+PKslIzEPxfPmWhNwRvrdOrt6pgUs/v504e/SrhZnq+qrL5/934iVCpsGMoMRcQT586au79o/4fi9hAf3CwIwSCAACDQkgSAqG1J+mBsQKBFCBS/L85Iy3Dt4qrZWdPJwTktJe1XdO2b169OHD++dfPGYYMGUvBYIgbpyLQaP2roqmVhGUl7FVkp+TkpSkmSKlFXvEIIKdqaIgiNlavrm77Vb8nTn3v9c1Fb46yNkos+xtfKxQkKSVJ+Tuo+WWZGwi6/uZPtrUmmep2dbenbN62+d/tGi9i6/oNWlFWcP3t+1cpVXV26IRFQyAGPwzt94nRZaVn9OwEtAQFAABBoQQJA1LYgfDA0INBiBN68fsNP4DvaO2p01ujh2jMjLaP4fYNzjlaUlV26cD4uOmrm1Mn2TGsswoRpSRk7bNBSdkDcrs05mfHK7BSFqpKCUhQPpZ6F5GzsZ0VuW3sQ7Vfa9ytRK/vMX6vKXxtXo2tT8rP46XHbw/xnu7AsDDRh9nSLNSsjbt242mL2/tHAb16/3Vewz2+xH4vOwqKwA/oNiPoz6ua1mxXlFT96FPwcEAAEAIHWQgCI2tZiCTAPQKCZCbx8/nLPrj00Kk1LS9u1i6tYKK4sr6z/HO7fuSPKTJ85bbKzvY0lCcekkof0680NWBy7a3N2erxCxFeKIe+sQpygFMergg1q5Wxtqdtm8rB+pU1/+lsZlNXrv1fUp/haqKJvPLRkSWJBNj8rLWoFZ4mLDdVYB0Y3J7MDl1y+eL7+hJut5eNHjxPjEwd4DqAQKZbm1FkzZsvz5M/+fdbei/42G2AwECAACDQTASBqmwk0GAYQaIUEnjx5+sfmrWQiWaOzhoe7R1F+UVU9ZO27V6+OHj7ICw3u2c2FgEZQcMh+vbqF+s6L3bk5JyMxPzstX5KsFCXmi+KV0FEw6DSYXPBVuq425qP9gQ4W7pULo+RQAocYSL5D0jYuPytxX16qTJiwOjKwdzc7M0NtLBo5d+aUf86eakU7oar6xvWbm9Zv6talm46WDs3SihvGPXv6XMmHklY0STAVQAAQAATqRwCI2vpxAq0AgXZK4OmTp6tWrqKQKbo6uiOHjTxy8Oh3Flr89u2ZEyf+3PaH9wgvGplARMN7dbGfM2Xcpt8jRUlRBdlphZCiTcoXJeSL4vOFMfnCaIUgSgHlnd2ryj7bxlyzP9Cy0KK+uqJV8j1GLoxRiOPzs5L25aUpJPzNq3le/XvCjXVNjA3mzpxy7Mih0pKWP3pV/K747//9zWVzbZi2SASyq3PXjes23rh+Azhov/MWAD8CBACB1kwAiNrWbB0wN0CgOQjcv/dgeeRyAp5gZGjkPdr71Ik6XIklxcXXLl1KiomZOWmiA8OKhEI40Knjhw9aHclOjd2Vl5GoECWpvLOQgzZfGJsvjFEKopSCvUrBXoXq+o/++0oOtptvo9S6FnJRi+MLspP+kqYrJPydm1eOGuJuZqKHNTOZNGG0QppT8uGXk078wu54+uRfYaZw4oRJluaWFCJlgveE1OTUx48e/0KX4FFAABAABFqYABC1LWwAMDwg0BoI3L51m8fhoZFoI0OjST6TTp38pGurKqtuXr+ekZziO39+H9du5lg0lYAZ3t+d678weuuGvIzEfEmaQsRXCNXe2dh8YaxSEF2raGt1bYcRtWqfNBSKANX+lcQXZPOL8lLzc1Jidq73GTOYiDYxMzEc4TUgN0vUUrr21o1b2/74WCqMYc0IDQo9fOBw42Ysbg27GswBEAAEOhoBIGo7msXBegGBugncvHHTd7GvqYmpsZHxvNnzLl24WF1dXfqh5K+CokBfv+4uLhQclkrE9evR1W/u9D1b1or5MQphcr44WSFKUggTFMI4pSreQKVoIQft55fi64/p241f9lsLiVIIoxWiWKUoTilJUPtr90nT+TFbZ0wcRcaZIYz0Pd17CNL4H941ZvGLuk372atVlVVnTp8JC+U42TthkJgerj02bdh89fJVKG8XKHL7GShwCwgAAm2RABC1bdFqYM6AQJMQuHTh8uwZsw30DNAodICvnywv74+NG4cOGEjEYjFwUxc71rQJYzaujBAk7pWLkqH8Bh/lrLqYQoxSGPWVg7bWTdvxRC3kr4WctaJYlb82Qe2vLcpLS4vfOW/6OAsiSl9bo5uzPT8+6vXL501izv90WlZaVpRfNGPaDBKBjDJDeQ0Zlp6a8ejRY1Aq7D+owAuAACDQJgkAUdsmzQYmDQg0CYGq6n/O/jN18hR9XV0sBtOvjzuVQkHDTZlWlqO8Bi7jBidGbc9JT1CI+HJhokwQLxd8kXdWHTurqPHR1n7bIRWt2oOrDkJQxyEk5GclFeakFEnT0xN2LZk7mUkjG2jDXJ1tondvf3jvTpMYtKbTyorKe3fupaemew32wqJxVAva7BmzC5SFb9+8BQ7aGkjgb0AAEGjzBICobfMmBAsABBqTQFX1yb//tmEwO8NgGATCkkzq37d3sN/C3dvWZ2cmKiQpclGSTBAvE8TJviij8OlTeKBlP48ehooAi6KV4s90bW5KUV5aRuLuoCUz7RkUhKFGVwfmhjUrH9y93Zh2/KyvspKy0ydPr/l9jUcfD5QZqotz1xXLVpw+eaa0pPSzVuAWEAAEAIE2TwCI2jZvQrAAQKBxCVSUl48fO0ZfW8vagrJg9oytm9aKMxKlklRFdopcnCgTxcsEsTIBlHpWlaWrjoyzHSzdwSdB/7mcrb3/StcWZCcV5iYX5KYI+H+Ghyzsak8z1unMopmviAi7feNa45qyurq6pLhEKVNOnzqDSWfiMfiB/QfG7I25ffM2KBXW6KhBh4AAINDiBICobXETgAkAAq2OADc02NRQz45pFb17qyJPpMzNVGSnycRJUlGcTBQrg+TsNxVtrZgDN58R+NxfG1+QnViQwy/ISc5Kj167PLSHE8tUrzOZiAtYPO/CP2cbZzdUVVdXVb968SolKWVg/4FwUzgei5/sM7lAWQhKhTUOYdALIAAItD4CQNS2PpuAGQECLU1g767tKLiRJRm3Y8va/fnZkKKV8KWiBJWojZEJo77lo/1Mxv3Af9kBW9bEIcQqJVBKhPyspPycZJk4ae1ytkdPJ1MDbRTCZNHcmadPHK+urEdht+9ukrKSsssXr2zasMm1iyvcBG7DtGEHs0+dOFVeVv7d58APAQFAABBowwSAqG3DxgNTBwSaiEChQmpJxqNM9TnBi/5SSvJz02TiRKkovkbU7pVlQlcHFKa/tmTIX6sQxSjFsQoohW1ifhY/PzslJzNu4yre0H49EEa6BDR8zvQpx48crq5PweJvmL/4/YfDBw4HBgSx6CyUGaq/R/9dO3bdvHYTZDn4BjDwMiAACLQTAkDUthNDgmUAAo1I4MrFf3p0czTQ7jzNZ2SBNLMgL00mTvhS1O6RZe75NYXXETUxFF8L5a9V69p4pSRRmZWkzOLnCRJ2bFwxeogHwcwIh4DPmjrx4L6isp8opVtV/ezfZ2KBeMrEKZbmVAuyxcQJEyUiydMnT0GWg0Z8g4CuAAFAoHUSAKK2ddoFzAoQaEkCr18+8/Eepd0J5tm7S64oqUiW8YWoFeyVZQJR+5OiXKVroz7TtQlKSVJ+dopMzI/duXHi6CEkNJyEQQwbNEAiyPjwvgGldKsqq27duLV1y1b33u5oMzTTmhkcEHzk0BEobxf4AwgAAoBAByAARG0HMDJYIiDQQAKVleURnBBdDZgdg8KP3b5fIVSHH8hEcXJRjBwStX/KMv8EntqfIPBR1ArVeb5ilZKE2jiEorzMpL3b5kwdTyWiTfR03Fy7pPGT3r2pV8mxqsrqUydOBfkHMa2ZxobGTg7OWzdvvXpFVSqsgdYHzQEBQAAQaKMEgKhto4YD0wYEmpZAzN7dcCNdMs504+qIv+RCuSRJKoqHRK0QiNqf9NGqFXCNqFXnQ4hViFVBCJIkpYRfkJO2TyrMTIpePHsq3Zygp9G5RxenhOioZ0+efN/Yb1+/LVAUzJ45m4gjmhrDB/QbEB8TD4UcgD+AACAACHQkAkDUdiRrg7UCAvUmUKiUWZCwZsY6QUtmFeZlKLKSgaj9Cb/sfx/5JGqhugwxCnGcQpygEENBCEoJvzA3/S+5WMCP9p8/g25BNNLR6Opot33L5iePHtZpusqKyls3byXEJY7wGkEmkK2o1jOnzZTlyV++eFlne/AiIAAIAALtmAAQte3YuGBpgMDPE7hy6XxPV2c9rU4+o4fIs1Lyc1KBqP2vQv2JV74QtcJouShWLopTiOMV4kSFOEkpSS7ISS/ME2Qm7uUGLHS2sTLW1bClW61aufzu7a9LjpWXlp89dTaCF9G9Ww8MEuPaxXXtqrXnzpwrLv7w84YHTwICgAAg0GYJAFHbZk0HJg4INCWB1y+f+4wbrdkJ1qe7oyQjrlCakQfCDwS/FHigVsBfiVooGYIwRg4FK8erXLaQrs3PTi3MycwT8Ffygp1trfU0OpmTSOHs0FvXr9favPh98b7CffNmz7MgW6DN0AM9B/ITkx/cfwDydtUiAjeAACDQ0QgAUdvRLA7WCwjUi0BlRTk7OECjE8zKAhe3d8s+ueCjqK05KCYXgJReP6NxvxS1UQqokkU0dPwOctnGK0QJkL9WzC/MhuJrpcLkFdzALnYMXc1OBBw22N/v6uXL1dXVxe+L01PSx3uPJ+KIWDRu4oSJedl5r169rpdpQSNAABAABNopASBq26lhwbIAgV8msHf3DgNdTYSxztrfuIWyDCmUqjZOJoqRCUH2g5+Rs195ar8IXVD5axXCWIUwXilKUIqS8sXJBZLUfXmCPAF/zdKwPq5OhrpaWBQyyM93X2Hhn7t29enVm4Al2LHsAv0Cjx87/v5dA5J//fLWAB0AAoAAINAaCQBR2xqtAuYECLQGAn8V5ROxSF1NmN/C6XlivgxKgABE7c/L2e+JWiiwIVouiFYIY5XCeKUwIV+UlC/iF0hSi3IFCkna9g2/D/bohUGYkPGYwf09bVksAhbf38Nz+x/br129VlFe0Ro2DJgDIAAIAAItSwCI2pblD0YHBFovgXt3bnZztteEwUZ79RekRCmy+EDUfuFe/akQW3X4wTf6iVIIopXC2HxhXD6kaxPVuvYvqWhfnmjHht8njBpKwaERRga6WlpeQ4YKMgRPHoO8Xa33HQRmBggAAs1MAIjaZgYOhgME2gyB0pIPE8eP0YDBXJ1YSdHblDkpalErF0XJBXtA8YVvCNNfcuUqBFFKQUy+Steq/LWJ+WJ+QVbqvjyhXJy2d/tGT7fupga6WBQyhZ/86tWrNrOZwEQBAUAAEGh6AkDUNj1jMAIg0GYJrIjkacJglkTU9k2/FeSlycTxMuhIU5SqqBg4KPZL+rVOTawStdFKQYwSikOIUwqh+FqlmK+UpBbmCqJ3bHLr6ogw0hs/dvTTx4/b7LYCEwcEAAFAoEkIAFHbJFhBp4BA+yCQnpxoqKOJNtX7LSI4PzdNLklQidroOgUZePHXCSgEUASC6opRnRuLUwgTFKIkhSQ5NzMpcOEsChZhRSGkJMVXVVa2jz0GVgEIAAKAQGMRAKK2sUiCfgCBdkjg9N/HyDiUiZ6m34IZsqxkRVaSDMo8FSMXQM5acDUBgY+iVn1oTCGMUwjjFaJEuYifuGfr4L49MKb640Z6Pbz7dSGGdrj5wJIAAUAAEGggASBqGwgMNAcEOhKB508f9enZTV+z07iRgyQZ8cqcFLk4DojaJtCy6t8QolS/LUTLBTFyQYxa0UIZviR8ZVbqb7wghjmORsLu/GNjZUV5dXVVR9qJYK2AACAACPyYABC1P2YEWgACHZZARXnZ3JnTdDRgvbo5pCbsLshLk4sT5MJY4KltAl0bJRNEyQTRqitGJoiVC+LkqtiDwpw0SVqs97D+SCPtQR5uF86eVG3IyuoqoGs77FsTLBwQAATqIABEbR1QwEuAACBQS2DjutUGOpoMGunPbesKpQK5OFEOfSYOwmobPfoCUrTSj1eMVBArFcTJhAlycVJ+TvqmVRF0cyzGVH95eFjJ+zcq6wBRW7tJwQ0gAAgAAhABIGrBPgAEAIHvEcjJEmPMTHEok5WR7CKZUCHhK0TxCmFME7gqG10mtq0O6xK1ogS5hC9Oi502YQTCULO7s+2BQkV1VWV1teoCntrv7VzwM0AAEOhwBICo7XAmBwsGBBpE4NKF8/YsurGe5uK50wvyMvOzUxRiSNQqhOCsWOOKZrWojZEK1FdsniBOKkqUZ6VsXhPpyLLAwPWDfRe8fv5EZb5KEFPboG0MGgMCgEBHIABEbUewMlgjIPDzBF6/eOE1qL9WZ9jY4QNlkpTCnDSFKAGI2iZwVNeK2liZMFYmjJMK4/NEiYKUqEljhxrp69gzLGXZwuoqUBH35zczeBIQAATaNwEgatu3fcHqAIFfJVBZURGwZJEmDDorlp645y+ZsEbUgrDaxvTUqk+JSQUxMmGcTBQvEydIxYk5woQt65Y5siy1O8OmTRz776N7KnOC82G/uqvB84AAINAuCQBR2y7NChYFCDQmgb27dhjr6dAtCDs2/X5QKYGO5AtjVWG1IAKhcXStTLBXJoyCTokJY2SiOLWilUmSBClRC2dNxKOMiBgEPz6q6mMmLyBqG3N7g74AAUCg3RAAorbdmBIsBBBoKgIHigrNCViUqX5kqO8BhVghSlSlUAUlGBpH0UI1h4V7pcIoqTBaJoqViuJkkkSZJEmenbJn+7p+bi4IIy3vkUMf3r2hMjBQtE21z0G/gAAg0NYJAFHb1i0I5g8INDmBOzeuu7l2MdTuNHuyd1FuplKcJBfGyQXRIFttY0XWqkWtTBQjFcVKxfHyLL4yN1UqSQ71n2dOMCNh4Ulxe1Vu2mooNy2QtU2+5cEAgAAg0CYJAFHbJs0GJg0INCeB969fTx7vracBG+zRMycjsSA7VSaMl0NZvUD4QeM4a6HYA2GUVBSbJ4qTihMUOclFCkFC9NZBHj1MDTSG9Hd/dF9dFxfo2ebc+GAsQAAQaGMEgKhtYwYD0wUEmp9AVUUFLzTEQKuzI5OauHdbUW66StSCumKNo2jlUCExKPZAKorLE8VLxYnK3LQipYgbusiCiCRgTLdt2VBVCZIeNP/GByMCAoBAGyMARG0bMxiYLiDQIgSid+9Gmxph4YbrV/KK8jLlooSaumLAWfvr0hZK5qWKPYDctDJJUn5ehiAtdujA3kb6Gp59e104dxoyOii10CJbHwwKCAACbYcAELVtx1ZgpoBAyxGQ5eZQyUQtjU6BC2cV5mYoJKqwWlGsDIpAALr2F3WtKkOtMEYKxR4kyiTJ8uzUNb/xLMkoFMJoWSS35MP7lrM8GBkQAAQAgTZDAIjaNmMqMFFAoAUJnDt9qouDHQwG8xk9VCZKVkj4cmGcTBgDuRiBqBU0pqiVZ6VkpkSPHzPEUE/DxdGmQClrQbuDoQEBQAAQaEMEgKhtQ8YCUwUEWozAsydPhg8ZBIPBPHt1FfKj1KJWVdA1WiaMkv2qqvtFUdjWH//aU7tp7TKmNblzJ9jcWdOePX3cYlYHAwMCgAAg0KYIAFHbpswFJgsItBCB8rIy/8ULYTCYPd1i79a1BTmpclE8ELWNlNKrVtTGqwouRM+eNs7USBuFNE1P5YMjYi205cGwgAAg0PYIAFHb9mwGZgwItAiBnVv/0NXSIKJMfwsPLsxJl4sToJquIPygEbzUUXKokFhsnig+T5y084/VvVwd9HU6jRnp9fD+nRaxNRgUEAAEAIG2SACI2rZoNTBnQKAFCOzLV2LMTA21NXznTZNLUqSieKimKyjB8KuiNkohjJaLYuXieKk4SZweu2TBdDIeScAgUpLiK6G6uOAPIAAIAAKAQL0IAFFbL0ygESAACNy7fcvBhtEZBpswakhWRnyeEIjaX4/lhTLUykWxCnGcXJygyE6J2rmxd3cnU0PtkV4D/336COw6QAAQAAQAgfoTAKK2/qxAS0CgQxMo/fBh5LAhnWAwT7euGUl/yiVJak8tyH7wC5G16gy1sZCilfAL8jLCghbikEZ4tGnMnp3VoB5uh37DgcUDAoBAgwkAUdtgZOABQKCDEqiqCgsJ7AyDObGo8X9uLshNlQpjpAKQ/eBX/LXqaFrITZufkypMjfEa2NvUQHPIgL43r16CthkouNBB32xg2YAAIPAzBICo/Rlq4BlAoGMSSIyL1tfSMMchNvzO/ShqhdFSYZRM+CvCriM/GyUTRstEcXJJkjwrddWyUGsLHAFtumnd72WlJR1zj4FVAwKAACDw0wSAqP1pdOBBQKDDETh5/CgZhzTR0/SfPzU/JwXy1AJR+wsHxWSCKBlUSCxeJknOTI4a5dUPaaLTs5vj30cPqvZWVYfbYWDBgAAgAAj8AgEgan8BHngUEOhgBN6+ftHXzVWnE8x7WD9lVrJUEAtE7a8E1MpVbto8UYI8K2XD6ggmjYhGGIQGLnn39lUH21lguYAAIAAINAIBIGobASLoAhDoKASqqubOnKoFg/VysZGkRuVnJ8lEMSD84Kd0LZT3QCaKhTKjiRPTE/+c6D0MYazjYGMlz5WAI2Id5Q0F1gkIAAKNSgCI2kbFCToDBNo7gdUrl2nDYFZkdMzOdfukaUDU/pSi3SsXREFn7ERxMnGCVMxfu5JrS6fAjbTnzpzy76P77X0TgfUBAoAAINAkBICobRKsoFNAoL0SEKQlmxkbII21f48MPqgUysWxMlE0OCjWUGkrE0RBEckqN60wJWraxFEIY20GjSJI44OCC+31vQPWBQgAAk1NAIjapiYM+gcE2hWBc6dO2DFoOhqwBbMmHiyQKCTxMlGMTBjVUFXXsdtD6WnzhLF5wrg8UeLubWt6udob6XWaPH7MkwegLm67er+AxQACgEBzEgCitjlpg7EAgTZP4OW/T0YOHdQJBhs2oHdhXoYyK0kmilXVXwC6tp65yaBoWqkgJk8YmyuMyxEmBC6ZRcbBsUjjpNgo4KZt8+8QsABAABBoOQJA1LYcezAyINAGCVSWlwf5LtKAwbrYW4lSovNzUqDAUEG0XABEbX1EbZRcGC0XxshUblqZODEhasuAvq5GuhrDBns+BdG0bfAdAaYMCAACrYcAELWtxxZgJoBA2yCwffMGI10tKhm9d/u6grw0IGrrHUqhUrSiWNX5sHipKEEmSeaFLqaZY4hYxJ6df1RXVbaNHQBmCQgAAoBAqyQARG2rNAuYFCDQignkiATmBAwOabSMG1gozZSJ46GD/MBT+4MqDFDUgbxG0coliYqs5LSE3UMHuCGMdYYMcL928VwrtjmYGiAACAACbYAAELVtwEhgioBAqyJw9uTxro42xnoaMyaNyc/LVGTz86DSYlGyH6i6+nw6317bqBStMEYuilOn8VJk8eVZycvDA2kUDMbMaNWKiLKSD63KymAygAAgAAi0OQJA1LY5k4EJAwItTODfR/eHDfbU6gzr38c1T5xSkJeWCx17ipZCORBAZG2duhxKdwCdqBPFycXxUlG8PDtZmBYzbFAfYz3Nbs52B4qULULJ5jIAACAASURBVGxUMDwgAAgAAm2fABC1bd+GYAWAQPMSKC8rXTh3lgYM5sCkZvCj/1KIcwSxuYIYqRAEIdSpaKFSC7WiVlVtISFPnLRp7VILEtJQt7Pvwjkvnj5sXhuC0QABQAAQaIcEgKhth0YFSwIEmprA5nVr9LQ6EzGIP7dt2J+fnS2IzxXG5QljQGRtXYfGIAe2StTGqastyCRJGfw9UyaMMNDRsKRgxZkpIJNXU+9Y0D8gAAh0BAJA1HYEK4M1AgKNTCBPIsKamRjraUaGBRTJxdmChFxhvPRjwtpveSs75uvqkIxomSBGJorPE0E+2jxx0h8bljvaUHU1YT7eIx/dvdnI5gHdAQKAACDQIQkAUdshzQ4WDQj8GoELZ0/b0qm6nWEzJo2VZaXliZLyRAlQwKgwui5XZceUs+pV/1975wHVRPb98ZeEGhJCJygKihXUxQLq2iuKioi9o4K9/uyubW1rd9VdVwXpVUhCEUhCsffed+3SpPeaNv9/GB2GgIgdwp0zR9/MvHLv58Zzvuf53n1ufHkS31MxoR4xFYfixoT7h4d4LXCZaqzPaNncJNDXUyIWfV00oDUQAAJAAAjICYCohd8BEAACn00gNzN9pN1gKkIDe9uE+LvHhPlH83wqRO0pELVVCZBFrXc014cfHuh18s++PTvrMTUmODlkpCR9Nn1oAASAABAAAjURAFFbExV4BwSAQK0EpGLx6uVLEUKWrZv/c3g3PzyAJGohAQJ5Zvq9qOVzPGM43lEcnyiO77oVC1o0NbRoZuJx4phMKqmVNHwEAkAACACBuhIAUVtXUlAPCAABMgGPk/+oUJCpsc62jSuJmdqY0FMVWb1A1xK6Vi5qBRwPPseTz/Xh8/wDPP4eOaSPsY6Wo/3QN8//JSOFMhAAAkAACHwNARC1X0MP2gKBxkvgQkKssT5Lj6m20HXaGa4vP8y34rzcUxVLSEHUVhe1XoIw39iIoN/Xr2jXomlLU+Mj+/eIReWN9wcEngMBIAAEvjUBELXfmij0BwQaB4E3L/7r9ouVGo0ybvTQsNOewgh/ELVVV9N+2CjGOSWfpuV4CcP9I4I9Rw3ta8BUHz6o75O7txrHLwW8BAJAAAj8IAIgan8QaBgGCCgZgbLiwoljHSgI9e1pHeh9LPZMQDTHo2L5gTucK0aoW3niXu4p+RY6rrcwPGD/9t9amRoasTR3bvmtvLRIyX4S4A4QAAJA4OcSAFH7c/nD6ECgwRKQSbduXKtCQR3bmp04sjsuKjgq1FPA8YTlByRFe1Ke44x7is+Trz3g+J+c5DhMj67SrWP7i/GxGCZrsLEHw4EAEAAC9ZEAiNr6GBWwCQg0CAIhAd5MDZqZid7OzavjooKjOV5CrheIWlzUxoSe5HPk07QCngef58UP8z248zfLlk10NVUWzpmVk5bWIEIMRgIBIAAEGhABELUNKFhgKhCoXwQe3Llu3tTQQFt98dzpMWH+fJ4Pn+MBopYfepKsaIVhXsIw31Dff2ZNHq2vpdLWvCk3yF8qFtevWII1QAAIAIGGTwBEbcOPIXgABH4SgYKcjL49uzLVKeMchkTz/IThfrCmlqRo3QU8DwHPUxjmIwz3P7xnc1crCzoVTR8/JvXt658UMRgWCAABIKDMBEDUKnN0wTcg8F0JyKRil5mTtVRRvx7W4ac9z0YF8zkeAg6eqpbIadW4CjGhJ2M4J/lcNz5XLmqFYfLVtJEhnotdp5no0s2MDUL8fOBc3O/6s4TOgQAQaLQEQNQ22tCD40DgGxDYt2srU4Ni1drU+8TB8/wQPsezsYtazslouaiV7w8T8DwFYd7CcH+PY/uH9LM11Nac6OgAq2m/wc8OugACQAAI1EQARG1NVOAdEAACdSMQFhLI1mc0MdDavXXtBQFXnruqkc/Uck7GyKdpT/G5HgJ50gOf2IiADSvnWzQzsGjGDvDywGSQ9KBuvy2oBQSAABD4TAIgaj8TGFQHAkCARODBnVsd2poz1alLXKdfFIbxed5yPRfaeE8Ui6nIeMDnelTkppUfuBAWdGrkkF56Wqqj7Aa9g9W0pB8PFIEAEAAC35YAiNpvyxN6AwKNi0BORvqwQf00KGj0sP7xUaFxEQEVCRAaraiVL6Xlcz34XE8+zyuG6y0I99+7fb1FM4NmbL1De3dVJD2AmdrG9W8EvAUCQOCHEQBR+8NQw0BAQAkJSMTixfNcNajI2tIiIsTnbPRpAdezsc7UuskdxxUtR77wQBDmd9rn+NhRg1matP69bG9du6yEvwBwCQgAASBQbwiAqK03oQBDgEDDJHBo7x6mhkpTI5b73/vPxYTIF5Jy3IlTtRpNoULRhrrzOZ58jpeA6x0b7h8bEbh327p2LU10tdTWrVxWnJ/TMCMMVgMBIAAEGgYBELUNI05gJRCotwS4p4ON9VjaGrQt65YlRJ0WhnlXT4AgCD1Zx7vBimC3ilMnTsnzP3C9hTzf+MigiGDPKU7D9bRULFs1P8MLwWTSehtEMAwIAAEgoAQEQNQqQRDBBSDwMwncvHrNsnUrdQpynjyGH+YfFxEgkGerdScWIeByVhh68pM3XrNh6tpKUcvn+QjC/GMjgv7at926nbkmFTlPHZ/1LvlnBgnGBgJAAAg0AgIgahtBkMFFIPA9CSS9eWs3aJAaBdkP6hMZ4ptwJljI9RZ8OC9XEOomCHX7pJzFKzR0USv3muPF5/nERgSFB3m5TBtvpK3RzFifF+wnk0i+ZxCgbyAABIAAEMBA1MKPAAgAga8iUFpUsnDuPA0q6m5t5ef+99mokFier4DjyQ89JQh1F4S6C+Wi9tO6tiEr2pP8ULeYigW1Aq63IMwvLvL0P4f+6GHdnqVOnTRmVE5aylchhsZAAAgAASBQBwIgausACaoAASDwcQIyqezg3v0qCJmxDQ/u2no2ihMXFiDk+gg4XoJQD0HIKWGIuzDUPZbjLqztdhNw8L1WDfRYXTc+55SA6yXg+gjDA/i8wGXzZjYzZLUyZQd6ncKkME378R8QfAECQAAIfCMCIGq/EUjoBgg0YgLhHJ6WujpDVWXt8kUJZ7hx4UF8jg8/1FvA8RKGeglDPWM5nrFcT+FH7liel5DrIeB68DnufI5bDOdkbXdo/VS98lPEBDwvYZjfuWhOwKm/7fr2MGJqjh9ln/rmZSP+aYDrQAAIAIEfRwBE7Y9jDSMBAWUlcO/23RbNmmlQKbOmTIjhBp+L5p6P5pyNDD4bGRQf5i/k+gg53hW5rjxjOJ7yGVyeN34LeT6xYb6x4b6xYT7CMC8Bz1PAO8XnukVz8PtkNEfxjuHI/6+/zvcPUsDyjXFyUesdFxFwURC2adXiVk2NmhvqnTzyp0QsUta4g19AAAgAgXpFAERtvQoHGAMEGiSB3KycIQMH0Siot02XjauWHdi++fiBnZ5H9wa7H+X5nIg+7ckP9eZzvIVy/eqfEBl4NiroXHTw2aigs1HBCZGBCZGBcREBcRF+seHeAp4nn3sqhuv+MV0rP4dWLmrd63D/oPUMMaEn8YPEKkRtYFSIr6PdAAMt9SF9ev17716DjCgYDQSAABBogARA1DbAoIHJQKCeEZBKpAvnzUcIGemwLC3Mrdu26tvtl4Hdre1624y16+88buTc6WP/N3/GplUL/9i08sjuzaf+2hPk8RfH70RYgHtksEdUqDef6xsfGRAXESCUT9l6x0X4xob7CMM8BTwPPvfUB4Ern77lc93lW7JCT+F3RfowD/xP+dY0eTYx4hEXvjVO636zGdyY0JNynS2fpvUUhvnFhgUc/mNrx9ZmzQx1d27eVF5cXM9iBeYAASAABJSWAIhapQ0tOAYEfiSB4MDggQMG9LSxMWtioqWqYmqgZ9GUbaRNN2ZpGmkzjHRZpob6rZsZW1mYdrVq1bd7p+EDejrZD5g61t512tiFsyatXjR7x2//O7jzt2P7t7od2eXv/ifX/3h4sNuZkFMxHE8+10sudsN94yP8zkYFxkf4x4X7yfMMfLjl+9K43vJ0WhWneb1/z/ESyFc74Br3lIDjTrrxfWlfK20/KFp3Ac9DwPOOjwwKCzg11WkkW5fRr4ft9YsXMJnsR0YBxgICQAAINGYCIGobc/TBdyDwzQhkZ2ffunHrTETkKHt7hoZmz2422zZvWr9q5VznGRNGj7YbNMC2i3Ub82ZsPW0duipTXVVLU12bQddlMQx1WYb6uiZGBm3NTazbtehq1bKHddtBvbqMse8/c+KohbMnrlkye+uaRXu2rDr8x0b3o38Eef4VFuh+JsQrmuMTGxF4Ljr0kjDsSlzEBT4nLiJIGB4gv8P8hWH+sfLbT76iV357EdvUKmSugsYl690q5U8s3q2YOeZzPSq2iPkKwwIO7txkZdFMl662dvmy4tzcb8YXOgICQAAIAIFPEQBR+ylC8B0IAIG6EZBIJCXFxWtXrdbSoA8ZMOjxg4epKSmvX7169t+/jx89unn1iiAqMtDX65+jf+76fcuShfOmTZ4wYtjgXt27dmjXqpmJkZEOQ4+hTqdR1FSomuqqTC1NXRbTUF+nmZGBeRPjVs2aWFk069bRQq53h/efPn7U/FmT1y6bt3PT6qP7tnufOHza1y08yEsQHhwfzYmLCkmI4Z6N4ZyLDk2IPB0fGRQf8X5+Ny7cT74pjecl4Hry5WclyG8hl5jQlZfJjx8mej0EnBp0sDyNl3xzmzyTV0JkUFigx/TxDvoMjbYtmgvPnMGkcC5u3X46UAsIAAEg8C0IgKj9FhShDyAABD4Q8HA7pcvSMzEyEcYIP7yT/y2VSsrLy4qLCvNyczMz0pMS37588fzpk0f3b18/HycICwn2dDt+cM+uDav/t2ThvOlTJjiMsBvUv08Pm86d2reyaG5ios/SZ6oz1SlMdVWWlqY+i2mkp9PM2LC1mUmndi1/7fbLkP6/OgwbOHmsg8uMiYtcZ6xetmDHpjUHd205un/H8cO7vY4fDPU9Hh506kyIZzTHm8/1ieF68ytuQZhvrHwtrG8sz1fI9RVyvcm3gOPFD/Xkh3qSVjLI1zO81774ugieb1xEYFxE0NG923pYW7I0VJ2nTMlNzyC7D2UgAASAABD43gRA1H5vwtA/EGhcBC5fuNzSrCWNStu+dXudPJdJxaLy0pLiwoL87KzMd6kpSYlvX718/vTB3TvXryQIoznB/l5u//x1aN+OLb/9b8mC2TOmTnAaPdJuSL9ePW2sO1m1sWjR1KSpkT5bX0ePqanNZOjqaBtVrGdobdb0l3YWtr9Y9uvR2X5Q74mjh82ZOnaJ67Q1y1w3r1myc/PKg39sOnH4j1PH9vu7Hwn1OR4R5MHn+gnDAmLDA2MjguIjguIiAuXLGHgVkrdyJUPFegaej7DijpVP/fonnAk5c9p7vvOkpgas5myjYD8/mQSmaesUf6gEBIAAEPhWBEDUfiuS0A8QAAJyAhnvMoYOGooQGuMwpqy47IuhyKRSqVhcVlpSVFiQn5ubk5WVnvYuOSnx9auXz/99+vje3RtXLsXGRJ329z1+9MjO37euXrFs7uxZ48Y4Dh86tF+vXr9Ytm9v0cK8CdtEX8dYl2nIousxGQa6rCYGeuYmhhamxlatTG1+aTewVze7/j0dhw+c4jRi7owJKxfN2bhyya5Na47s2eZ+dJ+f25Fgz2M8P/czp734XPl0bELUafkdGRwfKZe8+ARtfOTp8/wwj78P9uveRUdTfZKTU1pS0hc7Dg2BABAAAkDgywiAqP0ybtAKCACBmglIxJIlC5cghDpadnz1/FXNlb7yrUwmk0olcslbWlRQkJudnZ6WlpKc9Ob16+fPnj198uT+rVvnYoWRXK7H8eMHdv+xecPaxfNcJjo5Dunft5dNF2urti2aGrP1mCb62s2M9fS0NHQYdB1tpoGujrGhQVO2kYVpk45tWvTobDm0X/fRdv0nONjNnjJ25aI5W9Yu3bN17ZE9v7sf3Rvo8XdEsFc0xy+G6x9/hhMbyVm3fKG5iZEZ2yjY108qgXNxvzLG0BwIAAEg8NkEQNR+NjJoAASAQO0Ejh87rqaipsPUiTkTU3vN7/RVJpWKystLS0ryc3OzMjPT3qUmvn3z/Nl/Tx49fHDn5o3LF/gRPG/3Ewf+2LF53epZUyeNGjakZ7cuHdq2NmvC1mNqMVRpDDUaXZWmpanO1NLUZmrp6WgbGxqYmRi3Nm3SsXVz207tBvXq5jCk3wQHuxkTHJfOnbV66YL+v9rq0DWGDRyQmZL6nfyCboEAEAACQKAWAiBqa4EDn4AAEPgSAhfPXWQbsqkU6p4/9nxJ++/aRiaVSSTlZaWF+flZmRnvUlJevXzx79Mn9+/dvXn5Ij8iLMDT49ihA7t/37JuxfK5zjPHOowa0q9vj65yyduiiXFTAx22LkOfoa6rqWbA1DBg0PW1mfIlDU3ZhjraZk3Y+3btgtW03zWA0DkQAAJA4GMEQNR+jAy8BwJA4AsJpKem9+3VFyHkPMO5pKjkC3v54c1kUrnYLS4szMvNycpIf5eS8vb16+dPn96/eeNyQkJ8dBQn0M/b7fjhvbs3rlm5yGW285QJTiPtB/T5tesvHTu2a9OiWVP7oUOuX778ww2HAYEAEAACQEBOAEQt/A6AABD4xgQkYsmiBYsRQn17961hWa0MwxrQMVsymVQiEZeXy/WufM9aHp6iIfHNm1cvnv378MGNq5fihXxeaIjHyRORvLDC3LxvTBO6AwJAAAgAgboRAFFbN05QCwgAgc8h8M/f/yCEzEzNzsWfU2zXsEStovVVniv2q4nKy8qKi4ry8/KKCgtl0gYk2Kv4Ag9AAAgAgYZOAERtQ48g2A8E6iOBC+cuGugZaKprnjh2QtE+JRK1iq7BMxAAAkAACPw8AiBqfx57GBkIKC+BjHcZXX7pQqFQFs1fJK1+DAHMZipv6MEzIAAEgMDPIgCi9meRh3GBgDITkIgls2bOQggN6j8oKyNLmV0F34AAEAACQKB+EABRWz/iAFYAAaUjcPTPowihluYWt2/eVjrnwCEgAASAABCodwRA1Na7kIBBQEA5CJw/e4FtyKZr0P19/b+fR3k5eTev37x96869O/duXL3x39NnXzOWqEx0/+79iLCIwvzCr+mH3FZUJrp66eqNqzdwC7923lqGpSanXjx/KSYqpiElkSATgTIQAAJA4PsQAFH7fbhCr0Cg0RN4l5Jm08WGQqGsXrn6+8G4cfVG/z79O3bs1KlTpw5WHSZNmJyX/dlJtYoKis4lnNu/d/+MqTM6d+rculXroICgb2VzanKqlaVVB6sOuIUhQSFf1nNGWsbfR/92meXSt3dfy/aWHS078qMFX9YVtAICQAAIKCUBELVKGVZwCgj8fAJisWTGtJkIoSGDhpYUf68jGK5eumpqYoo+XF2tu2amZX6u85npWa6zXdlsthZdi4IoCKFhQ4cVFxZ/bj811k9+m/zBOvnfp06eqrHaJ1+mJKaMHjWaocWgUWkIISqFOn7s+JSklE82hApAAAgAgUZCAERtIwk0uAkEfgKBPX/sUVNRM2tu/vjx4+80/J2bd8xMzQjVaNPVJiv9s/elicpF+3bvoyIq0Y+WFiMyPPKb2JydmYMLZbzzAL8AvNvCgqLM9M/Q3+Vl5Uf/PMqgMwgjdbR1TvxTLWPaNzEaOgECQAAINEACIGobYNDAZCDQQAhEhkWyDdmqqqr+ft9rWe39u/fJota2m212RvYX4Hn84HFLs5aEXkQIOTqMwaSf3VNOdu7rl6+FfOGVS1fwxjlZueRuieUHXqe8hg4aum3rNm4o9/m/z+syUkpS6sjhI8m99erRKyURJmvrAg/qAAEgoPwEQNQqf4zBQyDwswg8uPegi3UXhNDiRYu/kw0P7j34JqK2vLx8ccXRvoRkZDKYd2/f/Syzs7OyFy9c0rlz5zZt2oweOTojLQPDsNycPKJPhFBocCje58L5C1VVVQ0NDS1aWiycv6i8VPTJsaRSaVBAMNuITXSoqaH5z1//fLIhVAACQAAINAYCIGobQ5TBRyDwcwhkZ2Q7OTohhLp17Zabm/s9jFAQtd1teuRk5XzZQJcuXCL/5z5CaPeuPZ/VVVlJ2aTxk3DFyTZkXzx3EcOw7IxsQoMSorastGz40OHE+3Vr1t++eWf61Okzp8+c7Tx7jvMcl1ku7+85Li5zXFxd5s51mbdk4ZIJ4yayGCyiIUKofZv2ri5z5zjPId+znWc7z5w123n29KnTjx4++lleQGUgAASAQAMlAKK2gQYOzAYCDYCARCJZv2Y9BVF0dXRv3771PSyui6jNTM8UxAgunr949fLVq1euVb9vXL1x++ZtfjS/jUUbsl7s16f/ubPnrl+9Lm9Y7b588fKlC5fyc/Mr/ZJhx4+dwHtQoan8feRvDMPyc/LJfeIztS+fvWzXph3+Xl9HPyaKH8uPpWvStehaDC1GlZuBX0wmg8nSZjEYTCqVSl6kS6PRGAxmlSYVPWhpybuia9JH2Y+qtBBKQAAIAAHlJQCiVnljC54BgXpAwMvDm8VkUalUHx+f72FOXURtzJkYy3ZW1h2tu1h36dq5a/XbtqttD5seNl1sdLV1yQJUi65l3cm6WxebLtZdarx/7f7rhXMXyH7du3NflaaKdzLfdT6GYXk5+WQNiovamKgYHW0dvFqfX/ukJKWcjTtLHvoblgcPHEK2EMpAAAgAAWUlAKJWWSMLfgGBekHg8sUrLc3lG7DWrlkrlX7+xqtPOVEXURvOi6BQqPhFo9JquGk0FZqKCk2FSqlMgIDLSiqVWkP9D52oq6hHRUSRbczNyjVt0gxvO7DfwNLi0vJSETmvAuc0B8OwwwcPU6nvx1q1YpVYLI4Xxn9DIUvuqm+vvqKyTy/YJXsBZSAABIBAQyQAorYhRg1sBgINhkDGuwy7wXYIoVEjRuVmf+2yWolIopCR4NqV682bNic0nG0328Q3iQQdqUQuo2MFsUSFGgvkmdQaK3zsJRVRFUStVCIdNGAwXt+0SbP01HRxmZiG5Jll8YvHCZNKpC6zXPBHBp0RfSYGw7A4QdyHKvK/e9r2nDZ1upOj05jRYxRuRwdHuyF2Y8eMHec0bszoMVMmTZk2ZdrYMWMVbkcHx5EjRtnb2a9bva68pJxgAgUgAASAgLISAFGrrJEFv4BAvSAgEcuX1SKErNpZPXrw6GtsKi4onjlt5sTxE6dNnjZt6jTnGc5zZs0ZM9pJQ02DkIMsJmvyhMnO051nTJs5fdqMaVOm8bg8frSAqFCXggpVpS7VEEI0RMNnXsl+rVuzDm+uqqJ668ZtmVRGFrX8KH5aanr3bt3xOl07d01LSVMQtSpUleDA4Ldv376q6bp0/tKUSVOWLFqybMnyFctWPLj74O3bt69fvVa4X7189fLFyxfPX6Qkp8ikMrKFUAYCQAAIKCUBELVKGVZwCgjUIwIBfgEIIR1tHR6H9zVm5WXnadG1NDU06Zp0Op0u3wjFYNDpWmQBSkEULboWftPpWnQ6fe3qtS+evcRF8OxZc+bMdpkz28V1tuvcOXPnusydN3eeRQsLcg/NTZs7z3Ce6zIXr+w629V1tuuc2S6zZ81RuGdOnzlt8rQrF9/noyVcCz3NITr09fbDMIwsam9cvXHj6g19XX28zsrlKyViiYKopVAoF85WWapLdI5h2OWLVwz0Ddjyy6SpSdM7N++Qv0IZCAABINBoCYCobbShB8eBwA8icO/OPWMDYyqVumvHLuwrZgxLi0oJsVj3woJ5C0TlosS3iUmJSRVXclJScjJ+Jyffu32vQ/sO5N7Wr1mfmJiYnJyMV8ZrJiXhj3gP7/9MTEx8+/ptUUGRAscnj54SHW7euBnDMPKa2mdPn/n7+ONH3SKEYqL4eHOF5QfnE87j76ViqazqUmRhjJDoX4WqEieMVzAAHoEAEAACjZMAiNrGGXfwGgj8OAJFBUUD+w9CCE0cP6kgv+CLBy4pLCHEXN0LE8dP/OiIUmzrpq2amppEb506dHr277OP1q/bh9KiUqYWE+9z1szZCqL2zs07i+Yvwr+2ad02L+d9RjAFUZsQl4BhGD+a7zrb1WWWy5xZc1znuC6av2jZkmUTxk4gDKYgyqgRoxbNXySfeJ4zd97c+fPnLcDvWc6zjhw6UjeToRYQAAJAQBkIgKhVhiiCD0CgPhOQyWT4MtMu1l3+ffLvF5sqKhW1NGupr6NvbGBsbGDMNmSzDdkMTQah8PAC25DdvGlzQwMjA30DXZbunFlzPjZiVGSUibEJ0Vybqe11ygtfDPCxJnV6L8NatWyNdzt54hQFUfvXkb+JDLXr1qyXyd7PXSuI2vhY+fzrjt93MBnM94lqGUxtbW0Wi8VkvFfM+BB0Ol1bW5vJkCeyZTK1tT/cDC2Gw0iHOhkMlYAAEAACSkEARK1ShBGcAAL1m0CQf5C6qrqRvtGZ8DNfbKlMJosXxguiBbH82DhBXLwwPpYfO8d5DqFKEUIWLSwCfAMuX7gcJ4yLPhMdFRl17/a9Gkd8/fK1w8jRFAoFb05F1JnTZ+bnkU5SqGgmlUgvX7ocL4xPSUrBcynU2JvCS/th9mamZl07dz3y5xFMWmVNrdsJt907d9sNsbO16X7nVuVy2BpF7fbfd5C9+9yyvZ29gmHwCASAABBQYgIgapU4uOAaEKgvBB7df2RmaqZKU923e9/X2FT+4RKVi0TlovLy8pUrVpGlXg+bHqnJqRKxRFQuKqu4xCJx9RHLSsr2/rGXWCSAELL+xfrShcvVaz57+mzsmLGdOvwy1nHstq3bOCGcjHcZ1aspvBHECCPDIq9fvZ6ZmSkVS1Wp749jQAjFxyZkZWY9ffz08sXLZWVlRMMaRe2xv/4xMzUzMzUzN2thYW7R0rxla4vWbCM22WULc4t2bdq1NG9pYW5hYW6hqVG5mmJkRUmRLQAAGqVJREFU9bPEvmJNM2EqFIAAEAAC9ZMAiNr6GRewCggoFYGSopIB/QYghJynO5cWl34r38pLy8c4jCErPBMjk1hB7Cf7P59wvpNVJ6IhU4u5e9fu0tJKifm+Bxl2YO8BhhaTRqXRNekGBga2XW3jBHEKuXKrD1dSUlJaUioWy/W0RCRhMVlEKtz4in1dMqlMJKpyIEKNojbpbVK8MD5eGJ8Qm3Au4dy5hHPXrlzfvXM3YbmaitqJYyduXb916fylyxcun407O3jg+yy5CCGHkaMVbQNRq0gEnoEAEFAeAiBqlSeW4AkQqL8EZNiyxcsoiGLb1TY1+d23svPV81fE+lRc59FoNPthI6qvIiCPmJ+TP3nCZDVVNUIa2g+zT3yTRK6Dlx/ce6iQG8Fh5Gjy4Q4KTfLz8v8+8vfa1Wu3bt667fftO7ftPHjg0B87/9BQq5w9ne08e+/uvdt+307cwUHBmAyLj61yohi+plYqleJz0/KZ6YpLIpYkkA7UVaOpXbtyXSqRikVisVgsKhfNnO5M+OXk6KRg4ddkn1DsCp6BABAAAvWMAIjaehYQMAcIKCkBbw9vbS1tQz3Dy9USu36xx37efupq6oSGwwt0On3X9l0fm0wtLS49tP+QDlOHaGVu1iIqMrr6etn8nHyXWS6qKpUrB5qamEbwImrZSfbm1Zuunbvq6uoa6BsYGBgYGhgaG7MNDQ2JlbvyfL0sHSMjI/nnD9e4MeNKikrIx55REIUXyhOVicpKyoi7vLRcVCaSSqSxpLPHaBSaIFogLheXl5aXlZSJykTEWWUIoWFDh798/urJoyc5WTlfDBkaAgEgAAQaCgEQtQ0lUmAnEGjYBK5fud7Gog2NSjtx7MS38sR5RuWsJCFSEUImxiZnIqrsSCsuKH7x7OW5hPObNmxqYd6CWAyAEBo8cHBQQHAEL+J0UIivj5/bcbcjfx45sO/giqUrWNosolsVqsqm3zYXFSpmpSX7kpqcatXOimhSx8LggYNLCkti+VXO8nUY6bBsyfIF8xbOnzsfvxfMW7h4weJ1q9dNnzKd6JmCKGNGO61euXrJwiVLFy9dvXINcVYZfuBFvz79BvQd4O8bQLYTykAACAABpSQAolYpwwpOAYF6R+Bd8ruhg+0QQi6zXaTiqscJfJGxyW+TW5i1IOQduUBBlCGDhrx9/ZboOPR0qL2dvXWnzvr6+lQqlVzZQM+wtUUbczPz5s2bm5o2a9KkCZvNNjYy1tGpnM1FCI1xGJP0NpnosMZCRlrGF4jaQf0HFRcUk49UQAhpaWmxWDra8mRdH25tbZY2S1dXV1tbm2y/lhZDV0eXJU/2Jf9K3iiGEFJVVVVTVdu9a0+NBsNLIAAEgIAyEQBRq0zRBF+AQP0lIBaJFy1YTEGU7jbdM9I+nUDgk554unuqqKiQ5R25rKmpuW3LNnH5+9QH7ifdNdQ1aDQauQ5eplRc1d+T33S37XHj6g2p9BPbrNJT0y3bWZIbVi+rUBVtth9mX1xYHBMVU73yt3qzc/vOT/KECkAACACBhk4ARG1DjyDYDwQaDIFjR49pqmsaGxhfuXT1K40Wl4sdHRxr1HzE0gILcwv8XC4Mw+7dvteE3aTG+p98adHCghvCFZVXSVZQo/0ikSg0hHPy5ElPT09fH19/f/8tm7doqGuQh1i1chWPy/P39/fx9nFzczt+/PjZhLNSqTQmuoqoNWGbmDU3M9A30Ku4DPQNjIyMTNgmJmwThcMX2MZss+Zm+CdTU1PiAF58UBWaigpNZcumLbUsBa7RF3gJBIAAEGhwBEDUNriQgcFAoKESuHD2QrOmzWg02rG//vlKHx7ee6ivo08Wi3i5CbvJkEFD8DKNRnNydMpMy8QwrKSoZNjQYeT6FVm6tPRYeiZGJs2bNm/bum3bNu20tar8zz5CiG3EPrD3QFHR+6W0sk+tmyguLi4sLCwqKiquuHx8fBRWO5w4caKsrEz+sUhes6CgAM9WGxNTKWrV1NSOHz/++PHj+/fv37t39/79+w8ePHj44Tpy+AjhiKqqamBg4OPHj/GPDx48GDFiBPG1R48enh4eJ04cv3TpEnF02VeSh+ZAAAgAgXpLAERtvQ0NGAYElI1A4pvEnt1/RQjNnTP3k+qwducP7DtIpciXxhLzsriS62HbM4IXQRxPwNBiHNp/CMMwmUy2b88+2662QwcPnTFtxoplK37f/PufBw/7ePlE8CJiBbEJcWd/W7/R2MCYUIQIIW0t7Y0bNmamy2UxhmH5efncUO61K9eKC4trN4/4umDBAnKHCKGBAwc+ePCAqEAUQkNDiZo0Gu3ixYsfPimuebh48SJRU0VF5e7dux9qyh11cXEhvo4bNw7XzaWl3yw3MGksKAIBIAAE6hcBELX1Kx5gDRBQYgKlxaUzp81ECPXq0etdStoXe5qSlEIcMaDD0tVQq/z//X59+qelpM13nU8Iu149euVl52EYlv4u/fbN28+ePktJTklPT8/Oys7LzSsqLCotLS0tLg30D7Tt1p2cwItBZ6xasSolKYWY44yKjLJsZ9mti81cl3neXt6PHz4m1uzW6Mvr1687dFBMhqCpqTl16tTXr18rNPHy8iJsRgjhojY3NzcpKSktLS294srKyiooKODxeERNCoUSFhaWVXHl5uYWFhY6O1dmhHByqpanVmFUeAQCQAAIKBEBELVKFExwBQjUbwIymWz3zt1qKmrGBsYXzl74QmNlmIebB4POQAhREbW7TQ/TJqaEyOvTq292Zvb9O/dZTHk2LlWa2vq16/GTvWQymUQskVXb7JWblXtg3wGrdlZqpJS3DDpjzco16WnpRP2igqKR9qNoVJoKTYXJZDZt0tSmi02gX2AtmRy8vb3V1CqPeCCMZDAYy5YtKygoIBM4evQoUeH/U8xeu3YNw7D169dbWlp27drVxsbG1ta2Z8+egwYNsrGxIde0tLTs3btXz549e/fuPWTIkCZNKpcOOzg4kIeAMhAAAkBAuQmAqFXu+IJ3QKB+ETgTccbIwEi+rPbosS+zLDkx2d7OHld16irqM6c7t2/TnhB5vXv2zs3OE4lEkyZMRghNmzL9zcs3tQz05vWbZUuWGRnKTSI60WHprvrf6oz0Kikajh4+qkXXIuoghNpYtLl0/qNrVYuKiqZOnUquTy7r6+t7enqSDdu9u/LwWzqdfv/+fQzDJk2aJNfuHy4ajaZacZG7olKpKio0Gk2+I0xVVZW8hHfEiBHkIaAMBIAAEFBuAiBqlTu+4B0QqF8E/n38byerTgihBfMWSMolX2BcoH+ggZ4BrupMm5j6ePlad+pMiLye3X/Nzc7FMOxMRNS4seNu3bhV/agwfND8vPzTQadHDh/JYlWesIAQMm1iumHthpSkVLJtghhh65atiVEQQmoqaocPHSkpKSFXI5fv3LnTpk0bchNymUKhWFpaJiQkEE22bNlCVGCz2e/eyQ8TnjhxIvHyCwrDhg0j+ocCEAACQEDpCYCoVfoQg4NAoB4RKCspH+s4Vr5fqt/A5E+dZVDd7rzsvInjJxKTkfbDRjx++IQsanvY9sRFbUFe4f27D8rLy6t3gmHY3dt3N6zd0LZ1O4V8W21atzmw90Baahqx6gDDsNs3b4+0H0meyqUiqvN056yM7Bo7x18eOnRIVbXyiF1CkjKZTLysoqLSp08ffEYWw7CVK1cSddq1a4fL5R07dvTv33/QoEFDKi47O7sRI0ZYW1sTNRFCtra2jo6Og6tdffv2Xb58eS0WwicgAASAgJIRAFGrZAEFd4BA/SYgwzZvlE9Jmjc3v3ie2OBfV5t9vHz0SJm8Du4/9Py/F21btSVEHiFqMRmGL6VV6DolMcXtpPuQQUN1dXWp1MolB/j2NR4nLDcnl9gZhmHY29eJLrNc6HQ6MQRe87+nz8jVFEbJzc0lp9Yit508ebK+/vtkZGpqauPGjUtNlc8Ku7q6EtV+/fVXvPOMjIznz5+/ePHi5YfrzZs3bm5uRE0VFRUfH5/ExMQX1a5Hjx69fPlSwTB4BAJAAAgoMQEQtUocXHANCNRHApHhkXQNOkOT4XbC7bPsy8zItO1mS6FQcEnXwqzFs3+fPXrwmHxYbqWordZ1SVFJGCfMftgINttEveqBCKo0tckTJ9+5eaekuMpygsL8olUrVrG0q6xPsGhhEc4Nl0hqWzsRFhZGzMi2bNmSvF3s/Pnz//vf/whVqqWl5enpKZPJhg8fTrx0dHQkzJdVvTAMi46OJmpSKBQ8T0LVWvInacVF9AMFIAAEgIDSEwBRq/QhBgeBQP0i8C4lzbKdJZVCXb50ubjs/TG2nzSxuLB4xdIVZHW4euUasUj84N4DM1MzQuTVKGrzcvJCTofMnO5samqqIGcrFtE2W7d63Yv/XiicuZWdmbP5t826OrpE5wghE2OTw4cOFxfXlqe2qKho1KhReCsKhTJx4gTyst379+9fuXKFzWbjFZo2bRIbG5ubm2tlVZn8a9GiRTiQGqWzUCgkm3T27NlP0oMKQAAIAIHGQABEbWOIMvgIBOoRAYlE4uTohBAaMXwkca7BJ+27evmaLqtSXzZv2vzenXsYhj28/8i8uTkh8moUtefPnu/8S2ctrSq5CxBCTC2m3RA7Px//zMxMhf1kb1+/3bh+I7EjDe9fh6W7bs36jHdVsiJUtzwgIIBYrqCrq3vixAld3UrLz549W1paOnOmPF/v/2c22LZtW3Fx8ZMnTwwM3u9++/9daLt27ZSv5b19e926dTt27NizZ/feiuvAgQPHjh0jT/TKT7KYO/fIkSN4BfKf27dv8/DwqG4evAECQAAIKCsBELXKGlnwCwjUXwL4slrrTp0f3n9YRyuT3iRZtaucy5w/dwG+CUxB1Ha36ZGTlaPQZ25W7nzX+eSzxyiIYt3ReuumrQ/uPigqfH8ELtHq8cMnSxctNTE0wXUn/qe6qvqSRUvfvHxD3kNGNCEKiYmJvXv3JhqOHDny9evXmpqaxJuIiAh8CUGLFuZjx47FsxzExMSoq6vjdSgUSmBgIIZhISEhOjo6+vr6Bh8uQ0NDY2NjPT09ojeEEIvFMjIy+lCl8m99fb3evXsThkEBCAABIKD0BEDUKn2IwUEgUO8IRIRFajO0jQ2Nw7nhdTROLBYf//s4Luaamza/cO792Q0Kyw9su9lWF7Uymezpo6f9+vTHm7MN2a6zXeMEcdlZ2QpLDjAMu3rp6nin8SwWi1i8Kz8vl6G9ZtXa9HfpChO6isbLsD92/UHIUyqV6uHhIZFIiHQNCKHQ0FAMwwoKCvbv33fz5k18Q9iRI0eI4XR1dfFlsuSTw8gqtu5lKysrRQvhGQgAASCgvARA1CpvbMEzIFBfCbx89rJd63aqNNX9ew/U3cb8vPzuNt0RQnNmuZSWluIN79+5T15TW6OoxTB5JgRuCLdd2/bjncafiYhKe5dWVlamOLQUC+OE9enVV+GQBboGffX/VmdmZirWr/Z87cq11q0r09laW1unpqZKJBJCsCKEgoODMQyTyWQ5OTkikQjvg5z6oH379s+fP1fYEFZ3IUuuCaK2WojgBRAAAspMAEStMkcXfAMC9ZOAqFQ0xmEMQmjKxCmfZeGJYyc6degUy48lWtVR1P5/ItjC/MKL5y+mJKeUlVaTsxj2/NmL3bt2W5hbqKkqHmxLpVKdHJ2eP3tBDPqxwqEDh4h0tlQqddOmjVKptKCggCxqg4KCFJpnZWUNGDCAEKN2dnZ5eXkYhgkEAuIlQqh///4zZsyYPHnyxJquCRPGT5w4cezYsdra2kQrELUKqOERCAAB5SYAola54wveAYF6SUCGbd20lYqonaw6vUtJq7uJaSlpXh5e+Tn5RJO6i1pMhonK38+MEs0xDCsqKIoIi5w0YbKBvgFZfRLSECHEYDAGDxjs7+tf+ylo5xLOmZm9T8VgaWl5/fp1DMMyMzPJ3VYXtZcvXzY1NSWGW7FihVQqrS5qvb293717l5qamvLxKzk5uWXLlkRXIGrJgYYyEAACSk8ARK3ShxgcBAL1kQDnNMdQ35BJZ54JP1N3+6RSaWFBIXmr1meI2pqGuXv73pqVa9q3saTTFXMjGOobEupQfi6umppFi1ZH/jxSVKC4sYzouKSkZNmyZXir9evX4yscPilqDx2qnN9VV1d3d3fHO1SYqcV3mBFjfaxgbl6ZCwJE7ccowXsgAASUkgCIWqUMKzgFBOo7gScPn3T+pTOFQvlt/cavsfWLRW3Sm6TDhw73tO2pw9KhVT1aTF1VfbzT+JDgEIeRDmRdS6VS2UbsbVu2lRRWOaOBbP/1a9dVVVV1dXVv3LiBv8/KyiJ3ojBTKxKJJkyYQFRgs9m3bt3CG/L5fOI9Qig8vE6b6po2bUq0AlFLDg2UgQAQUHoCIGqVPsTgIBCojwTysvNGj3JECI0a4VA9BUHdLa5L9gOF3pLeJvl4+owYNsLQwFBVRZWQgHjBxMhk5fKVb1+9LSkuSU5KnjFtprrK+2RbCCEKoujp6i1fujwrI0uhW/yxrKzM3t5+48aNxEa02kXt7du3yDJ08ODBBQUFeFcKoraOM7UtWrQgPAJRW2OM4CUQAALKSgBErbJGFvwCAvWagFQqXbViFUKoTas2SW+SvtjWuova0qLSRw8fHz50eJT9KGNjY42qJ+UihNRV1fv82sftuFtmehaeaQvDsOS3ySuXr9TR1iGUojzDl7b25ImT796+W6PZFy5cyMqqlLy1i9oNGzYQe8sQQtu3byeGVlh+EBgYKBKJSj9+lZWVpaWltW/fnjAVRG2NAYKXQAAIKCsBELXKGlnwCwjUdwKe7p50DbqmuuZnLatV8OqTolZSLnn+34swbtialWv69+lvYGCgoaFByD6iYNXOasPaDTev3SwsKCQPIZPJ0t+lb1y/UZdV5cgDOp0+dNDQs3E1HFFLzNHi/dQiav/77z9LS0vCBl1dXXxvGd5QQdQOHjx48eLFrq6uc+fOda3pmj9//uzZs4kDeBFCIGrJoYQyEAACSk8ARK3ShxgcBAL1lMDFcxfNm5lTEGXn9l1fbGItojb9XTrnNGfF0hV9e/c1b2bO0mZVT9eFEDIxNpk1YxY/ip+dmS0WiWuwRIZlZ2fv2bVH4dRcdXX1AX0HXLsqT3FQy/UxUfv/qWqXLl2qqlq5/sHJyYksiBVErYaGBpPJZHzqIs/7gqitJS7wCQgAAeUjAKJW+WIKHgGBhkEg8U1i/77yU74mjptYXFD8ZUbXImpvXr/Vt1dfbaa2qqoqOakWMTNK16APtxvO4/DS09JrTF5LNikvN++vw3+xjdhEc/mKBXX1Hb/vkEnIFRXLHxO10dHRLBaL6E1VVVVh1ayCqCVq1r0AolYxGPAMBICAUhMAUavU4QXngEA9JiAWiefPnY8Q+qWj9ZOHT77M0lpEbUlJyamTp/R19aurQH1dfSdHpwC/gJTkFOJwsk8aUFBQcOzosWZNm+MdMrWY81zm/ffkv9obZmZmkg0ICAjAMKy8vHzz5k3EgboIIUdHx+LiKsoeRG3tYOErEAACQECBAIhaBSDwCASAwI8jcOzoMYSQkYFRBC/iy0a9e/tusybNCNXYxbprVnrlJq3CgsLlS5YTX7U0GR3ad1gwf0FocGjSm6SS4o9m5vqYMQUFBQf3HzLQM2AxWZs2bEp8nfjJ1A3p6emEAQghTw9P/JjcF89f7Nu3r2vXrgghQwNDHo+nMGh0dDS5oYODw28bflu3bt3/Z8BdV9O1Yf2GFStW6OlVrv1t26atQp/wCASAABBQYgIgapU4uOAaEKg3BGQYht9VLbpw9gJdg65CVdmzaw8mP0Xrs6/bN++0atGKEH82XW3SUqscUfby+UubrrZsI7aTo9OhA4euXLqSmZFZUlJCJBn43CHzcvK3bt56aP+hnKwc/Oiv2nt4l/qOnGnhyOGjeH2JRJKfn3/pwqUZ02esWbUmP6/ymDS8QvSZaFVa5YpbD3ePnJyc7OzsnGz5n9WvnJyczIzMLtZdKIiirqpOpVA7dehUWlJau3nwFQgAASCgNARA1CpNKMERIFCPCXxE1KYmpf7S4ReE0BznOWUl5V/gQH5uQQQvItA/yN/X39PdkxvKLS2qIuMkEsn1qzeiz0QnvUkqyC8QiWo4Kfdzx83OzK6uQT/WiVgsDgwI8vP28/PxO/HPibu375FrispFb16+SUlKqS6yC/IKeBxe6OnQQH9585fPXpIbfqx84dzFcF74mYiokKAQHieMfPrax5rAeyAABICAchAAUasccQQvgEA9JkAoWpmikRKxZOrkaQihAX0HvHrxWvFzHZ5lUllpaWlJSUlJcUlxUXGNU7BikbisrKy6aqxD9x+pUs2Rj9R7/xo3r6S4pKiwqLxcUbtLpdKapacMKy0tI7wTi2vKzFBt4PJyUVnFVVoixyL//nH+1VrDCyAABIBAAyYAorYBBw9MBwINgwBZVFWTgwf3HWTSmdYdrc/Fn5NKvmgJQsOg8POsJPP/eVbAyEAACACB700ARO33Jgz9A4FGT4AsqojyByqPHz7esmnLP38ff/X8Ve25sT60+Oq/CRuIwld3CR0AASAABIDATycAovanhwAMAALKToDQjuTCB6fFInHGu4z83HxxuVj+H+Xf4yKPW738PUaEPoEAEAACQOCHEwBR+8ORw4BAoLERqK4j8TcfOMhXu1Z98+HLN/r7UwZ8o2GgGyAABIAAEPiZBEDU/kz6MDYQaBQEPqYpFd43ChbgJBAAAkAACHwvAiBqvxdZ6BcIAIH3BBTE68cegRcQAAJAAAgAga8gAKL2K+BBUyAABOpC4GMqlnhfl06gDhAAAkAACACBWgmAqK0VD3wEAkAACAABIAAEgAAQaAgEQNQ2hCiBjUAACAABIAAEgAAQAAK1EgBRWyse+AgEgAAQAAJAAAgAASDQEAiAqG0IUQIbgQAQAAJAAAgAASAABGolAKK2VjzwEQgAASAABIAAEAACQKAhEABR2xCiBDYCASAABIAAEAACQAAI1EoARG2teOAjEAACQAAIAAEgAASAQEMgAKK2IUQJbAQCQAAIAAEgAASAABColcD/AcHPbVYz6kLbAAAAAElFTkSuQmCC;" vertex="1" parent="1">
          <mxGeometry x="57" y="140" width="714" height="390.23" as="geometry" />
        </mxCell>
      </root>
    </mxGraphModel>
  </diagram>
</mxfile>
